<svg width="91" height="17" viewBox="0 0 91 17" fill="none" xmlns="http://www.w3.org/2000/svg">
<rect width="90.262" height="16.1136" rx="8.05678" fill="#FEFCE8"/>
<path d="M7.78818 2.68555C4.82865 2.68555 2.41699 5.09721 2.41699 8.05673C2.41699 11.0163 4.82865 13.4279 7.78818 13.4279C10.7477 13.4279 13.1594 11.0163 13.1594 8.05673C13.1594 5.09721 10.7477 2.68555 7.78818 2.68555ZM10.3556 6.82136L7.31014 9.86682C7.23494 9.94202 7.13289 9.98499 7.02547 9.98499C6.91804 9.98499 6.81599 9.94202 6.7408 9.86682L5.22075 8.34678C5.06499 8.19101 5.06499 7.93319 5.22075 7.77743C5.37651 7.62167 5.63433 7.62167 5.7901 7.77743L7.02547 9.0128L9.78626 6.25201C9.94202 6.09625 10.1998 6.09625 10.3556 6.25201C10.5114 6.40778 10.5114 6.66022 10.3556 6.82136Z" fill="#FF8900"/>
<path d="M16.4042 11.0568V4.22071H18.7141C19.2503 4.22071 19.6887 4.31751 20.0292 4.51111C20.3719 4.70248 20.6256 4.96173 20.7902 5.28884C20.9549 5.61596 21.0372 5.9809 21.0372 6.38368C21.0372 6.78646 20.9549 7.15251 20.7902 7.48185C20.6278 7.8112 20.3763 8.07378 20.0359 8.2696C19.6954 8.4632 19.2593 8.56 18.7274 8.56H17.0718V7.82566H18.7007C19.0679 7.82566 19.3627 7.76224 19.5853 7.6354C19.8078 7.50856 19.9691 7.33721 20.0693 7.12136C20.1716 6.90328 20.2228 6.65739 20.2228 6.38368C20.2228 6.10997 20.1716 5.86519 20.0693 5.64934C19.9691 5.43349 19.8067 5.26437 19.5819 5.14197C19.3572 5.01736 19.059 4.95505 18.6874 4.95505H17.232V11.0568H16.4042ZM22.2639 11.0568V5.92972H23.025V6.70412H23.0784C23.1718 6.45044 23.341 6.2446 23.5857 6.0866C23.8305 5.92861 24.1065 5.84961 24.4135 5.84961C24.4714 5.84961 24.5437 5.85073 24.6305 5.85295C24.7173 5.85518 24.7829 5.85851 24.8275 5.86296V6.66406C24.8007 6.65739 24.7396 6.64738 24.6439 6.63402C24.5504 6.61845 24.4514 6.61066 24.3468 6.61066C24.0976 6.61066 23.875 6.66295 23.6792 6.76754C23.4856 6.8699 23.3321 7.01232 23.2186 7.19479C23.1073 7.37504 23.0517 7.58088 23.0517 7.81231V11.0568H22.2639ZM25.7612 11.0568V5.92972H26.549V11.0568H25.7612ZM26.1618 5.07522C26.0082 5.07522 25.8758 5.02292 25.7646 4.91833C25.6555 4.81375 25.601 4.68802 25.601 4.54115C25.601 4.39428 25.6555 4.26855 25.7646 4.16397C25.8758 4.05938 26.0082 4.00708 26.1618 4.00708C26.3153 4.00708 26.4466 4.05938 26.5557 4.16397C26.6669 4.26855 26.7226 4.39428 26.7226 4.54115C26.7226 4.68802 26.6669 4.81375 26.5557 4.91833C26.4466 5.02292 26.3153 5.07522 26.1618 5.07522ZM30.0747 11.1636C29.6118 11.1636 29.2057 11.0534 28.8563 10.8331C28.5092 10.6128 28.2377 10.3046 28.0419 9.90852C27.8483 9.51242 27.7515 9.04956 27.7515 8.51995C27.7515 7.98588 27.8483 7.51968 28.0419 7.12136C28.2377 6.72303 28.5092 6.41372 28.8563 6.19342C29.2057 5.97312 29.6118 5.86296 30.0747 5.86296C30.5375 5.86296 30.9425 5.97312 31.2897 6.19342C31.639 6.41372 31.9105 6.72303 32.1041 7.12136C32.2999 7.51968 32.3978 7.98588 32.3978 8.51995C32.3978 9.04956 32.2999 9.51242 32.1041 9.90852C31.9105 10.3046 31.639 10.6128 31.2897 10.8331C30.9425 11.0534 30.5375 11.1636 30.0747 11.1636ZM30.0747 10.4559C30.4262 10.4559 30.7155 10.3658 30.9425 10.1856C31.1695 10.0053 31.3375 9.76833 31.4465 9.47459C31.5556 9.18085 31.6101 8.86264 31.6101 8.51995C31.6101 8.17725 31.5556 7.85793 31.4465 7.56196C31.3375 7.266 31.1695 7.02678 30.9425 6.84431C30.7155 6.66184 30.4262 6.5706 30.0747 6.5706C29.7231 6.5706 29.4338 6.66184 29.2068 6.84431C28.9798 7.02678 28.8118 7.266 28.7028 7.56196C28.5937 7.85793 28.5392 8.17725 28.5392 8.51995C28.5392 8.86264 28.5937 9.18085 28.7028 9.47459C28.8118 9.76833 28.9798 10.0053 29.2068 10.1856C29.4338 10.3658 29.7231 10.4559 30.0747 10.4559ZM33.6003 11.0568V5.92972H34.3614V6.70412H34.4148C34.5082 6.45044 34.6774 6.2446 34.9221 6.0866C35.1669 5.92861 35.4429 5.84961 35.7499 5.84961C35.8078 5.84961 35.8801 5.85073 35.9669 5.85295C36.0537 5.85518 36.1193 5.85851 36.1638 5.86296V6.66406C36.1371 6.65739 36.076 6.64738 35.9803 6.63402C35.8868 6.61845 35.7878 6.61066 35.6832 6.61066C35.434 6.61066 35.2114 6.66295 35.0156 6.76754C34.822 6.8699 34.6685 7.01232 34.555 7.19479C34.4437 7.37504 34.3881 7.58088 34.3881 7.81231V11.0568H33.6003ZM37.0976 11.0568V5.92972H37.8854V11.0568H37.0976ZM37.4982 5.07522C37.3446 5.07522 37.2122 5.02292 37.101 4.91833C36.9919 4.81375 36.9374 4.68802 36.9374 4.54115C36.9374 4.39428 36.9919 4.26855 37.101 4.16397C37.2122 4.05938 37.3446 4.00708 37.4982 4.00708C37.6517 4.00708 37.783 4.05938 37.8921 4.16397C38.0033 4.26855 38.059 4.39428 38.059 4.54115C38.059 4.68802 38.0033 4.81375 37.8921 4.91833C37.783 5.02292 37.6517 5.07522 37.4982 5.07522ZM41.5579 5.92972V6.59731H38.9009V5.92972H41.5579ZM39.6753 4.70137H40.4631V9.58808C40.4631 9.81061 40.4954 9.9775 40.5599 10.0888C40.6266 10.1978 40.7112 10.2712 40.8136 10.3091C40.9182 10.3447 41.0283 10.3625 41.144 10.3625C41.2308 10.3625 41.302 10.358 41.3576 10.3491C41.4133 10.338 41.4578 10.3291 41.4912 10.3224L41.6514 11.0301C41.598 11.0501 41.5234 11.0701 41.4277 11.0901C41.3321 11.1124 41.2108 11.1235 41.0639 11.1235C40.8414 11.1235 40.6233 11.0757 40.4097 10.98C40.1983 10.8843 40.0225 10.7385 39.8823 10.5427C39.7443 10.3469 39.6753 10.0999 39.6753 9.80171V4.70137ZM43.2502 12.9794C43.1167 12.9794 42.9977 12.9683 42.8931 12.946C42.7885 12.926 42.7162 12.906 42.6761 12.8859L42.8764 12.1917C43.0678 12.2406 43.2369 12.2584 43.3838 12.2451C43.5306 12.2317 43.6608 12.1661 43.7743 12.0481C43.89 11.9324 43.9957 11.7444 44.0914 11.484L44.2383 11.0835L42.3423 5.92972H43.1968L44.6121 10.0153H44.6655L46.0808 5.92972H46.9353L44.759 11.8045C44.6611 12.0693 44.5398 12.2885 44.3952 12.462C44.2505 12.6378 44.0825 12.768 43.8911 12.8526C43.702 12.9371 43.4884 12.9794 43.2502 12.9794ZM52.8351 11.0568H50.7255V4.22071H52.9285C53.5917 4.22071 54.1591 4.35756 54.6309 4.63127C55.1026 4.90276 55.4642 5.29329 55.7157 5.80288C55.9671 6.31025 56.0929 6.91775 56.0929 7.62538C56.0929 8.33747 55.966 8.95054 55.7124 9.46458C55.4587 9.97639 55.0893 10.3703 54.6042 10.6462C54.1191 10.9199 53.5294 11.0568 52.8351 11.0568ZM51.5533 10.3224H52.7817C53.3469 10.3224 53.8153 10.2134 54.1869 9.99531C54.5585 9.77723 54.8356 9.4668 55.0181 9.06403C55.2005 8.66125 55.2918 8.1817 55.2918 7.62538C55.2918 7.07352 55.2017 6.59842 55.0214 6.20009C54.8412 5.79954 54.5719 5.49246 54.2136 5.27883C53.8554 5.06298 53.4092 4.95505 52.8751 4.95505H51.5533V10.3224ZM58.8834 11.1769C58.5585 11.1769 58.2636 11.1157 57.9988 10.9933C57.734 10.8687 57.5237 10.6896 57.368 10.4559C57.2122 10.2201 57.1343 9.93522 57.1343 9.60143C57.1343 9.30769 57.1922 9.06959 57.3079 8.88712C57.4236 8.70242 57.5783 8.55778 57.7719 8.45319C57.9654 8.3486 58.1791 8.27072 58.4127 8.21953C58.6486 8.16613 58.8856 8.12385 59.1237 8.09269C59.4352 8.05264 59.6878 8.0226 59.8814 8.00257C60.0772 7.98032 60.2197 7.9436 60.3087 7.89242C60.3999 7.84124 60.4455 7.75223 60.4455 7.62538V7.59868C60.4455 7.26934 60.3554 7.01343 60.1752 6.83096C59.9971 6.64849 59.7268 6.55725 59.364 6.55725C58.988 6.55725 58.6931 6.63959 58.4795 6.80426C58.2659 6.96893 58.1157 7.14472 58.0289 7.33165L57.2812 7.06461C57.4147 6.75308 57.5927 6.51052 57.8152 6.33695C58.04 6.16115 58.2848 6.03876 58.5496 5.96978C58.8166 5.89857 59.0792 5.86296 59.3373 5.86296C59.502 5.86296 59.6912 5.88299 59.9048 5.92305C60.1206 5.96088 60.3287 6.03987 60.529 6.16004C60.7315 6.2802 60.8995 6.46156 61.033 6.70412C61.1665 6.94667 61.2333 7.27157 61.2333 7.67879V11.0568H60.4455V10.3625H60.4055C60.3521 10.4737 60.263 10.5928 60.1384 10.7196C60.0138 10.8465 59.848 10.9544 59.6411 11.0434C59.4341 11.1324 59.1816 11.1769 58.8834 11.1769ZM59.0035 10.4693C59.3151 10.4693 59.5777 10.4081 59.7913 10.2857C60.0071 10.1633 60.1696 10.0053 60.2786 9.81172C60.3899 9.61812 60.4455 9.41451 60.4455 9.20088V8.47989C60.4121 8.51995 60.3387 8.55666 60.2252 8.59004C60.114 8.6212 59.9849 8.64901 59.838 8.67349C59.6934 8.69574 59.5521 8.71577 59.4141 8.73357C59.2784 8.74915 59.1682 8.7625 59.0837 8.77363C58.8789 8.80033 58.6876 8.84372 58.5095 8.90381C58.3337 8.96166 58.1913 9.04956 58.0823 9.1675C57.9755 9.28322 57.9221 9.44121 57.9221 9.64149C57.9221 9.9152 58.0233 10.1221 58.2258 10.2623C58.4305 10.4003 58.6898 10.4693 59.0035 10.4693ZM62.6711 11.0568V5.92972H63.4321V6.70412H63.4855C63.579 6.45044 63.7481 6.2446 63.9929 6.0866C64.2377 5.92861 64.5136 5.84961 64.8207 5.84961C64.8786 5.84961 64.9509 5.85073 65.0377 5.85295C65.1244 5.85518 65.1901 5.85851 65.2346 5.86296V6.66406C65.2079 6.65739 65.1467 6.64738 65.051 6.63402C64.9576 6.61845 64.8585 6.61066 64.7539 6.61066C64.5047 6.61066 64.2822 6.66295 64.0864 6.76754C63.8928 6.8699 63.7392 7.01232 63.6257 7.19479C63.5145 7.37504 63.4588 7.58088 63.4588 7.81231V11.0568H62.6711ZM69.8 7.07797L69.0924 7.27824C69.0479 7.1603 68.9822 7.0457 68.8955 6.93444C68.8109 6.82095 68.6952 6.72749 68.5483 6.65405C68.4014 6.58062 68.2134 6.5439 67.9842 6.5439C67.6704 6.5439 67.409 6.61622 67.1998 6.76086C66.9928 6.90328 66.8894 7.08464 66.8894 7.30494C66.8894 7.50077 66.9606 7.65543 67.103 7.76892C67.2454 7.8824 67.4679 7.97698 67.7706 8.05264L68.5316 8.23956C68.99 8.35083 69.3316 8.52106 69.5564 8.75026C69.7811 8.97724 69.8935 9.26986 69.8935 9.62813C69.8935 9.92187 69.8089 10.1845 69.6398 10.4159C69.4729 10.6473 69.2393 10.8298 68.9389 10.9633C68.6384 11.0968 68.2891 11.1636 67.8907 11.1636C67.3678 11.1636 66.935 11.0501 66.5923 10.8231C66.2496 10.5961 66.0326 10.2646 65.9414 9.82841L66.6891 9.64149C66.7603 9.91742 66.8949 10.1244 67.093 10.2623C67.2933 10.4003 67.5547 10.4693 67.8774 10.4693C68.2446 10.4693 68.5361 10.3914 68.7519 10.2356C68.97 10.0776 69.079 9.88849 69.079 9.66819C69.079 9.49017 69.0167 9.34107 68.8921 9.22091C68.7675 9.09852 68.5761 9.00728 68.318 8.9472L67.4635 8.74692C66.994 8.63566 66.649 8.4632 66.4287 8.22955C66.2107 7.99367 66.1016 7.69882 66.1016 7.345C66.1016 7.05571 66.1828 6.79981 66.3453 6.57728C66.51 6.35475 66.7336 6.18007 67.0162 6.05323C67.301 5.92639 67.6237 5.86296 67.9842 5.86296C68.4916 5.86296 68.8899 5.97423 69.1792 6.19676C69.4707 6.41928 69.6776 6.71302 69.8 7.07797ZM71.867 7.97253V11.0568H71.0793V4.22071H71.867V6.73082H71.9338C72.054 6.46601 72.2342 6.25573 72.4745 6.09996C72.7171 5.94196 73.0398 5.86296 73.4425 5.86296C73.7919 5.86296 74.0979 5.93306 74.3605 6.07325C74.623 6.21122 74.8267 6.42373 74.9713 6.7108C75.1182 6.99563 75.1916 7.35835 75.1916 7.79896V11.0568H74.4039V7.85236C74.4039 7.44514 74.2982 7.13026 74.0868 6.90773C73.8776 6.68298 73.5872 6.5706 73.2156 6.5706C72.9574 6.5706 72.726 6.62512 72.5213 6.73416C72.3188 6.8432 72.1585 7.00231 72.0406 7.21148C71.9249 7.42066 71.867 7.67434 71.867 7.97253ZM78.1415 11.1769C77.8166 11.1769 77.5217 11.1157 77.2569 10.9933C76.9921 10.8687 76.7818 10.6896 76.6261 10.4559C76.4703 10.2201 76.3924 9.93522 76.3924 9.60143C76.3924 9.30769 76.4503 9.06959 76.566 8.88712C76.6817 8.70242 76.8364 8.55778 77.03 8.45319C77.2236 8.3486 77.4372 8.27072 77.6708 8.21953C77.9067 8.16613 78.1437 8.12385 78.3818 8.09269C78.6934 8.05264 78.9459 8.0226 79.1395 8.00257C79.3353 7.98032 79.4778 7.9436 79.5668 7.89242C79.658 7.84124 79.7036 7.75223 79.7036 7.62538V7.59868C79.7036 7.26934 79.6135 7.01343 79.4333 6.83096C79.2552 6.64849 78.9849 6.55725 78.6221 6.55725C78.2461 6.55725 77.9512 6.63959 77.7376 6.80426C77.524 6.96893 77.3738 7.14472 77.287 7.33165L76.5393 7.06461C76.6728 6.75308 76.8508 6.51052 77.0734 6.33695C77.2981 6.16115 77.5429 6.03876 77.8077 5.96978C78.0747 5.89857 78.3373 5.86296 78.5954 5.86296C78.7601 5.86296 78.9493 5.88299 79.1629 5.92305C79.3787 5.96088 79.5868 6.03987 79.7871 6.16004C79.9896 6.2802 80.1576 6.46156 80.2911 6.70412C80.4246 6.94667 80.4914 7.27157 80.4914 7.67879V11.0568H79.7036V10.3625H79.6636C79.6102 10.4737 79.5212 10.5928 79.3965 10.7196C79.2719 10.8465 79.1061 10.9544 78.8992 11.0434C78.6922 11.1324 78.4397 11.1769 78.1415 11.1769ZM78.2617 10.4693C78.5732 10.4693 78.8358 10.4081 79.0494 10.2857C79.2653 10.1633 79.4277 10.0053 79.5367 9.81172C79.648 9.61812 79.7036 9.41451 79.7036 9.20088V8.47989C79.6703 8.51995 79.5968 8.55666 79.4833 8.59004C79.3721 8.6212 79.243 8.64901 79.0961 8.67349C78.9515 8.69574 78.8102 8.71577 78.6722 8.73357C78.5365 8.74915 78.4263 8.7625 78.3418 8.77363C78.137 8.80033 77.9457 8.84372 77.7676 8.90381C77.5918 8.96166 77.4494 9.04956 77.3404 9.1675C77.2336 9.28322 77.1802 9.44121 77.1802 9.64149C77.1802 9.9152 77.2814 10.1221 77.4839 10.2623C77.6886 10.4003 77.9479 10.4693 78.2617 10.4693ZM82.7169 7.97253V11.0568H81.9292V5.92972H82.6902V6.73082H82.757C82.8772 6.47047 83.0596 6.26129 83.3044 6.10329C83.5492 5.94307 83.8652 5.86296 84.2524 5.86296C84.5995 5.86296 84.9033 5.93417 85.1636 6.07659C85.424 6.21678 85.6265 6.43041 85.7711 6.71747C85.9158 7.00231 85.9881 7.3628 85.9881 7.79896V11.0568H85.2003V7.85236C85.2003 7.44959 85.0958 7.13582 84.8866 6.91107C84.6774 6.68409 84.3903 6.5706 84.0254 6.5706C83.7739 6.5706 83.5492 6.62512 83.3511 6.73416C83.1553 6.8432 83.0007 7.00231 82.8872 7.21148C82.7737 7.42066 82.7169 7.67434 82.7169 7.97253Z" fill="#FF8900"/>
</svg>
