<svg width="120" height="18" viewBox="0 0 120 18" fill="none" xmlns="http://www.w3.org/2000/svg">
<rect x="-0.00170898" y="0.919434" width="119.262" height="16.1136" rx="8.05678" fill="#FEFCE8"/>
<path d="M7.78647 3.60498C4.82694 3.60498 2.41528 6.01664 2.41528 8.97616C2.41528 11.9357 4.82694 14.3473 7.78647 14.3473C10.746 14.3473 13.1577 11.9357 13.1577 8.97616C13.1577 6.01664 10.746 3.60498 7.78647 3.60498ZM10.3539 7.74079L7.30843 10.7863C7.23324 10.8615 7.13118 10.9044 7.02376 10.9044C6.91634 10.9044 6.81428 10.8615 6.73909 10.7863L5.21904 9.26621C5.06328 9.11044 5.06328 8.85263 5.21904 8.69686C5.37481 8.5411 5.63262 8.5411 5.78839 8.69686L7.02376 9.93224L9.78455 7.17145C9.94031 7.01568 10.1981 7.01568 10.3539 7.17145C10.5097 7.32721 10.5097 7.57966 10.3539 7.74079Z" fill="#FF8900"/>
<path d="M17.6442 11.9762L15.775 5.14014H16.6161L18.0448 10.7078H18.1115L19.5669 5.14014H20.5015L21.9568 10.7078H22.0236L23.4522 5.14014H24.2933L22.4241 11.9762H21.5696L20.0609 6.52872H20.0075L18.4987 11.9762H17.6442ZM26.0057 8.89196V11.9762H25.2179V5.14014H26.0057V7.65026H26.0725C26.1926 7.38545 26.3729 7.17516 26.6132 7.01939C26.8558 6.8614 27.1784 6.7824 27.5812 6.7824C27.9306 6.7824 28.2365 6.85249 28.4991 6.99269C28.7617 7.13065 28.9653 7.34317 29.11 7.63023C29.2568 7.91506 29.3303 8.27778 29.3303 8.71839V11.9762H28.5425V8.7718C28.5425 8.36457 28.4368 8.04969 28.2254 7.82717C28.0162 7.60241 27.7258 7.49004 27.3542 7.49004C27.0961 7.49004 26.8647 7.54456 26.6599 7.65359C26.4574 7.76263 26.2972 7.92174 26.1793 8.13092C26.0636 8.34009 26.0057 8.59377 26.0057 8.89196ZM32.921 12.083C32.427 12.083 32.0009 11.974 31.6426 11.7559C31.2866 11.5356 31.0117 11.2285 30.8181 10.8346C30.6268 10.4385 30.5311 9.9779 30.5311 9.45273C30.5311 8.92757 30.6268 8.46471 30.8181 8.06416C31.0117 7.66138 31.281 7.34762 31.6259 7.12287C31.9731 6.89589 32.3781 6.7824 32.8409 6.7824C33.1079 6.7824 33.3716 6.8269 33.632 6.91591C33.8924 7.00493 34.1293 7.14957 34.343 7.34984C34.5566 7.54789 34.7268 7.81048 34.8537 8.13759C34.9805 8.46471 35.0439 8.86748 35.0439 9.34592V9.67971H31.0918V8.99877H34.2428C34.2428 8.70949 34.185 8.45136 34.0693 8.22438C33.9558 7.9974 33.7933 7.81827 33.5819 7.68697C33.3728 7.55568 33.1257 7.49004 32.8409 7.49004C32.5271 7.49004 32.2557 7.56792 32.0265 7.72369C31.7995 7.87723 31.6248 8.07751 31.5024 8.32452C31.38 8.57152 31.3188 8.83633 31.3188 9.11894V9.5729C31.3188 9.96009 31.3856 10.2883 31.5191 10.5576C31.6548 10.8246 31.8429 11.0282 32.0832 11.1684C32.3235 11.3064 32.6028 11.3754 32.921 11.3754C33.128 11.3754 33.3149 11.3464 33.4818 11.2886C33.6509 11.2285 33.7967 11.1395 33.9191 11.0216C34.0415 10.9014 34.136 10.7523 34.2028 10.5743L34.9638 10.7879C34.8837 11.046 34.7491 11.273 34.5599 11.4688C34.3708 11.6624 34.1371 11.8138 33.859 11.9228C33.5808 12.0296 33.2682 12.083 32.921 12.083ZM38.3919 12.083C37.8979 12.083 37.4717 11.974 37.1134 11.7559C36.7574 11.5356 36.4826 11.2285 36.289 10.8346C36.0976 10.4385 36.0019 9.9779 36.0019 9.45273C36.0019 8.92757 36.0976 8.46471 36.289 8.06416C36.4826 7.66138 36.7518 7.34762 37.0968 7.12287C37.4439 6.89589 37.8489 6.7824 38.3118 6.7824C38.5788 6.7824 38.8425 6.8269 39.1028 6.91591C39.3632 7.00493 39.6002 7.14957 39.8138 7.34984C40.0274 7.54789 40.1977 7.81048 40.3245 8.13759C40.4514 8.46471 40.5148 8.86748 40.5148 9.34592V9.67971H36.5627V8.99877H39.7137C39.7137 8.70949 39.6558 8.45136 39.5401 8.22438C39.4266 7.9974 39.2642 7.81827 39.0528 7.68697C38.8436 7.55568 38.5966 7.49004 38.3118 7.49004C37.998 7.49004 37.7265 7.56792 37.4973 7.72369C37.2703 7.87723 37.0956 8.07751 36.9733 8.32452C36.8509 8.57152 36.7897 8.83633 36.7897 9.11894V9.5729C36.7897 9.96009 36.8564 10.2883 36.9899 10.5576C37.1257 10.8246 37.3137 11.0282 37.5541 11.1684C37.7944 11.3064 38.0737 11.3754 38.3919 11.3754C38.5988 11.3754 38.7857 11.3464 38.9526 11.2886C39.1218 11.2285 39.2675 11.1395 39.3899 11.0216C39.5123 10.9014 39.6069 10.7523 39.6736 10.5743L40.4347 10.7879C40.3546 11.046 40.2199 11.273 40.0308 11.4688C39.8416 11.6624 39.608 11.8138 39.3298 11.9228C39.0517 12.0296 38.739 12.083 38.3919 12.083ZM42.5008 5.14014V11.9762H41.7131V5.14014H42.5008ZM46.0265 12.083C45.5459 12.083 45.132 11.9695 44.7848 11.7425C44.4377 11.5156 44.1706 11.2029 43.9837 10.8046C43.7968 10.4063 43.7033 9.95119 43.7033 9.43938C43.7033 8.91866 43.799 8.45914 43.9904 8.06082C44.184 7.66027 44.4532 7.34762 44.7982 7.12287C45.1453 6.89589 45.5503 6.7824 46.0132 6.7824C46.3737 6.7824 46.6986 6.84916 46.9878 6.98267C47.2771 7.11619 47.5141 7.30311 47.6988 7.54344C47.8835 7.78377 47.9981 8.06416 48.0426 8.3846H47.2549C47.1948 8.15094 47.0613 7.94399 46.8543 7.76375C46.6496 7.58127 46.3737 7.49004 46.0265 7.49004C45.7194 7.49004 45.4502 7.57015 45.2187 7.73037C44.9895 7.88836 44.8104 8.112 44.6813 8.40129C44.5545 8.68835 44.4911 9.02548 44.4911 9.41268C44.4911 9.80878 44.5534 10.1537 44.678 10.4474C44.8048 10.7412 44.9829 10.9693 45.2121 11.1317C45.4435 11.2941 45.715 11.3754 46.0265 11.3754C46.2312 11.3754 46.4171 11.3398 46.5839 11.2686C46.7508 11.1973 46.8922 11.095 47.0079 10.9615C47.1236 10.828 47.2059 10.6677 47.2549 10.4808H48.0426C47.9981 10.7834 47.888 11.056 47.7122 11.2986C47.5386 11.5389 47.3083 11.7303 47.0212 11.8727C46.7364 12.0129 46.4048 12.083 46.0265 12.083ZM49.9819 8.89196V11.9762H49.1942V5.14014H49.9819V7.65026H50.0487C50.1689 7.38545 50.3491 7.17516 50.5894 7.01939C50.832 6.8614 51.1547 6.7824 51.5574 6.7824C51.9068 6.7824 52.2128 6.85249 52.4754 6.99269C52.738 7.13065 52.9416 7.34317 53.0862 7.63023C53.2331 7.91506 53.3065 8.27778 53.3065 8.71839V11.9762H52.5188V8.7718C52.5188 8.36457 52.4131 8.04969 52.2017 7.82717C51.9925 7.60241 51.7021 7.49004 51.3305 7.49004C51.0723 7.49004 50.8409 7.54456 50.6362 7.65359C50.4337 7.76263 50.2735 7.92174 50.1555 8.13092C50.0398 8.34009 49.9819 8.59377 49.9819 8.89196ZM56.2564 12.0964C55.9315 12.0964 55.6367 12.0352 55.3718 11.9128C55.107 11.7882 54.8968 11.609 54.741 11.3754C54.5852 11.1395 54.5073 10.8547 54.5073 10.5209C54.5073 10.2271 54.5652 9.98902 54.6809 9.80655C54.7966 9.62185 54.9513 9.47721 55.1449 9.37262C55.3385 9.26803 55.5521 9.19015 55.7858 9.13897C56.0216 9.08556 56.2586 9.04328 56.4967 9.01213C56.8083 8.97207 57.0608 8.94203 57.2544 8.922C57.4503 8.89975 57.5927 8.86303 57.6817 8.81185C57.7729 8.76067 57.8185 8.67166 57.8185 8.54482V8.51811C57.8185 8.18877 57.7284 7.93287 57.5482 7.75039C57.3701 7.56792 57.0998 7.47669 56.7371 7.47669C56.361 7.47669 56.0661 7.55902 55.8525 7.72369C55.6389 7.88836 55.4887 8.06416 55.4019 8.25108L54.6542 7.98405C54.7877 7.67251 54.9657 7.42995 55.1883 7.25638C55.413 7.08059 55.6578 6.9582 55.9226 6.88921C56.1896 6.818 56.4522 6.7824 56.7104 6.7824C56.875 6.7824 57.0642 6.80243 57.2778 6.84248C57.4937 6.88031 57.7017 6.95931 57.902 7.07947C58.1045 7.19964 58.2725 7.381 58.406 7.62355C58.5395 7.86611 58.6063 8.191 58.6063 8.59822V11.9762H57.8185V11.2819H57.7785C57.7251 11.3932 57.6361 11.5122 57.5115 11.6391C57.3868 11.7659 57.2211 11.8738 57.0141 11.9628C56.8072 12.0519 56.5546 12.0964 56.2564 12.0964ZM56.3766 11.3887C56.6881 11.3887 56.9507 11.3275 57.1643 11.2051C57.3802 11.0827 57.5426 10.9248 57.6516 10.7312C57.7629 10.5376 57.8185 10.3339 57.8185 10.1203V9.39932C57.7852 9.43938 57.7117 9.4761 57.5982 9.50948C57.487 9.54063 57.3579 9.56845 57.211 9.59292C57.0664 9.61518 56.9251 9.6352 56.7871 9.65301C56.6514 9.66858 56.5412 9.68194 56.4567 9.69306C56.2519 9.71976 56.0606 9.76316 55.8826 9.82324C55.7068 9.8811 55.5643 9.969 55.4553 10.0869C55.3485 10.2026 55.2951 10.3606 55.2951 10.5609C55.2951 10.8346 55.3963 11.0416 55.5988 11.1818C55.8036 11.3197 56.0628 11.3887 56.3766 11.3887ZM60.0441 11.9762V6.84916H60.8318V11.9762H60.0441ZM60.4446 5.99465C60.2911 5.99465 60.1587 5.94236 60.0474 5.83777C59.9384 5.73318 59.8839 5.60745 59.8839 5.46058C59.8839 5.31372 59.9384 5.18799 60.0474 5.0834C60.1587 4.97881 60.2911 4.92652 60.4446 4.92652C60.5982 4.92652 60.7295 4.97881 60.8385 5.0834C60.9498 5.18799 61.0054 5.31372 61.0054 5.46058C61.0054 5.60745 60.9498 5.73318 60.8385 5.83777C60.7295 5.94236 60.5982 5.99465 60.4446 5.99465ZM62.2747 11.9762V6.84916H63.0357V7.62355H63.0891C63.1826 7.36987 63.3517 7.16403 63.5965 7.00604C63.8413 6.84804 64.1172 6.76905 64.4243 6.76905C64.4821 6.76905 64.5545 6.77016 64.6412 6.77238C64.728 6.77461 64.7937 6.77795 64.8382 6.7824V7.5835C64.8115 7.57682 64.7503 7.56681 64.6546 7.55346C64.5611 7.53788 64.4621 7.53009 64.3575 7.53009C64.1083 7.53009 63.8858 7.58239 63.6899 7.68697C63.4963 7.78934 63.3428 7.93175 63.2293 8.11423C63.118 8.29447 63.0624 8.50031 63.0624 8.73174V11.9762H62.2747ZM68.8028 11.9762H67.9349L70.445 5.14014H71.2996L73.8097 11.9762H72.9418L70.899 6.22163H70.8456L68.8028 11.9762ZM69.1232 9.30586H72.6214V10.0402H69.1232V9.30586ZM78.3993 7.9974L77.6917 8.19767C77.6472 8.07974 77.5815 7.96513 77.4947 7.85387C77.4102 7.74038 77.2945 7.64692 77.1476 7.57348C77.0007 7.50005 76.8127 7.46333 76.5835 7.46333C76.2697 7.46333 76.0082 7.53565 75.7991 7.6803C75.5921 7.82272 75.4886 8.00408 75.4886 8.22438C75.4886 8.4202 75.5598 8.57486 75.7023 8.68835C75.8447 8.80184 76.0672 8.89641 76.3698 8.97207L77.1309 9.15899C77.5893 9.27026 77.9309 9.44049 78.1556 9.6697C78.3804 9.89667 78.4928 10.1893 78.4928 10.5476C78.4928 10.8413 78.4082 11.1039 78.2391 11.3353C78.0722 11.5667 77.8385 11.7492 77.5381 11.8827C77.2377 12.0163 76.8883 12.083 76.49 12.083C75.9671 12.083 75.5343 11.9695 75.1916 11.7425C74.8489 11.5156 74.6319 11.184 74.5407 10.7478L75.2884 10.5609C75.3596 10.8369 75.4942 11.0438 75.6923 11.1818C75.8925 11.3197 76.154 11.3887 76.4767 11.3887C76.8438 11.3887 77.1353 11.3108 77.3512 11.1551C77.5693 10.9971 77.6783 10.8079 77.6783 10.5876C77.6783 10.4096 77.616 10.2605 77.4914 10.1403C77.3668 10.018 77.1754 9.92672 76.9173 9.86663L76.0628 9.66636C75.5932 9.55509 75.2483 9.38264 75.028 9.14898C74.8099 8.9131 74.7009 8.61825 74.7009 8.26443C74.7009 7.97515 74.7821 7.71924 74.9446 7.49671C75.1092 7.27418 75.3329 7.0995 75.6155 6.97266C75.9003 6.84582 76.223 6.7824 76.5835 6.7824C77.0908 6.7824 77.4892 6.89366 77.7784 7.11619C78.07 7.33872 78.2769 7.63245 78.3993 7.9974ZM83.3102 7.9974L82.6026 8.19767C82.5581 8.07974 82.4924 7.96513 82.4056 7.85387C82.3211 7.74038 82.2054 7.64692 82.0585 7.57348C81.9116 7.50005 81.7236 7.46333 81.4944 7.46333C81.1806 7.46333 80.9191 7.53565 80.71 7.6803C80.503 7.82272 80.3995 8.00408 80.3995 8.22438C80.3995 8.4202 80.4708 8.57486 80.6132 8.68835C80.7556 8.80184 80.9781 8.89641 81.2808 8.97207L82.0418 9.15899C82.5002 9.27026 82.8418 9.44049 83.0665 9.6697C83.2913 9.89667 83.4037 10.1893 83.4037 10.5476C83.4037 10.8413 83.3191 11.1039 83.15 11.3353C82.9831 11.5667 82.7494 11.7492 82.449 11.8827C82.1486 12.0163 81.7992 12.083 81.4009 12.083C80.878 12.083 80.4452 11.9695 80.1025 11.7425C79.7598 11.5156 79.5428 11.184 79.4516 10.7478L80.1993 10.5609C80.2705 10.8369 80.4051 11.0438 80.6032 11.1818C80.8034 11.3197 81.0649 11.3887 81.3876 11.3887C81.7547 11.3887 82.0463 11.3108 82.2621 11.1551C82.4802 10.9971 82.5892 10.8079 82.5892 10.5876C82.5892 10.4096 82.5269 10.2605 82.4023 10.1403C82.2777 10.018 82.0863 9.92672 81.8282 9.86663L80.9737 9.66636C80.5041 9.55509 80.1592 9.38264 79.9389 9.14898C79.7208 8.9131 79.6118 8.61825 79.6118 8.26443C79.6118 7.97515 79.693 7.71924 79.8555 7.49671C80.0201 7.27418 80.2438 7.0995 80.5264 6.97266C80.8112 6.84582 81.1339 6.7824 81.4944 6.7824C82.0017 6.7824 82.4001 6.89366 82.6894 7.11619C82.9809 7.33872 83.1878 7.63245 83.3102 7.9974ZM84.5895 11.9762V6.84916H85.3772V11.9762H84.5895ZM84.99 5.99465C84.8365 5.99465 84.7041 5.94236 84.5928 5.83777C84.4838 5.73318 84.4292 5.60745 84.4292 5.46058C84.4292 5.31372 84.4838 5.18799 84.5928 5.0834C84.7041 4.97881 84.8365 4.92652 84.99 4.92652C85.1436 4.92652 85.2749 4.97881 85.3839 5.0834C85.4952 5.18799 85.5508 5.31372 85.5508 5.46058C85.5508 5.60745 85.4952 5.73318 85.3839 5.83777C85.2749 5.94236 85.1436 5.99465 84.99 5.99465ZM90.4517 7.9974L89.744 8.19767C89.6995 8.07974 89.6339 7.96513 89.5471 7.85387C89.4625 7.74038 89.3468 7.64692 89.2 7.57348C89.0531 7.50005 88.8651 7.46333 88.6359 7.46333C88.3221 7.46333 88.0606 7.53565 87.8514 7.6803C87.6445 7.82272 87.541 8.00408 87.541 8.22438C87.541 8.4202 87.6122 8.57486 87.7546 8.68835C87.8971 8.80184 88.1196 8.89641 88.4222 8.97207L89.1833 9.15899C89.6417 9.27026 89.9833 9.44049 90.208 9.6697C90.4328 9.89667 90.5451 10.1893 90.5451 10.5476C90.5451 10.8413 90.4606 11.1039 90.2915 11.3353C90.1246 11.5667 89.8909 11.7492 89.5905 11.8827C89.2901 12.0163 88.9407 12.083 88.5424 12.083C88.0195 12.083 87.5866 11.9695 87.2439 11.7425C86.9012 11.5156 86.6843 11.184 86.593 10.7478L87.3407 10.5609C87.412 10.8369 87.5466 11.0438 87.7446 11.1818C87.9449 11.3197 88.2064 11.3887 88.529 11.3887C88.8962 11.3887 89.1877 11.3108 89.4036 11.1551C89.6217 10.9971 89.7307 10.8079 89.7307 10.5876C89.7307 10.4096 89.6684 10.2605 89.5438 10.1403C89.4192 10.018 89.2278 9.92672 88.9696 9.86663L88.1151 9.66636C87.6456 9.55509 87.3007 9.38264 87.0804 9.14898C86.8623 8.9131 86.7533 8.61825 86.7533 8.26443C86.7533 7.97515 86.8345 7.71924 86.9969 7.49671C87.1616 7.27418 87.3852 7.0995 87.6679 6.97266C87.9527 6.84582 88.2754 6.7824 88.6359 6.7824C89.1432 6.7824 89.5415 6.89366 89.8308 7.11619C90.1223 7.33872 90.3293 7.63245 90.4517 7.9974ZM93.9607 6.84916V7.51674H91.3037V6.84916H93.9607ZM92.0781 5.6208H92.8658V10.5075C92.8658 10.73 92.8981 10.8969 92.9626 11.0082C93.0294 11.1172 93.1139 11.1907 93.2163 11.2285C93.3209 11.2641 93.4311 11.2819 93.5468 11.2819C93.6336 11.2819 93.7048 11.2775 93.7604 11.2686C93.816 11.2574 93.8605 11.2485 93.8939 11.2419L94.0541 11.9495C94.0007 11.9695 93.9262 11.9895 93.8305 12.0096C93.7348 12.0318 93.6135 12.043 93.4667 12.043C93.2441 12.043 93.0261 11.9951 92.8124 11.8994C92.601 11.8037 92.4252 11.658 92.285 11.4622C92.1471 11.2663 92.0781 11.0193 92.0781 10.7211V5.6208ZM96.6544 12.0964C96.3295 12.0964 96.0346 12.0352 95.7698 11.9128C95.505 11.7882 95.2947 11.609 95.139 11.3754C94.9832 11.1395 94.9053 10.8547 94.9053 10.5209C94.9053 10.2271 94.9632 9.98902 95.0789 9.80655C95.1946 9.62185 95.3492 9.47721 95.5428 9.37262C95.7364 9.26803 95.9501 9.19015 96.1837 9.13897C96.4196 9.08556 96.6566 9.04328 96.8947 9.01213C97.2062 8.97207 97.4588 8.94203 97.6524 8.922C97.8482 8.89975 97.9906 8.86303 98.0797 8.81185C98.1709 8.76067 98.2165 8.67166 98.2165 8.54482V8.51811C98.2165 8.18877 98.1264 7.93287 97.9461 7.75039C97.7681 7.56792 97.4977 7.47669 97.135 7.47669C96.759 7.47669 96.4641 7.55902 96.2505 7.72369C96.0369 7.88836 95.8866 8.06416 95.7999 8.25108L95.0522 7.98405C95.1857 7.67251 95.3637 7.42995 95.5862 7.25638C95.811 7.08059 96.0558 6.9582 96.3206 6.88921C96.5876 6.818 96.8502 6.7824 97.1083 6.7824C97.273 6.7824 97.4621 6.80243 97.6758 6.84248C97.8916 6.88031 98.0997 6.95931 98.3 7.07947C98.5025 7.19964 98.6705 7.381 98.804 7.62355C98.9375 7.86611 99.0043 8.191 99.0043 8.59822V11.9762H98.2165V11.2819H98.1765C98.123 11.3932 98.034 11.5122 97.9094 11.6391C97.7848 11.7659 97.619 11.8738 97.4121 11.9628C97.2051 12.0519 96.9526 12.0964 96.6544 12.0964ZM96.7745 11.3887C97.0861 11.3887 97.3487 11.3275 97.5623 11.2051C97.7781 11.0827 97.9406 10.9248 98.0496 10.7312C98.1609 10.5376 98.2165 10.3339 98.2165 10.1203V9.39932C98.1831 9.43938 98.1097 9.4761 97.9962 9.50948C97.8849 9.54063 97.7559 9.56845 97.609 9.59292C97.4644 9.61518 97.3231 9.6352 97.1851 9.65301C97.0494 9.66858 96.9392 9.68194 96.8546 9.69306C96.6499 9.71976 96.4585 9.76316 96.2805 9.82324C96.1047 9.8811 95.9623 9.969 95.8533 10.0869C95.7465 10.2026 95.693 10.3606 95.693 10.5609C95.693 10.8346 95.7943 11.0416 95.9968 11.1818C96.2015 11.3197 96.4608 11.3887 96.7745 11.3887ZM101.23 8.89196V11.9762H100.442V6.84916H101.203V7.65026H101.27C101.39 7.3899 101.573 7.18072 101.817 7.02273C102.062 6.86251 102.378 6.7824 102.765 6.7824C103.112 6.7824 103.416 6.85361 103.677 6.99602C103.937 7.13622 104.139 7.34984 104.284 7.6369C104.429 7.92174 104.501 8.28224 104.501 8.71839V11.9762H103.713V8.7718C103.713 8.36902 103.609 8.05526 103.399 7.8305C103.19 7.60353 102.903 7.49004 102.538 7.49004C102.287 7.49004 102.062 7.54456 101.864 7.65359C101.668 7.76263 101.514 7.92174 101.4 8.13092C101.287 8.34009 101.23 8.59377 101.23 8.89196ZM108.023 12.083C107.543 12.083 107.129 11.9695 106.782 11.7425C106.434 11.5156 106.167 11.2029 105.981 10.8046C105.794 10.4063 105.7 9.95119 105.7 9.43938C105.7 8.91866 105.796 8.45914 105.987 8.06082C106.181 7.66027 106.45 7.34762 106.795 7.12287C107.142 6.89589 107.547 6.7824 108.01 6.7824C108.37 6.7824 108.695 6.84916 108.985 6.98267C109.274 7.11619 109.511 7.30311 109.696 7.54344C109.88 7.78377 109.995 8.06416 110.039 8.3846H109.252C109.192 8.15094 109.058 7.94399 108.851 7.76375C108.646 7.58127 108.37 7.49004 108.023 7.49004C107.716 7.49004 107.447 7.57015 107.216 7.73037C106.986 7.88836 106.807 8.112 106.678 8.40129C106.551 8.68835 106.488 9.02548 106.488 9.41268C106.488 9.80878 106.55 10.1537 106.675 10.4474C106.802 10.7412 106.98 10.9693 107.209 11.1317C107.44 11.2941 107.712 11.3754 108.023 11.3754C108.228 11.3754 108.414 11.3398 108.581 11.2686C108.748 11.1973 108.889 11.095 109.005 10.9615C109.12 10.828 109.203 10.6677 109.252 10.4808H110.039C109.995 10.7834 109.885 11.056 109.709 11.2986C109.535 11.5389 109.305 11.7303 109.018 11.8727C108.733 12.0129 108.402 12.083 108.023 12.083ZM113.341 12.083C112.847 12.083 112.42 11.974 112.062 11.7559C111.706 11.5356 111.431 11.2285 111.238 10.8346C111.046 10.4385 110.951 9.9779 110.951 9.45273C110.951 8.92757 111.046 8.46471 111.238 8.06416C111.431 7.66138 111.701 7.34762 112.045 7.12287C112.393 6.89589 112.798 6.7824 113.26 6.7824C113.528 6.7824 113.791 6.8269 114.052 6.91591C114.312 7.00493 114.549 7.14957 114.763 7.34984C114.976 7.54789 115.146 7.81048 115.273 8.13759C115.4 8.46471 115.464 8.86748 115.464 9.34592V9.67971H111.511V8.99877H114.662C114.662 8.70949 114.605 8.45136 114.489 8.22438C114.375 7.9974 114.213 7.81827 114.002 7.68697C113.792 7.55568 113.545 7.49004 113.26 7.49004C112.947 7.49004 112.675 7.56792 112.446 7.72369C112.219 7.87723 112.044 8.07751 111.922 8.32452C111.8 8.57152 111.738 8.83633 111.738 9.11894V9.5729C111.738 9.96009 111.805 10.2883 111.939 10.5576C112.074 10.8246 112.262 11.0282 112.503 11.1684C112.743 11.3064 113.022 11.3754 113.341 11.3754C113.548 11.3754 113.734 11.3464 113.901 11.2886C114.071 11.2285 114.216 11.1395 114.339 11.0216C114.461 10.9014 114.556 10.7523 114.622 10.5743L115.383 10.7879C115.303 11.046 115.169 11.273 114.98 11.4688C114.79 11.6624 114.557 11.8138 114.279 11.9228C114 12.0296 113.688 12.083 113.341 12.083Z" fill="#FF8900"/>
</svg>
