<svg width="65" height="18" viewBox="0 0 65 18" fill="none" xmlns="http://www.w3.org/2000/svg">
<rect x="0.0698242" y="0.919434" width="64.262" height="16.1136" rx="8.05678" fill="#FEFCE8"/>
<path d="M7.858 3.60498C4.89848 3.60498 2.48682 6.01664 2.48682 8.97616C2.48682 11.9357 4.89848 14.3473 7.858 14.3473C10.8175 14.3473 13.2292 11.9357 13.2292 8.97616C13.2292 6.01664 10.8175 3.60498 7.858 3.60498ZM10.4254 7.74079L7.37997 10.7863C7.30477 10.8615 7.20272 10.9044 7.09529 10.9044C6.98787 10.9044 6.88582 10.8615 6.81062 10.7863L5.29057 9.26621C5.13481 9.11044 5.13481 8.85263 5.29057 8.69686C5.44634 8.5411 5.70416 8.5411 5.85992 8.69686L7.09529 9.93224L9.85608 7.17145C10.0118 7.01568 10.2697 7.01568 10.4254 7.17145C10.5812 7.32721 10.5812 7.57966 10.4254 7.74079Z" fill="#FF8900"/>
<path d="M16.7544 11.9762H15.8866L18.3967 5.14014H19.2512L21.7613 11.9762H20.8934L18.8506 6.22163H18.7972L16.7544 11.9762ZM17.0749 9.30586H20.573V10.0402H17.0749V9.30586ZM24.228 12.0964C23.9031 12.0964 23.6083 12.0352 23.3435 11.9128C23.0787 11.7882 22.8684 11.609 22.7126 11.3754C22.5568 11.1395 22.479 10.8547 22.479 10.5209C22.479 10.2271 22.5368 9.98902 22.6525 9.80655C22.7682 9.62185 22.9229 9.47721 23.1165 9.37262C23.3101 9.26803 23.5237 9.19015 23.7574 9.13897C23.9933 9.08556 24.2302 9.04328 24.4684 9.01213C24.7799 8.97207 25.0325 8.94203 25.2261 8.922C25.4219 8.89975 25.5643 8.86303 25.6533 8.81185C25.7445 8.76067 25.7902 8.67166 25.7902 8.54482V8.51811C25.7902 8.18877 25.7 7.93287 25.5198 7.75039C25.3418 7.56792 25.0714 7.47669 24.7087 7.47669C24.3326 7.47669 24.0378 7.55902 23.8241 7.72369C23.6105 7.88836 23.4603 8.06416 23.3735 8.25108L22.6258 7.98405C22.7593 7.67251 22.9374 7.42995 23.1599 7.25638C23.3846 7.08059 23.6294 6.9582 23.8942 6.88921C24.1613 6.818 24.4238 6.7824 24.682 6.7824C24.8467 6.7824 25.0358 6.80243 25.2494 6.84248C25.4653 6.88031 25.6733 6.95931 25.8736 7.07947C26.0761 7.19964 26.2441 7.381 26.3776 7.62355C26.5112 7.86611 26.5779 8.191 26.5779 8.59822V11.9762H25.7902V11.2819H25.7501C25.6967 11.3932 25.6077 11.5122 25.4831 11.6391C25.3585 11.7659 25.1927 11.8738 24.9857 11.9628C24.7788 12.0519 24.5262 12.0964 24.228 12.0964ZM24.3482 11.3887C24.6597 11.3887 24.9223 11.3275 25.1359 11.2051C25.3518 11.0827 25.5142 10.9248 25.6233 10.7312C25.7345 10.5376 25.7902 10.3339 25.7902 10.1203V9.39932C25.7568 9.43938 25.6834 9.4761 25.5699 9.50948C25.4586 9.54063 25.3295 9.56845 25.1827 9.59292C25.038 9.61518 24.8967 9.6352 24.7588 9.65301C24.623 9.66858 24.5129 9.68194 24.4283 9.69306C24.2236 9.71976 24.0322 9.76316 23.8542 9.82324C23.6784 9.8811 23.536 9.969 23.4269 10.0869C23.3201 10.2026 23.2667 10.3606 23.2667 10.5609C23.2667 10.8346 23.368 11.0416 23.5705 11.1818C23.7752 11.3197 24.0344 11.3887 24.3482 11.3887ZM28.0157 11.9762V6.84916H28.7768V7.62355H28.8302C28.9236 7.36987 29.0928 7.16403 29.3375 7.00604C29.5823 6.84804 29.8583 6.76905 30.1653 6.76905C30.2232 6.76905 30.2955 6.77016 30.3823 6.77238C30.4691 6.77461 30.5347 6.77795 30.5792 6.7824V7.5835C30.5525 7.57682 30.4913 7.56681 30.3957 7.55346C30.3022 7.53788 30.2032 7.53009 30.0986 7.53009C29.8494 7.53009 29.6268 7.58239 29.431 7.68697C29.2374 7.78934 29.0839 7.93175 28.9704 8.11423C28.8591 8.29447 28.8035 8.50031 28.8035 8.73174V11.9762H28.0157ZM34.064 6.84916V7.51674H31.407V6.84916H34.064ZM32.1814 5.6208H32.9692V10.5075C32.9692 10.73 33.0015 10.8969 33.066 11.0082C33.1327 11.1172 33.2173 11.1907 33.3197 11.2285C33.4243 11.2641 33.5344 11.2819 33.6501 11.2819C33.7369 11.2819 33.8081 11.2775 33.8638 11.2686C33.9194 11.2574 33.9639 11.2485 33.9973 11.2419L34.1575 11.9495C34.1041 11.9695 34.0295 11.9895 33.9338 12.0096C33.8382 12.0318 33.7169 12.043 33.57 12.043C33.3475 12.043 33.1294 11.9951 32.9158 11.8994C32.7044 11.8037 32.5286 11.658 32.3884 11.4622C32.2504 11.2663 32.1814 11.0193 32.1814 10.7211V5.6208ZM35.249 11.9762V6.84916H36.0367V11.9762H35.249ZM35.6495 5.99465C35.496 5.99465 35.3636 5.94236 35.2523 5.83777C35.1433 5.73318 35.0888 5.60745 35.0888 5.46058C35.0888 5.31372 35.1433 5.18799 35.2523 5.0834C35.3636 4.97881 35.496 4.92652 35.6495 4.92652C35.8031 4.92652 35.9344 4.97881 36.0434 5.0834C36.1547 5.18799 36.2103 5.31372 36.2103 5.46058C36.2103 5.60745 36.1547 5.73318 36.0434 5.83777C35.9344 5.94236 35.8031 5.99465 35.6495 5.99465ZM43.9685 6.84916C43.9284 6.51091 43.766 6.24833 43.4811 6.06141C43.1963 5.87449 42.8469 5.78102 42.433 5.78102C42.1304 5.78102 41.8656 5.82998 41.6386 5.92789C41.4138 6.0258 41.238 6.16043 41.1112 6.33178C40.9866 6.50313 40.9243 6.69784 40.9243 6.91591C40.9243 7.09839 40.9677 7.25527 41.0545 7.38656C41.1435 7.51563 41.257 7.62355 41.3949 7.71034C41.5329 7.7949 41.6775 7.865 41.8289 7.92063C41.9802 7.97403 42.1193 8.01743 42.2461 8.05081L42.9404 8.23773C43.1184 8.28446 43.3165 8.34899 43.5345 8.43133C43.7548 8.51366 43.9651 8.62604 44.1654 8.76846C44.3679 8.90865 44.5348 9.0889 44.6661 9.3092C44.7974 9.5295 44.863 9.79987 44.863 10.1203C44.863 10.4897 44.7662 10.8235 44.5726 11.1217C44.3812 11.4199 44.1009 11.6569 43.7315 11.8327C43.3643 12.0085 42.9181 12.0964 42.393 12.0964C41.9034 12.0964 41.4795 12.0174 41.1212 11.8594C40.7652 11.7014 40.4848 11.4811 40.2801 11.1985C40.0776 10.9159 39.963 10.5876 39.9363 10.2138H40.7908C40.813 10.4719 40.8998 10.6855 41.0511 10.8547C41.2047 11.0216 41.3983 11.1462 41.6319 11.2285C41.8678 11.3086 42.1215 11.3487 42.393 11.3487C42.709 11.3487 42.9927 11.2975 43.2441 11.1951C43.4956 11.0905 43.6948 10.9459 43.8416 10.7612C43.9885 10.5743 44.0619 10.3562 44.0619 10.107C44.0619 9.87998 43.9985 9.69529 43.8717 9.55287C43.7448 9.41045 43.5779 9.29474 43.371 9.20573C43.164 9.11671 42.9404 9.03883 42.7001 8.97207L41.8589 8.73174C41.3248 8.5782 40.902 8.35901 40.5905 8.07417C40.279 7.78934 40.1232 7.4166 40.1232 6.95597C40.1232 6.57322 40.2267 6.23943 40.4336 5.9546C40.6428 5.66753 40.9232 5.44501 41.2748 5.28701C41.6286 5.12679 42.0236 5.04668 42.4597 5.04668C42.9003 5.04668 43.292 5.12568 43.6347 5.28367C43.9774 5.43944 44.2488 5.65307 44.4491 5.92455C44.6516 6.19604 44.7584 6.50424 44.7696 6.84916H43.9685ZM48.2669 12.083C47.7729 12.083 47.3467 11.974 46.9884 11.7559C46.6324 11.5356 46.3576 11.2285 46.164 10.8346C45.9726 10.4385 45.8769 9.9779 45.8769 9.45273C45.8769 8.92757 45.9726 8.46471 46.164 8.06416C46.3576 7.66138 46.6268 7.34762 46.9718 7.12287C47.3189 6.89589 47.7239 6.7824 48.1868 6.7824C48.4538 6.7824 48.7175 6.8269 48.9778 6.91591C49.2382 7.00493 49.4752 7.14957 49.6888 7.34984C49.9024 7.54789 50.0727 7.81048 50.1995 8.13759C50.3264 8.46471 50.3898 8.86748 50.3898 9.34592V9.67971H46.4377V8.99877H49.5887C49.5887 8.70949 49.5308 8.45136 49.4151 8.22438C49.3016 7.9974 49.1392 7.81827 48.9278 7.68697C48.7186 7.55568 48.4716 7.49004 48.1868 7.49004C47.873 7.49004 47.6015 7.56792 47.3723 7.72369C47.1453 7.87723 46.9706 8.07751 46.8482 8.32452C46.7259 8.57152 46.6647 8.83633 46.6647 9.11894V9.5729C46.6647 9.96009 46.7314 10.2883 46.8649 10.5576C47.0007 10.8246 47.1887 11.0282 47.429 11.1684C47.6694 11.3064 47.9486 11.3754 48.2669 11.3754C48.4738 11.3754 48.6607 11.3464 48.8276 11.2886C48.9968 11.2285 49.1425 11.1395 49.2649 11.0216C49.3873 10.9014 49.4819 10.7523 49.5486 10.5743L50.3097 10.7879C50.2296 11.046 50.0949 11.273 49.9058 11.4688C49.7166 11.6624 49.483 11.8138 49.2048 11.9228C48.9267 12.0296 48.614 12.083 48.2669 12.083ZM55.6245 6.84916L53.7285 11.9762H52.9274L51.0315 6.84916H51.886L53.3013 10.9348H53.3547L54.77 6.84916H55.6245ZM58.0169 12.0964C57.692 12.0964 57.3972 12.0352 57.1324 11.9128C56.8676 11.7882 56.6573 11.609 56.5015 11.3754C56.3457 11.1395 56.2678 10.8547 56.2678 10.5209C56.2678 10.2271 56.3257 9.98902 56.4414 9.80655C56.5571 9.62185 56.7118 9.47721 56.9054 9.37262C57.099 9.26803 57.3126 9.19015 57.5463 9.13897C57.7821 9.08556 58.0191 9.04328 58.2572 9.01213C58.5688 8.97207 58.8214 8.94203 59.015 8.922C59.2108 8.89975 59.3532 8.86303 59.4422 8.81185C59.5334 8.76067 59.5791 8.67166 59.5791 8.54482V8.51811C59.5791 8.18877 59.4889 7.93287 59.3087 7.75039C59.1307 7.56792 58.8603 7.47669 58.4976 7.47669C58.1215 7.47669 57.8267 7.55902 57.613 7.72369C57.3994 7.88836 57.2492 8.06416 57.1624 8.25108L56.4147 7.98405C56.5482 7.67251 56.7263 7.42995 56.9488 7.25638C57.1735 7.08059 57.4183 6.9582 57.6831 6.88921C57.9502 6.818 58.2127 6.7824 58.4709 6.7824C58.6355 6.7824 58.8247 6.80243 59.0383 6.84248C59.2542 6.88031 59.4622 6.95931 59.6625 7.07947C59.865 7.19964 60.033 7.381 60.1665 7.62355C60.3 7.86611 60.3668 8.191 60.3668 8.59822V11.9762H59.5791V11.2819H59.539C59.4856 11.3932 59.3966 11.5122 59.272 11.6391C59.1474 11.7659 58.9816 11.8738 58.7746 11.9628C58.5677 12.0519 58.3151 12.0964 58.0169 12.0964ZM58.1371 11.3887C58.4486 11.3887 58.7112 11.3275 58.9248 11.2051C59.1407 11.0827 59.3031 10.9248 59.4122 10.7312C59.5234 10.5376 59.5791 10.3339 59.5791 10.1203V9.39932C59.5457 9.43938 59.4722 9.4761 59.3588 9.50948C59.2475 9.54063 59.1184 9.56845 58.9716 9.59292C58.8269 9.61518 58.6856 9.6352 58.5476 9.65301C58.4119 9.66858 58.3017 9.68194 58.2172 9.69306C58.0125 9.71976 57.8211 9.76316 57.6431 9.82324C57.4673 9.8811 57.3249 9.969 57.2158 10.0869C57.109 10.2026 57.0556 10.3606 57.0556 10.5609C57.0556 10.8346 57.1568 11.0416 57.3593 11.1818C57.5641 11.3197 57.8233 11.3887 58.1371 11.3887Z" fill="#FF8900"/>
</svg>
