<svg width="67" height="18" viewBox="0 0 67 18" fill="none" xmlns="http://www.w3.org/2000/svg">
<rect x="0.851562" y="0.919434" width="65.262" height="16.1136" rx="8.05678" fill="#FEFCE8"/>
<path d="M8.63974 3.60498C5.68022 3.60498 3.26855 6.01664 3.26855 8.97616C3.26855 11.9357 5.68022 14.3473 8.63974 14.3473C11.5993 14.3473 14.0109 11.9357 14.0109 8.97616C14.0109 6.01664 11.5993 3.60498 8.63974 3.60498ZM11.2072 7.74079L8.1617 10.7863C8.08651 10.8615 7.98445 10.9044 7.87703 10.9044C7.76961 10.9044 7.66755 10.8615 7.59236 10.7863L6.07231 9.26621C5.91655 9.11044 5.91655 8.85263 6.07231 8.69686C6.22808 8.5411 6.48589 8.5411 6.64166 8.69686L7.87703 9.93224L10.6378 7.17145C10.7936 7.01568 11.0514 7.01568 11.2072 7.17145C11.3629 7.32721 11.3629 7.57966 11.2072 7.74079Z" fill="#FF8900"/>
<path d="M17.5362 11.9762H16.6683L19.1784 5.14014H20.0329L22.543 11.9762H21.6752L19.6324 6.22163H19.579L17.5362 11.9762ZM17.8566 9.30586H21.3547V10.0402H17.8566V9.30586ZM24.2888 8.89196V11.9762H23.501V6.84916H24.2621V7.65026H24.3288C24.449 7.3899 24.6315 7.18072 24.8762 7.02273C25.121 6.86251 25.437 6.7824 25.8242 6.7824C26.1714 6.7824 26.4751 6.85361 26.7355 6.99602C26.9958 7.13622 27.1983 7.34984 27.343 7.6369C27.4876 7.92174 27.5599 8.28224 27.5599 8.71839V11.9762H26.7722V8.7718C26.7722 8.36902 26.6676 8.05526 26.4584 7.8305C26.2492 7.60353 25.9622 7.49004 25.5972 7.49004C25.3458 7.49004 25.121 7.54456 24.923 7.65359C24.7272 7.76263 24.5725 7.92174 24.459 8.13092C24.3455 8.34009 24.2888 8.59377 24.2888 8.89196ZM29.7872 8.89196V11.9762H28.9994V6.84916H29.7605V7.65026H29.8272C29.9474 7.3899 30.1298 7.18072 30.3746 7.02273C30.6194 6.86251 30.9354 6.7824 31.3226 6.7824C31.6697 6.7824 31.9735 6.85361 32.2338 6.99602C32.4942 7.13622 32.6967 7.34984 32.8413 7.6369C32.986 7.92174 33.0583 8.28224 33.0583 8.71839V11.9762H32.2706V8.7718C32.2706 8.36902 32.166 8.05526 31.9568 7.8305C31.7476 7.60353 31.4606 7.49004 31.0956 7.49004C30.8442 7.49004 30.6194 7.54456 30.4214 7.65359C30.2255 7.76263 30.0709 7.92174 29.9574 8.13092C29.8439 8.34009 29.7872 8.59377 29.7872 8.89196ZM36.0065 12.0964C35.6816 12.0964 35.3868 12.0352 35.122 11.9128C34.8572 11.7882 34.6469 11.609 34.4911 11.3754C34.3353 11.1395 34.2575 10.8547 34.2575 10.5209C34.2575 10.2271 34.3153 9.98902 34.431 9.80655C34.5467 9.62185 34.7014 9.47721 34.895 9.37262C35.0886 9.26803 35.3022 9.19015 35.5359 9.13897C35.7718 9.08556 36.0088 9.04328 36.2469 9.01213C36.5584 8.97207 36.811 8.94203 37.0046 8.922C37.2004 8.89975 37.3428 8.86303 37.4318 8.81185C37.5231 8.76067 37.5687 8.67166 37.5687 8.54482V8.51811C37.5687 8.18877 37.4785 7.93287 37.2983 7.75039C37.1203 7.56792 36.8499 7.47669 36.4872 7.47669C36.1111 7.47669 35.8163 7.55902 35.6026 7.72369C35.389 7.88836 35.2388 8.06416 35.152 8.25108L34.4043 7.98405C34.5378 7.67251 34.7159 7.42995 34.9384 7.25638C35.1631 7.08059 35.4079 6.9582 35.6727 6.88921C35.9398 6.818 36.2024 6.7824 36.4605 6.7824C36.6252 6.7824 36.8143 6.80243 37.0279 6.84248C37.2438 6.88031 37.4518 6.95931 37.6521 7.07947C37.8546 7.19964 38.0226 7.381 38.1561 7.62355C38.2897 7.86611 38.3564 8.191 38.3564 8.59822V11.9762H37.5687V11.2819H37.5286C37.4752 11.3932 37.3862 11.5122 37.2616 11.6391C37.137 11.7659 36.9712 11.8738 36.7642 11.9628C36.5573 12.0519 36.3047 12.0964 36.0065 12.0964ZM36.1267 11.3887C36.4382 11.3887 36.7008 11.3275 36.9144 11.2051C37.1303 11.0827 37.2927 10.9248 37.4018 10.7312C37.513 10.5376 37.5687 10.3339 37.5687 10.1203V9.39932C37.5353 9.43938 37.4619 9.4761 37.3484 9.50948C37.2371 9.54063 37.108 9.56845 36.9612 9.59292C36.8165 9.61518 36.6752 9.6352 36.5373 9.65301C36.4015 9.66858 36.2914 9.68194 36.2068 9.69306C36.0021 9.71976 35.8107 9.76316 35.6327 9.82324C35.4569 9.8811 35.3145 9.969 35.2054 10.0869C35.0986 10.2026 35.0452 10.3606 35.0452 10.5609C35.0452 10.8346 35.1465 11.0416 35.349 11.1818C35.5537 11.3197 35.8129 11.3887 36.1267 11.3887ZM46.2831 6.84916C46.2431 6.51091 46.0806 6.24833 45.7958 6.06141C45.511 5.87449 45.1616 5.78102 44.7477 5.78102C44.4451 5.78102 44.1802 5.82998 43.9533 5.92789C43.7285 6.0258 43.5527 6.16043 43.4259 6.33178C43.3013 6.50313 43.239 6.69784 43.239 6.91591C43.239 7.09839 43.2824 7.25527 43.3691 7.38656C43.4581 7.51563 43.5716 7.62355 43.7096 7.71034C43.8476 7.7949 43.9922 7.865 44.1435 7.92063C44.2949 7.97403 44.4339 8.01743 44.5608 8.05081L45.2551 8.23773C45.4331 8.28446 45.6311 8.34899 45.8492 8.43133C46.0695 8.51366 46.2798 8.62604 46.4801 8.76846C46.6826 8.90865 46.8495 9.0889 46.9808 9.3092C47.1121 9.5295 47.1777 9.79987 47.1777 10.1203C47.1777 10.4897 47.0809 10.8235 46.8873 11.1217C46.6959 11.4199 46.4155 11.6569 46.0461 11.8327C45.679 12.0085 45.2328 12.0964 44.7076 12.0964C44.2181 12.0964 43.7942 12.0174 43.4359 11.8594C43.0798 11.7014 42.7995 11.4811 42.5947 11.1985C42.3922 10.9159 42.2776 10.5876 42.2509 10.2138H43.1054C43.1277 10.4719 43.2145 10.6855 43.3658 10.8547C43.5193 11.0216 43.7129 11.1462 43.9466 11.2285C44.1825 11.3086 44.4362 11.3487 44.7076 11.3487C45.0236 11.3487 45.3074 11.2975 45.5588 11.1951C45.8103 11.0905 46.0094 10.9459 46.1563 10.7612C46.3032 10.5743 46.3766 10.3562 46.3766 10.107C46.3766 9.87998 46.3132 9.69529 46.1863 9.55287C46.0595 9.41045 45.8926 9.29474 45.6857 9.20573C45.4787 9.11671 45.2551 9.03883 45.0147 8.97207L44.1736 8.73174C43.6395 8.5782 43.2167 8.35901 42.9052 8.07417C42.5936 7.78934 42.4379 7.4166 42.4379 6.95597C42.4379 6.57322 42.5413 6.23943 42.7483 5.9546C42.9575 5.66753 43.2378 5.44501 43.5894 5.28701C43.9433 5.12679 44.3382 5.04668 44.7744 5.04668C45.215 5.04668 45.6067 5.12568 45.9493 5.28367C46.292 5.43944 46.5635 5.65307 46.7638 5.92455C46.9663 6.19604 47.0731 6.50424 47.0842 6.84916H46.2831ZM50.5815 12.083C50.0875 12.083 49.6614 11.974 49.3031 11.7559C48.9471 11.5356 48.6722 11.2285 48.4787 10.8346C48.2873 10.4385 48.1916 9.9779 48.1916 9.45273C48.1916 8.92757 48.2873 8.46471 48.4787 8.06416C48.6722 7.66138 48.9415 7.34762 49.2864 7.12287C49.6336 6.89589 50.0386 6.7824 50.5014 6.7824C50.7685 6.7824 51.0322 6.8269 51.2925 6.91591C51.5529 7.00493 51.7899 7.14957 52.0035 7.34984C52.2171 7.54789 52.3874 7.81048 52.5142 8.13759C52.641 8.46471 52.7045 8.86748 52.7045 9.34592V9.67971H48.7524V8.99877H51.9034C51.9034 8.70949 51.8455 8.45136 51.7298 8.22438C51.6163 7.9974 51.4538 7.81827 51.2424 7.68697C51.0333 7.55568 50.7863 7.49004 50.5014 7.49004C50.1877 7.49004 49.9162 7.56792 49.687 7.72369C49.46 7.87723 49.2853 8.07751 49.1629 8.32452C49.0405 8.57152 48.9793 8.83633 48.9793 9.11894V9.5729C48.9793 9.96009 49.0461 10.2883 49.1796 10.5576C49.3154 10.8246 49.5034 11.0282 49.7437 11.1684C49.9841 11.3064 50.2633 11.3754 50.5815 11.3754C50.7885 11.3754 50.9754 11.3464 51.1423 11.2886C51.3114 11.2285 51.4572 11.1395 51.5796 11.0216C51.702 10.9014 51.7965 10.7523 51.8633 10.5743L52.6243 10.7879C52.5442 11.046 52.4096 11.273 52.2205 11.4688C52.0313 11.6624 51.7977 11.8138 51.5195 11.9228C51.2413 12.0296 50.9287 12.083 50.5815 12.083ZM57.9391 6.84916L56.0432 11.9762H55.2421L53.3462 6.84916H54.2007L55.6159 10.9348H55.6694L57.0846 6.84916H57.9391ZM60.3316 12.0964C60.0067 12.0964 59.7119 12.0352 59.447 11.9128C59.1822 11.7882 58.9719 11.609 58.8162 11.3754C58.6604 11.1395 58.5825 10.8547 58.5825 10.5209C58.5825 10.2271 58.6404 9.98902 58.7561 9.80655C58.8718 9.62185 59.0265 9.47721 59.2201 9.37262C59.4137 9.26803 59.6273 9.19015 59.8609 9.13897C60.0968 9.08556 60.3338 9.04328 60.5719 9.01213C60.8835 8.97207 61.136 8.94203 61.3296 8.922C61.5255 8.89975 61.6679 8.86303 61.7569 8.81185C61.8481 8.76067 61.8937 8.67166 61.8937 8.54482V8.51811C61.8937 8.18877 61.8036 7.93287 61.6234 7.75039C61.4453 7.56792 61.175 7.47669 60.8123 7.47669C60.4362 7.47669 60.1413 7.55902 59.9277 7.72369C59.7141 7.88836 59.5639 8.06416 59.4771 8.25108L58.7294 7.98405C58.8629 7.67251 59.0409 7.42995 59.2635 7.25638C59.4882 7.08059 59.733 6.9582 59.9978 6.88921C60.2648 6.818 60.5274 6.7824 60.7855 6.7824C60.9502 6.7824 61.1394 6.80243 61.353 6.84248C61.5688 6.88031 61.7769 6.95931 61.9772 7.07947C62.1797 7.19964 62.3477 7.381 62.4812 7.62355C62.6147 7.86611 62.6815 8.191 62.6815 8.59822V11.9762H61.8937V11.2819H61.8537C61.8003 11.3932 61.7113 11.5122 61.5866 11.6391C61.462 11.7659 61.2962 11.8738 61.0893 11.9628C60.8823 12.0519 60.6298 12.0964 60.3316 12.0964ZM60.4518 11.3887C60.7633 11.3887 61.0259 11.3275 61.2395 11.2051C61.4554 11.0827 61.6178 10.9248 61.7268 10.7312C61.8381 10.5376 61.8937 10.3339 61.8937 10.1203V9.39932C61.8604 9.43938 61.7869 9.4761 61.6734 9.50948C61.5622 9.54063 61.4331 9.56845 61.2862 9.59292C61.1416 9.61518 61.0003 9.6352 60.8623 9.65301C60.7266 9.66858 60.6164 9.68194 60.5319 9.69306C60.3271 9.71976 60.1358 9.76316 59.9577 9.82324C59.7819 9.8811 59.6395 9.969 59.5305 10.0869C59.4237 10.2026 59.3703 10.3606 59.3703 10.5609C59.3703 10.8346 59.4715 11.0416 59.674 11.1818C59.8787 11.3197 60.138 11.3887 60.4518 11.3887Z" fill="#FF8900"/>
</svg>
