<svg width="565" height="28" viewBox="0 0 565 28" fill="none" xmlns="http://www.w3.org/2000/svg">
<path d="M14.2666 11H12.3291C12.2145 10.4427 12.014 9.95312 11.7275 9.53125C11.4463 9.10938 11.1025 8.75521 10.6963 8.46875C10.2952 8.17708 9.84994 7.95833 9.36035 7.8125C8.87077 7.66667 8.36035 7.59375 7.8291 7.59375C6.86035 7.59375 5.98275 7.83854 5.19629 8.32812C4.41504 8.81771 3.79264 9.53906 3.3291 10.4922C2.87077 11.4453 2.6416 12.6146 2.6416 14C2.6416 15.3854 2.87077 16.5547 3.3291 17.5078C3.79264 18.4609 4.41504 19.1823 5.19629 19.6719C5.98275 20.1615 6.86035 20.4062 7.8291 20.4062C8.36035 20.4062 8.87077 20.3333 9.36035 20.1875C9.84994 20.0417 10.2952 19.8255 10.6963 19.5391C11.1025 19.2474 11.4463 18.8906 11.7275 18.4687C12.014 18.0417 12.2145 17.5521 12.3291 17H14.2666C14.1208 17.8177 13.8551 18.5495 13.4697 19.1953C13.0843 19.8411 12.6051 20.3906 12.0322 20.8437C11.4593 21.2917 10.8161 21.6328 10.1025 21.8672C9.39421 22.1016 8.63639 22.2187 7.8291 22.2187C6.46452 22.2187 5.25098 21.8854 4.18848 21.2188C3.12598 20.5521 2.29004 19.6042 1.68066 18.375C1.07129 17.1458 0.766602 15.6875 0.766602 14C0.766602 12.3125 1.07129 10.8542 1.68066 9.625C2.29004 8.39583 3.12598 7.44792 4.18848 6.78125C5.25098 6.11458 6.46452 5.78125 7.8291 5.78125C8.63639 5.78125 9.39421 5.89844 10.1025 6.13281C10.8161 6.36719 11.4593 6.71094 12.0322 7.16406C12.6051 7.61198 13.0843 8.15885 13.4697 8.80469C13.8551 9.44531 14.1208 10.1771 14.2666 11ZM22.0225 22.25C20.9391 22.25 19.9886 21.9922 19.1709 21.4766C18.3584 20.9609 17.723 20.2396 17.2646 19.3125C16.8115 18.3854 16.585 17.3021 16.585 16.0625C16.585 14.8125 16.8115 13.7214 17.2646 12.7891C17.723 11.8568 18.3584 11.1328 19.1709 10.6172C19.9886 10.1016 20.9391 9.84375 22.0225 9.84375C23.1058 9.84375 24.0537 10.1016 24.8662 10.6172C25.6839 11.1328 26.3193 11.8568 26.7725 12.7891C27.2308 13.7214 27.46 14.8125 27.46 16.0625C27.46 17.3021 27.2308 18.3854 26.7725 19.3125C26.3193 20.2396 25.6839 20.9609 24.8662 21.4766C24.0537 21.9922 23.1058 22.25 22.0225 22.25ZM22.0225 20.5938C22.8454 20.5938 23.5225 20.3828 24.0537 19.9609C24.585 19.5391 24.9782 18.9844 25.2334 18.2969C25.4886 17.6094 25.6162 16.8646 25.6162 16.0625C25.6162 15.2604 25.4886 14.513 25.2334 13.8203C24.9782 13.1276 24.585 12.5677 24.0537 12.1406C23.5225 11.7135 22.8454 11.5 22.0225 11.5C21.1995 11.5 20.5225 11.7135 19.9912 12.1406C19.46 12.5677 19.0667 13.1276 18.8115 13.8203C18.5563 14.513 18.4287 15.2604 18.4287 16.0625C18.4287 16.8646 18.5563 17.6094 18.8115 18.2969C19.0667 18.9844 19.46 19.5391 19.9912 19.9609C20.5225 20.3828 21.1995 20.5938 22.0225 20.5938ZM30.2744 26.5V10H32.0557V11.9062H32.2744C32.4098 11.6979 32.5973 11.4323 32.8369 11.1094C33.0817 10.7812 33.4307 10.4896 33.8838 10.2344C34.3421 9.97396 34.9619 9.84375 35.7432 9.84375C36.7536 9.84375 37.6442 10.0964 38.415 10.6016C39.1859 11.1068 39.7874 11.8229 40.2197 12.75C40.652 13.6771 40.8682 14.7708 40.8682 16.0313C40.8682 17.3021 40.652 18.4036 40.2197 19.3359C39.7874 20.263 39.1885 20.9818 38.4229 21.4922C37.6572 21.9974 36.7744 22.25 35.7744 22.25C35.0036 22.25 34.3864 22.1224 33.9229 21.8672C33.4593 21.6068 33.1025 21.3125 32.8525 20.9844C32.6025 20.651 32.4098 20.375 32.2744 20.1562H32.1182V26.5H30.2744ZM32.0869 16C32.0869 16.9062 32.2197 17.7057 32.4854 18.3984C32.751 19.0859 33.139 19.625 33.6494 20.0156C34.1598 20.401 34.7848 20.5938 35.5244 20.5938C36.2952 20.5938 36.9385 20.3906 37.4541 19.9844C37.9749 19.5729 38.3656 19.0208 38.626 18.3281C38.8916 17.6302 39.0244 16.8542 39.0244 16C39.0244 15.1562 38.8942 14.3958 38.6338 13.7187C38.3786 13.0365 37.9906 12.4974 37.4697 12.1016C36.9541 11.7005 36.3057 11.5 35.5244 11.5C34.7744 11.5 34.1442 11.6901 33.6338 12.0703C33.1234 12.4453 32.738 12.9714 32.4775 13.6484C32.2171 14.3203 32.0869 15.1042 32.0869 16ZM44.4385 26.5C44.126 26.5 43.8473 26.474 43.6025 26.4219C43.3577 26.375 43.1885 26.3281 43.0947 26.2813L43.5635 24.6563C44.0114 24.7708 44.4072 24.8125 44.751 24.7812C45.0947 24.75 45.3994 24.5964 45.665 24.3203C45.9359 24.0495 46.1833 23.6094 46.4072 23L46.751 22.0625L42.3135 10H44.3135L47.626 19.5625H47.751L51.0635 10H53.0635L47.9697 23.75C47.7406 24.3698 47.4567 24.8828 47.1182 25.2891C46.7796 25.7005 46.3864 26.0052 45.9385 26.2031C45.4958 26.401 44.9958 26.5 44.4385 26.5ZM55.4971 22V10H57.2783V11.8125H57.4033C57.6221 11.2188 58.0179 10.737 58.5908 10.3672C59.1637 9.99739 59.8096 9.8125 60.5283 9.8125C60.6637 9.8125 60.833 9.8151 61.0361 9.82031C61.2393 9.82552 61.3929 9.83333 61.4971 9.84375V11.7187C61.4346 11.7031 61.2913 11.6797 61.0674 11.6484C60.8486 11.612 60.6169 11.5937 60.3721 11.5937C59.7887 11.5937 59.2679 11.7161 58.8096 11.9609C58.3564 12.2005 57.9971 12.5339 57.7314 12.9609C57.471 13.3828 57.3408 13.8646 57.3408 14.4062V22H55.4971ZM63.6826 22V10H65.5264V22H63.6826ZM64.6201 8C64.2607 8 63.9508 7.8776 63.6904 7.63281C63.4352 7.38802 63.3076 7.09375 63.3076 6.75C63.3076 6.40625 63.4352 6.11198 63.6904 5.86719C63.9508 5.6224 64.2607 5.5 64.6201 5.5C64.9795 5.5 65.2868 5.6224 65.542 5.86719C65.8024 6.11198 65.9326 6.40625 65.9326 6.75C65.9326 7.09375 65.8024 7.38802 65.542 7.63281C65.2868 7.8776 64.9795 8 64.6201 8ZM73.7471 26.75C72.8564 26.75 72.0908 26.6354 71.4502 26.4063C70.8096 26.1823 70.2757 25.8854 69.8486 25.5156C69.4268 25.151 69.0908 24.7604 68.8408 24.3438L70.3096 23.3125C70.4762 23.5313 70.6872 23.7813 70.9424 24.0625C71.1976 24.349 71.5465 24.5964 71.9893 24.8047C72.4372 25.0182 73.0231 25.125 73.7471 25.125C74.7158 25.125 75.5153 24.8906 76.1455 24.4219C76.7757 23.9531 77.0908 23.2187 77.0908 22.2187V19.7812H76.9346C76.7992 20 76.6064 20.2708 76.3564 20.5938C76.1117 20.9115 75.7575 21.1953 75.2939 21.4453C74.8356 21.6901 74.2158 21.8125 73.4346 21.8125C72.4658 21.8125 71.596 21.5833 70.8252 21.125C70.0596 20.6667 69.4528 20 69.0049 19.125C68.5622 18.25 68.3408 17.1875 68.3408 15.9375C68.3408 14.7083 68.557 13.638 68.9893 12.7266C69.4215 11.8099 70.0231 11.1016 70.7939 10.6016C71.5648 10.0964 72.4554 9.84375 73.4658 9.84375C74.2471 9.84375 74.8669 9.97396 75.3252 10.2344C75.7887 10.4896 76.1429 10.7812 76.3877 11.1094C76.6377 11.4323 76.8304 11.6979 76.9658 11.9062H77.1533V10H78.9346V22.3438C78.9346 23.375 78.7002 24.2135 78.2314 24.8594C77.7679 25.5104 77.1429 25.987 76.3564 26.2891C75.5752 26.5964 74.7054 26.75 73.7471 26.75ZM73.6846 20.1562C74.4242 20.1562 75.0492 19.987 75.5596 19.6484C76.07 19.3099 76.458 18.8229 76.7236 18.1875C76.9893 17.5521 77.1221 16.7917 77.1221 15.9062C77.1221 15.0417 76.9919 14.2786 76.7314 13.6172C76.471 12.9557 76.0856 12.4375 75.5752 12.0625C75.0648 11.6875 74.4346 11.5 73.6846 11.5C72.9033 11.5 72.2523 11.6979 71.7314 12.0937C71.2158 12.4896 70.8278 13.0208 70.5674 13.6875C70.3122 14.3542 70.1846 15.0937 70.1846 15.9062C70.1846 16.7396 70.3148 17.4766 70.5752 18.1172C70.8408 18.7526 71.2314 19.2526 71.7471 19.6172C72.2679 19.9766 72.9137 20.1562 73.6846 20.1562ZM84.1533 14.7812V22H82.3096V6H84.1533V11.875H84.3096C84.5908 11.2552 85.0127 10.763 85.5752 10.3984C86.1429 10.0286 86.8981 9.84375 87.8408 9.84375C88.6585 9.84375 89.3747 10.0078 89.9893 10.3359C90.6038 10.6589 91.0804 11.1562 91.4189 11.8281C91.7627 12.4948 91.9346 13.3437 91.9346 14.375V22H90.0908V14.5C90.0908 13.5469 89.8434 12.8099 89.3486 12.2891C88.859 11.763 88.1794 11.5 87.3096 11.5C86.7054 11.5 86.1637 11.6276 85.6846 11.8828C85.2106 12.138 84.8356 12.5104 84.5596 13C84.2887 13.4896 84.1533 14.0833 84.1533 14.7812ZM100.526 10V11.5625H94.3076V10H100.526ZM96.1201 7.125H97.9639V18.5625C97.9639 19.0833 98.0394 19.474 98.1904 19.7344C98.3467 19.9896 98.5446 20.1615 98.7842 20.25C99.029 20.3333 99.2868 20.375 99.5576 20.375C99.7607 20.375 99.9274 20.3646 100.058 20.3437C100.188 20.3177 100.292 20.2969 100.37 20.2812L100.745 21.9375C100.62 21.9844 100.446 22.0313 100.222 22.0781C99.9977 22.1302 99.7139 22.1563 99.3701 22.1563C98.8493 22.1563 98.3389 22.0443 97.8389 21.8203C97.3441 21.5964 96.9326 21.2552 96.6045 20.7969C96.2816 20.3385 96.1201 19.7604 96.1201 19.0625V7.125ZM113.3 14C113.3 13.1458 113.508 12.3672 113.925 11.6641C114.341 10.9609 114.901 10.401 115.604 9.98437C116.308 9.56771 117.086 9.35937 117.94 9.35937C118.68 9.35937 119.362 9.51823 119.987 9.83594C120.618 10.1536 121.138 10.5885 121.55 11.1406C121.961 11.6875 122.216 12.3073 122.315 13H120.425C120.321 12.4635 120.032 12.026 119.558 11.6875C119.084 11.3438 118.545 11.1719 117.94 11.1719C117.42 11.1719 116.946 11.2995 116.519 11.5547C116.091 11.8099 115.75 12.151 115.495 12.5781C115.24 13.0052 115.112 13.4792 115.112 14C115.112 14.5208 115.24 14.9948 115.495 15.4219C115.75 15.849 116.091 16.1901 116.519 16.4453C116.946 16.7005 117.42 16.8281 117.94 16.8281C118.545 16.8281 119.055 16.6589 119.472 16.3203C119.894 15.9766 120.159 15.5365 120.269 15H122.159C122.06 15.6927 121.818 16.3151 121.433 16.8672C121.047 17.4141 120.552 17.8464 119.948 18.1641C119.349 18.4818 118.68 18.6406 117.94 18.6406C117.086 18.6406 116.308 18.4323 115.604 18.0156C114.901 17.599 114.341 17.0391 113.925 16.3359C113.508 15.6328 113.3 14.8542 113.3 14ZM117.862 22.25C116.727 22.25 115.659 22.0365 114.659 21.6094C113.664 21.1823 112.787 20.5911 112.026 19.8359C111.271 19.0755 110.677 18.1979 110.245 17.2031C109.818 16.2083 109.607 15.1406 109.612 14C109.618 12.8594 109.834 11.7917 110.261 10.7969C110.693 9.80208 111.287 8.92708 112.042 8.17188C112.797 7.41146 113.672 6.81771 114.667 6.39062C115.662 5.96354 116.727 5.75 117.862 5.75C119.003 5.75 120.071 5.96354 121.065 6.39062C122.065 6.81771 122.94 7.41146 123.69 8.17188C124.446 8.92708 125.037 9.80208 125.464 10.7969C125.891 11.7917 126.107 12.8594 126.112 14C126.118 15.1406 125.907 16.2083 125.479 17.2031C125.052 18.1979 124.461 19.0755 123.706 19.8359C122.951 20.5911 122.073 21.1823 121.073 21.6094C120.073 22.0365 119.003 22.25 117.862 22.25ZM117.862 20.4375C118.753 20.4375 119.589 20.2708 120.37 19.9375C121.151 19.6042 121.836 19.1432 122.425 18.5547C123.013 17.9661 123.474 17.2839 123.808 16.5078C124.141 15.7266 124.305 14.8932 124.3 14.0078C124.295 13.1172 124.125 12.2812 123.792 11.5C123.459 10.7187 122.998 10.0339 122.409 9.44531C121.821 8.85677 121.138 8.39583 120.362 8.0625C119.586 7.72917 118.753 7.5625 117.862 7.5625C116.977 7.5625 116.146 7.72917 115.37 8.0625C114.594 8.39583 113.912 8.85937 113.323 9.45312C112.735 10.0417 112.271 10.7266 111.933 11.5078C111.599 12.2839 111.43 13.1172 111.425 14.0078C111.42 14.888 111.584 15.7187 111.917 16.5C112.25 17.276 112.711 17.9583 113.3 18.5469C113.894 19.1354 114.578 19.599 115.354 19.9375C116.136 20.2708 116.972 20.4375 117.862 20.4375ZM135.774 22V20.5938L141.056 14.8125C141.675 14.1354 142.186 13.5469 142.587 13.0469C142.988 12.5417 143.285 12.0677 143.478 11.625C143.675 11.1771 143.774 10.7083 143.774 10.2187C143.774 9.65625 143.639 9.16927 143.368 8.75781C143.103 8.34635 142.738 8.02865 142.274 7.80469C141.811 7.58073 141.29 7.46875 140.712 7.46875C140.097 7.46875 139.561 7.59635 139.103 7.85156C138.649 8.10156 138.298 8.45312 138.048 8.90625C137.803 9.35937 137.681 9.89062 137.681 10.5H135.837C135.837 9.5625 136.053 8.73958 136.485 8.03125C136.918 7.32292 137.506 6.77083 138.251 6.375C139.001 5.97917 139.842 5.78125 140.774 5.78125C141.712 5.78125 142.543 5.97917 143.267 6.375C143.991 6.77083 144.558 7.30469 144.97 7.97656C145.381 8.64844 145.587 9.39583 145.587 10.2187C145.587 10.8073 145.48 11.3828 145.267 11.9453C145.058 12.5026 144.694 13.125 144.173 13.8125C143.657 14.4948 142.941 15.3281 142.024 16.3125L138.431 20.1562V20.2812H145.868V22H135.774ZM154.313 22.2187C153.136 22.2187 152.134 21.8984 151.306 21.2578C150.478 20.612 149.845 19.6771 149.407 18.4531C148.97 17.224 148.751 15.7396 148.751 14C148.751 12.2708 148.97 10.7943 149.407 9.57031C149.85 8.34115 150.485 7.40365 151.313 6.75781C152.147 6.10677 153.147 5.78125 154.313 5.78125C155.48 5.78125 156.478 6.10677 157.306 6.75781C158.139 7.40365 158.774 8.34115 159.212 9.57031C159.655 10.7943 159.876 12.2708 159.876 14C159.876 15.7396 159.657 17.224 159.22 18.4531C158.782 19.6771 158.149 20.612 157.321 21.2578C156.493 21.8984 155.491 22.2187 154.313 22.2187ZM154.313 20.5C155.48 20.5 156.386 19.9375 157.032 18.8125C157.678 17.6875 158.001 16.0833 158.001 14C158.001 12.6146 157.853 11.4349 157.556 10.4609C157.264 9.48698 156.842 8.74479 156.29 8.23437C155.743 7.72396 155.084 7.46875 154.313 7.46875C153.157 7.46875 152.254 8.03906 151.603 9.17969C150.951 10.3151 150.626 11.9219 150.626 14C150.626 15.3854 150.772 16.5625 151.063 17.5312C151.355 18.5 151.774 19.237 152.321 19.7422C152.873 20.2474 153.537 20.5 154.313 20.5ZM162.845 22V20.5938L168.126 14.8125C168.746 14.1354 169.256 13.5469 169.657 13.0469C170.058 12.5417 170.355 12.0677 170.548 11.625C170.746 11.1771 170.845 10.7083 170.845 10.2187C170.845 9.65625 170.709 9.16927 170.438 8.75781C170.173 8.34635 169.808 8.02865 169.345 7.80469C168.881 7.58073 168.36 7.46875 167.782 7.46875C167.168 7.46875 166.631 7.59635 166.173 7.85156C165.72 8.10156 165.368 8.45312 165.118 8.90625C164.873 9.35937 164.751 9.89062 164.751 10.5H162.907C162.907 9.5625 163.123 8.73958 163.556 8.03125C163.988 7.32292 164.576 6.77083 165.321 6.375C166.071 5.97917 166.912 5.78125 167.845 5.78125C168.782 5.78125 169.613 5.97917 170.337 6.375C171.061 6.77083 171.629 7.30469 172.04 7.97656C172.451 8.64844 172.657 9.39583 172.657 10.2187C172.657 10.8073 172.55 11.3828 172.337 11.9453C172.129 12.5026 171.764 13.125 171.243 13.8125C170.728 14.4948 170.011 15.3281 169.095 16.3125L165.501 20.1562V20.2812H172.938V22H162.845ZM175.446 18.7187V17.125L182.478 6H183.634V8.46875H182.853L177.54 16.875V17H187.009V18.7187H175.446ZM182.978 22V18.2344V17.4922V6H184.821V22H182.978ZM197.062 22H195.03L200.905 6H202.905L208.78 22H206.749L201.968 8.53125H201.843L197.062 22ZM197.812 15.75H205.999V17.4687H197.812V15.75ZM212.866 6V22H211.022V6H212.866ZM218.087 6V22H216.243V6H218.087ZM227.651 22V10H229.433V11.8125H229.558C229.776 11.2188 230.172 10.737 230.745 10.3672C231.318 9.99739 231.964 9.8125 232.683 9.8125C232.818 9.8125 232.987 9.8151 233.19 9.82031C233.394 9.82552 233.547 9.83333 233.651 9.84375V11.7187C233.589 11.7031 233.446 11.6797 233.222 11.6484C233.003 11.612 232.771 11.5937 232.526 11.5937C231.943 11.5937 231.422 11.7161 230.964 11.9609C230.511 12.2005 230.151 12.5339 229.886 12.9609C229.625 13.3828 229.495 13.8646 229.495 14.4062V22H227.651ZM235.837 22V10H237.681V22H235.837ZM236.774 8C236.415 8 236.105 7.8776 235.845 7.63281C235.59 7.38802 235.462 7.09375 235.462 6.75C235.462 6.40625 235.59 6.11198 235.845 5.86719C236.105 5.6224 236.415 5.5 236.774 5.5C237.134 5.5 237.441 5.6224 237.696 5.86719C237.957 6.11198 238.087 6.40625 238.087 6.75C238.087 7.09375 237.957 7.38802 237.696 7.63281C237.441 7.8776 237.134 8 236.774 8ZM245.901 26.75C245.011 26.75 244.245 26.6354 243.604 26.4063C242.964 26.1823 242.43 25.8854 242.003 25.5156C241.581 25.151 241.245 24.7604 240.995 24.3438L242.464 23.3125C242.631 23.5313 242.841 23.7813 243.097 24.0625C243.352 24.349 243.701 24.5964 244.144 24.8047C244.591 25.0182 245.177 25.125 245.901 25.125C246.87 25.125 247.67 24.8906 248.3 24.4219C248.93 23.9531 249.245 23.2187 249.245 22.2187V19.7812H249.089C248.953 20 248.761 20.2708 248.511 20.5938C248.266 20.9115 247.912 21.1953 247.448 21.4453C246.99 21.6901 246.37 21.8125 245.589 21.8125C244.62 21.8125 243.75 21.5833 242.979 21.125C242.214 20.6667 241.607 20 241.159 19.125C240.716 18.25 240.495 17.1875 240.495 15.9375C240.495 14.7083 240.711 13.638 241.144 12.7266C241.576 11.8099 242.177 11.1016 242.948 10.6016C243.719 10.0964 244.61 9.84375 245.62 9.84375C246.401 9.84375 247.021 9.97396 247.479 10.2344C247.943 10.4896 248.297 10.7812 248.542 11.1094C248.792 11.4323 248.985 11.6979 249.12 11.9062H249.308V10H251.089V22.3438C251.089 23.375 250.854 24.2135 250.386 24.8594C249.922 25.5104 249.297 25.987 248.511 26.2891C247.729 26.5964 246.86 26.75 245.901 26.75ZM245.839 20.1562C246.578 20.1562 247.203 19.987 247.714 19.6484C248.224 19.3099 248.612 18.8229 248.878 18.1875C249.144 17.5521 249.276 16.7917 249.276 15.9062C249.276 15.0417 249.146 14.2786 248.886 13.6172C248.625 12.9557 248.24 12.4375 247.729 12.0625C247.219 11.6875 246.589 11.5 245.839 11.5C245.058 11.5 244.407 11.6979 243.886 12.0937C243.37 12.4896 242.982 13.0208 242.722 13.6875C242.466 14.3542 242.339 15.0937 242.339 15.9062C242.339 16.7396 242.469 17.4766 242.729 18.1172C242.995 18.7526 243.386 19.2526 243.901 19.6172C244.422 19.9766 245.068 20.1562 245.839 20.1562ZM256.308 14.7812V22H254.464V6H256.308V11.875H256.464C256.745 11.2552 257.167 10.763 257.729 10.3984C258.297 10.0286 259.052 9.84375 259.995 9.84375C260.813 9.84375 261.529 10.0078 262.144 10.3359C262.758 10.6589 263.235 11.1562 263.573 11.8281C263.917 12.4948 264.089 13.3437 264.089 14.375V22H262.245V14.5C262.245 13.5469 261.998 12.8099 261.503 12.2891C261.013 11.763 260.334 11.5 259.464 11.5C258.86 11.5 258.318 11.6276 257.839 11.8828C257.365 12.138 256.99 12.5104 256.714 13C256.443 13.4896 256.308 14.0833 256.308 14.7812ZM272.681 10V11.5625H266.462V10H272.681ZM268.274 7.125H270.118V18.5625C270.118 19.0833 270.194 19.474 270.345 19.7344C270.501 19.9896 270.699 20.1615 270.938 20.25C271.183 20.3333 271.441 20.375 271.712 20.375C271.915 20.375 272.082 20.3646 272.212 20.3437C272.342 20.3177 272.446 20.2969 272.524 20.2812L272.899 21.9375C272.774 21.9844 272.6 22.0313 272.376 22.0781C272.152 22.1302 271.868 22.1563 271.524 22.1563C271.004 22.1563 270.493 22.0443 269.993 21.8203C269.498 21.5964 269.087 21.2552 268.759 20.7969C268.436 20.3385 268.274 19.7604 268.274 19.0625V7.125ZM283.739 12.6875L282.083 13.1562C281.979 12.8802 281.825 12.612 281.622 12.3516C281.424 12.0859 281.153 11.8672 280.81 11.6953C280.466 11.5234 280.026 11.4375 279.489 11.4375C278.755 11.4375 278.143 11.6068 277.653 11.9453C277.169 12.2786 276.927 12.7031 276.927 13.2187C276.927 13.6771 277.093 14.0391 277.427 14.3047C277.76 14.5703 278.281 14.7917 278.989 14.9687L280.771 15.4063C281.843 15.6667 282.643 16.0651 283.169 16.6016C283.695 17.1328 283.958 17.8177 283.958 18.6562C283.958 19.3437 283.76 19.9583 283.364 20.5C282.974 21.0417 282.427 21.4688 281.724 21.7813C281.021 22.0938 280.203 22.25 279.271 22.25C278.047 22.25 277.034 21.9844 276.231 21.4531C275.429 20.9219 274.922 20.1458 274.708 19.125L276.458 18.6875C276.625 19.3333 276.94 19.8177 277.403 20.1406C277.872 20.4635 278.484 20.625 279.239 20.625C280.099 20.625 280.781 20.4427 281.286 20.0781C281.797 19.7083 282.052 19.2656 282.052 18.75C282.052 18.3333 281.906 17.9844 281.614 17.7031C281.323 17.4167 280.875 17.2031 280.271 17.0625L278.271 16.5937C277.172 16.3333 276.364 15.9297 275.849 15.3828C275.338 14.8307 275.083 14.1406 275.083 13.3125C275.083 12.6354 275.273 12.0365 275.653 11.5156C276.039 10.9948 276.562 10.5859 277.224 10.2891C277.89 9.99219 278.646 9.84375 279.489 9.84375C280.677 9.84375 281.609 10.1042 282.286 10.625C282.968 11.1458 283.453 11.8333 283.739 12.6875ZM292.921 22V10H294.702V11.8125H294.827C295.046 11.2188 295.442 10.737 296.015 10.3672C296.588 9.99739 297.233 9.8125 297.952 9.8125C298.088 9.8125 298.257 9.8151 298.46 9.82031C298.663 9.82552 298.817 9.83333 298.921 9.84375V11.7187C298.858 11.7031 298.715 11.6797 298.491 11.6484C298.272 11.612 298.041 11.5937 297.796 11.5937C297.213 11.5937 296.692 11.7161 296.233 11.9609C295.78 12.2005 295.421 12.5339 295.155 12.9609C294.895 13.3828 294.765 13.8646 294.765 14.4062V22H292.921ZM305.772 22.25C304.616 22.25 303.619 21.9948 302.78 21.4844C301.947 20.9688 301.304 20.25 300.851 19.3281C300.403 18.401 300.179 17.3229 300.179 16.0938C300.179 14.8646 300.403 13.7812 300.851 12.8437C301.304 11.901 301.934 11.1667 302.741 10.6406C303.554 10.1094 304.502 9.84375 305.585 9.84375C306.21 9.84375 306.827 9.94792 307.437 10.1562C308.046 10.3646 308.601 10.7031 309.101 11.1719C309.601 11.6354 309.999 12.25 310.296 13.0156C310.593 13.7812 310.741 14.724 310.741 15.8437V16.625H301.491V15.0312H308.866C308.866 14.3542 308.731 13.75 308.46 13.2187C308.194 12.6875 307.814 12.2682 307.319 11.9609C306.83 11.6536 306.252 11.5 305.585 11.5C304.851 11.5 304.215 11.6823 303.679 12.0469C303.147 12.4062 302.739 12.875 302.452 13.4531C302.166 14.0312 302.022 14.651 302.022 15.3125V16.375C302.022 17.2813 302.179 18.0495 302.491 18.6797C302.809 19.3047 303.249 19.7812 303.812 20.1094C304.374 20.4323 305.028 20.5938 305.772 20.5938C306.257 20.5938 306.694 20.526 307.085 20.3906C307.481 20.25 307.822 20.0417 308.108 19.7656C308.395 19.4844 308.616 19.1354 308.772 18.7187L310.554 19.2188C310.366 19.8229 310.051 20.3542 309.608 20.8125C309.166 21.2656 308.619 21.6198 307.968 21.875C307.317 22.125 306.585 22.25 305.772 22.25ZM322.046 12.6875L320.39 13.1562C320.285 12.8802 320.132 12.612 319.929 12.3516C319.731 12.0859 319.46 11.8672 319.116 11.6953C318.772 11.5234 318.332 11.4375 317.796 11.4375C317.062 11.4375 316.45 11.6068 315.96 11.9453C315.476 12.2786 315.233 12.7031 315.233 13.2187C315.233 13.6771 315.4 14.0391 315.733 14.3047C316.067 14.5703 316.588 14.7917 317.296 14.9687L319.077 15.4063C320.15 15.6667 320.95 16.0651 321.476 16.6016C322.002 17.1328 322.265 17.8177 322.265 18.6562C322.265 19.3437 322.067 19.9583 321.671 20.5C321.28 21.0417 320.733 21.4688 320.03 21.7813C319.327 22.0938 318.509 22.25 317.577 22.25C316.353 22.25 315.34 21.9844 314.538 21.4531C313.736 20.9219 313.228 20.1458 313.015 19.125L314.765 18.6875C314.931 19.3333 315.246 19.8177 315.71 20.1406C316.179 20.4635 316.791 20.625 317.546 20.625C318.405 20.625 319.088 20.4427 319.593 20.0781C320.103 19.7083 320.358 19.2656 320.358 18.75C320.358 18.3333 320.213 17.9844 319.921 17.7031C319.629 17.4167 319.181 17.2031 318.577 17.0625L316.577 16.5937C315.478 16.3333 314.671 15.9297 314.155 15.3828C313.645 14.8307 313.39 14.1406 313.39 13.3125C313.39 12.6354 313.58 12.0365 313.96 11.5156C314.345 10.9948 314.869 10.5859 315.53 10.2891C316.197 9.99219 316.952 9.84375 317.796 9.84375C318.983 9.84375 319.916 10.1042 320.593 10.625C321.275 11.1458 321.759 11.8333 322.046 12.6875ZM330.071 22.25C328.915 22.25 327.918 21.9948 327.079 21.4844C326.246 20.9688 325.603 20.25 325.149 19.3281C324.701 18.401 324.478 17.3229 324.478 16.0938C324.478 14.8646 324.701 13.7812 325.149 12.8437C325.603 11.901 326.233 11.1667 327.04 10.6406C327.853 10.1094 328.8 9.84375 329.884 9.84375C330.509 9.84375 331.126 9.94792 331.735 10.1562C332.345 10.3646 332.899 10.7031 333.399 11.1719C333.899 11.6354 334.298 12.25 334.595 13.0156C334.892 13.7812 335.04 14.724 335.04 15.8437V16.625H325.79V15.0312H333.165C333.165 14.3542 333.03 13.75 332.759 13.2187C332.493 12.6875 332.113 12.2682 331.618 11.9609C331.129 11.6536 330.55 11.5 329.884 11.5C329.149 11.5 328.514 11.6823 327.978 12.0469C327.446 12.4062 327.037 12.875 326.751 13.4531C326.465 14.0312 326.321 14.651 326.321 15.3125V16.375C326.321 17.2813 326.478 18.0495 326.79 18.6797C327.108 19.3047 327.548 19.7812 328.11 20.1094C328.673 20.4323 329.326 20.5938 330.071 20.5938C330.556 20.5938 330.993 20.526 331.384 20.3906C331.78 20.25 332.121 20.0417 332.407 19.7656C332.694 19.4844 332.915 19.1354 333.071 18.7187L334.853 19.2188C334.665 19.8229 334.35 20.3542 333.907 20.8125C333.465 21.2656 332.918 21.6198 332.267 21.875C331.616 22.125 330.884 22.25 330.071 22.25ZM337.845 22V10H339.626V11.8125H339.751C339.97 11.2188 340.366 10.737 340.938 10.3672C341.511 9.99739 342.157 9.8125 342.876 9.8125C343.011 9.8125 343.181 9.8151 343.384 9.82031C343.587 9.82552 343.741 9.83333 343.845 9.84375V11.7187C343.782 11.7031 343.639 11.6797 343.415 11.6484C343.196 11.612 342.965 11.5937 342.72 11.5937C342.136 11.5937 341.616 11.7161 341.157 11.9609C340.704 12.2005 340.345 12.5339 340.079 12.9609C339.819 13.3828 339.688 13.8646 339.688 14.4062V22H337.845ZM356.208 10L351.771 22H349.896L345.458 10H347.458L350.771 19.5625H350.896L354.208 10H356.208ZM363.243 22.25C362.087 22.25 361.09 21.9948 360.251 21.4844C359.418 20.9688 358.774 20.25 358.321 19.3281C357.873 18.401 357.649 17.3229 357.649 16.0938C357.649 14.8646 357.873 13.7812 358.321 12.8437C358.774 11.901 359.405 11.1667 360.212 10.6406C361.024 10.1094 361.972 9.84375 363.056 9.84375C363.681 9.84375 364.298 9.94792 364.907 10.1562C365.517 10.3646 366.071 10.7031 366.571 11.1719C367.071 11.6354 367.47 12.25 367.767 13.0156C368.063 13.7812 368.212 14.724 368.212 15.8437V16.625H358.962V15.0312H366.337C366.337 14.3542 366.201 13.75 365.931 13.2187C365.665 12.6875 365.285 12.2682 364.79 11.9609C364.3 11.6536 363.722 11.5 363.056 11.5C362.321 11.5 361.686 11.6823 361.149 12.0469C360.618 12.4062 360.209 12.875 359.923 13.4531C359.636 14.0312 359.493 14.651 359.493 15.3125V16.375C359.493 17.2813 359.649 18.0495 359.962 18.6797C360.28 19.3047 360.72 19.7812 361.282 20.1094C361.845 20.4323 362.498 20.5938 363.243 20.5938C363.728 20.5938 364.165 20.526 364.556 20.3906C364.951 20.25 365.293 20.0417 365.579 19.7656C365.866 19.4844 366.087 19.1354 366.243 18.7187L368.024 19.2188C367.837 19.8229 367.522 20.3542 367.079 20.8125C366.636 21.2656 366.09 21.6198 365.438 21.875C364.787 22.125 364.056 22.25 363.243 22.25ZM375.548 22.25C374.548 22.25 373.665 21.9974 372.899 21.4922C372.134 20.9818 371.535 20.263 371.103 19.3359C370.67 18.4036 370.454 17.3021 370.454 16.0313C370.454 14.7708 370.67 13.6771 371.103 12.75C371.535 11.8229 372.136 11.1068 372.907 10.6016C373.678 10.0964 374.569 9.84375 375.579 9.84375C376.36 9.84375 376.978 9.97396 377.431 10.2344C377.889 10.4896 378.238 10.7812 378.478 11.1094C378.722 11.4323 378.912 11.6979 379.048 11.9062H379.204V6H381.048V22H379.267V20.1562H379.048C378.912 20.375 378.72 20.651 378.47 20.9844C378.22 21.3125 377.863 21.6068 377.399 21.8672C376.936 22.1224 376.319 22.25 375.548 22.25ZM375.798 20.5938C376.537 20.5938 377.162 20.401 377.673 20.0156C378.183 19.625 378.571 19.0859 378.837 18.3984C379.103 17.7057 379.235 16.9062 379.235 16C379.235 15.1042 379.105 14.3203 378.845 13.6484C378.584 12.9714 378.199 12.4453 377.688 12.0703C377.178 11.6901 376.548 11.5 375.798 11.5C375.017 11.5 374.366 11.7005 373.845 12.1016C373.329 12.4974 372.941 13.0365 372.681 13.7187C372.425 14.3958 372.298 15.1562 372.298 16C372.298 16.8542 372.428 17.6302 372.688 18.3281C372.954 19.0208 373.345 19.5729 373.86 19.9844C374.381 20.3906 375.027 20.5938 375.798 20.5938ZM393.556 0.84375V27.1562H391.993V0.84375H393.556ZM404.503 6H406.815L412.253 19.2812H412.44L417.878 6H420.19V22H418.378V9.84375H418.222L413.222 22H411.472L406.472 9.84375H406.315V22H404.503V6ZM427.356 22.2813C426.596 22.2813 425.906 22.138 425.286 21.8516C424.666 21.5599 424.174 21.1406 423.81 20.5938C423.445 20.0417 423.263 19.375 423.263 18.5937C423.263 17.9062 423.398 17.349 423.669 16.9219C423.94 16.4896 424.302 16.151 424.755 15.9062C425.208 15.6615 425.708 15.4792 426.255 15.3594C426.807 15.2344 427.362 15.1354 427.919 15.0625C428.648 14.9687 429.239 14.8984 429.692 14.8516C430.151 14.7995 430.484 14.7135 430.692 14.5937C430.906 14.474 431.013 14.2656 431.013 13.9687V13.9062C431.013 13.1354 430.802 12.5365 430.38 12.1094C429.963 11.6823 429.33 11.4687 428.481 11.4687C427.601 11.4687 426.911 11.6615 426.411 12.0469C425.911 12.4323 425.56 12.8437 425.356 13.2812L423.606 12.6562C423.919 11.9271 424.336 11.3594 424.856 10.9531C425.382 10.5417 425.955 10.2552 426.575 10.0937C427.2 9.92708 427.815 9.84375 428.419 9.84375C428.804 9.84375 429.247 9.89062 429.747 9.98437C430.252 10.0729 430.739 10.2578 431.208 10.5391C431.682 10.8203 432.075 11.2448 432.388 11.8125C432.7 12.3802 432.856 13.1406 432.856 14.0938V22H431.013V20.375H430.919C430.794 20.6354 430.586 20.9141 430.294 21.2109C430.002 21.5078 429.614 21.7604 429.13 21.9687C428.646 22.1771 428.054 22.2813 427.356 22.2813ZM427.638 20.625C428.367 20.625 428.981 20.4818 429.481 20.1953C429.987 19.9089 430.367 19.5391 430.622 19.0859C430.882 18.6328 431.013 18.1562 431.013 17.6562V15.9687C430.935 16.0625 430.763 16.1484 430.497 16.2266C430.237 16.2995 429.935 16.3646 429.591 16.4219C429.252 16.474 428.922 16.5208 428.599 16.5625C428.281 16.599 428.023 16.6302 427.825 16.6562C427.346 16.7187 426.898 16.8203 426.481 16.9609C426.07 17.0964 425.737 17.3021 425.481 17.5781C425.231 17.849 425.106 18.2187 425.106 18.6875C425.106 19.3281 425.343 19.8125 425.817 20.1406C426.297 20.4635 426.903 20.625 427.638 20.625ZM440.753 22.25C439.753 22.25 438.87 21.9974 438.104 21.4922C437.339 20.9818 436.74 20.263 436.308 19.3359C435.875 18.4036 435.659 17.3021 435.659 16.0313C435.659 14.7708 435.875 13.6771 436.308 12.75C436.74 11.8229 437.341 11.1068 438.112 10.6016C438.883 10.0964 439.774 9.84375 440.784 9.84375C441.565 9.84375 442.183 9.97396 442.636 10.2344C443.094 10.4896 443.443 10.7812 443.683 11.1094C443.927 11.4323 444.118 11.6979 444.253 11.9062H444.409V6H446.253V22H444.472V20.1562H444.253C444.118 20.375 443.925 20.651 443.675 20.9844C443.425 21.3125 443.068 21.6068 442.604 21.8672C442.141 22.1224 441.524 22.25 440.753 22.25ZM441.003 20.5938C441.743 20.5938 442.368 20.401 442.878 20.0156C443.388 19.625 443.776 19.0859 444.042 18.3984C444.308 17.7057 444.44 16.9062 444.44 16C444.44 15.1042 444.31 14.3203 444.05 13.6484C443.789 12.9714 443.404 12.4453 442.894 12.0703C442.383 11.6901 441.753 11.5 441.003 11.5C440.222 11.5 439.571 11.7005 439.05 12.1016C438.534 12.4974 438.146 13.0365 437.886 13.7187C437.631 14.3958 437.503 15.1562 437.503 16C437.503 16.8542 437.633 17.6302 437.894 18.3281C438.159 19.0208 438.55 19.5729 439.065 19.9844C439.586 20.3906 440.232 20.5938 441.003 20.5938ZM454.917 22.25C453.761 22.25 452.763 21.9948 451.925 21.4844C451.091 20.9688 450.448 20.25 449.995 19.3281C449.547 18.401 449.323 17.3229 449.323 16.0938C449.323 14.8646 449.547 13.7812 449.995 12.8437C450.448 11.901 451.078 11.1667 451.886 10.6406C452.698 10.1094 453.646 9.84375 454.729 9.84375C455.354 9.84375 455.972 9.94792 456.581 10.1562C457.19 10.3646 457.745 10.7031 458.245 11.1719C458.745 11.6354 459.144 12.25 459.44 13.0156C459.737 13.7812 459.886 14.724 459.886 15.8437V16.625H450.636V15.0312H458.011C458.011 14.3542 457.875 13.75 457.604 13.2187C457.339 12.6875 456.959 12.2682 456.464 11.9609C455.974 11.6536 455.396 11.5 454.729 11.5C453.995 11.5 453.36 11.6823 452.823 12.0469C452.292 12.4062 451.883 12.875 451.597 13.4531C451.31 14.0312 451.167 14.651 451.167 15.3125V16.375C451.167 17.2813 451.323 18.0495 451.636 18.6797C451.953 19.3047 452.394 19.7812 452.956 20.1094C453.519 20.4323 454.172 20.5938 454.917 20.5938C455.401 20.5938 455.839 20.526 456.229 20.3906C456.625 20.25 456.966 20.0417 457.253 19.7656C457.539 19.4844 457.761 19.1354 457.917 18.7187L459.698 19.2188C459.511 19.8229 459.196 20.3542 458.753 20.8125C458.31 21.2656 457.763 21.6198 457.112 21.875C456.461 22.125 455.729 22.25 454.917 22.25ZM469.128 22V6H470.972V11.9062H471.128C471.263 11.6979 471.451 11.4323 471.69 11.1094C471.935 10.7812 472.284 10.4896 472.737 10.2344C473.196 9.97396 473.815 9.84375 474.597 9.84375C475.607 9.84375 476.498 10.0964 477.269 10.6016C478.039 11.1068 478.641 11.8229 479.073 12.75C479.506 13.6771 479.722 14.7708 479.722 16.0313C479.722 17.3021 479.506 18.4036 479.073 19.3359C478.641 20.263 478.042 20.9818 477.276 21.4922C476.511 21.9974 475.628 22.25 474.628 22.25C473.857 22.25 473.24 22.1224 472.776 21.8672C472.313 21.6068 471.956 21.3125 471.706 20.9844C471.456 20.651 471.263 20.375 471.128 20.1562H470.909V22H469.128ZM470.94 16C470.94 16.9062 471.073 17.7057 471.339 18.3984C471.604 19.0859 471.993 19.625 472.503 20.0156C473.013 20.401 473.638 20.5938 474.378 20.5938C475.149 20.5938 475.792 20.3906 476.308 19.9844C476.828 19.5729 477.219 19.0208 477.479 18.3281C477.745 17.6302 477.878 16.8542 477.878 16C477.878 15.1562 477.748 14.3958 477.487 13.7187C477.232 13.0365 476.844 12.4974 476.323 12.1016C475.808 11.7005 475.159 11.5 474.378 11.5C473.628 11.5 472.998 11.6901 472.487 12.0703C471.977 12.4453 471.591 12.9714 471.331 13.6484C471.071 14.3203 470.94 15.1042 470.94 16ZM483.3 26.5C482.987 26.5 482.709 26.474 482.464 26.4219C482.219 26.375 482.05 26.3281 481.956 26.2813L482.425 24.6563C482.873 24.7708 483.269 24.8125 483.612 24.7812C483.956 24.75 484.261 24.5964 484.526 24.3203C484.797 24.0495 485.045 23.6094 485.269 23L485.612 22.0625L481.175 10H483.175L486.487 19.5625H486.612L489.925 10H491.925L486.831 23.75C486.602 24.3698 486.318 24.8828 485.979 25.2891C485.641 25.7005 485.248 26.0052 484.8 26.2031C484.357 26.401 483.857 26.5 483.3 26.5ZM500.796 6H503.108L508.546 19.2812H508.733L514.171 6H516.483V22H514.671V9.84375H514.515L509.515 22H507.765L502.765 9.84375H502.608V22H500.796V6ZM522.306 6V22H520.368V6H522.306ZM534.94 10C534.847 9.20833 534.466 8.59375 533.8 8.15625C533.133 7.71875 532.315 7.5 531.347 7.5C530.638 7.5 530.019 7.61458 529.487 7.84375C528.961 8.07292 528.55 8.38802 528.253 8.78906C527.961 9.1901 527.815 9.64583 527.815 10.1562C527.815 10.5833 527.917 10.9505 528.12 11.2578C528.328 11.5599 528.594 11.8125 528.917 12.0156C529.24 12.2135 529.578 12.3776 529.933 12.5078C530.287 12.6328 530.612 12.7344 530.909 12.8125L532.534 13.25C532.951 13.3594 533.414 13.5104 533.925 13.7031C534.44 13.8958 534.933 14.1589 535.401 14.4922C535.875 14.8203 536.266 15.2422 536.573 15.7578C536.881 16.2734 537.034 16.9062 537.034 17.6562C537.034 18.5208 536.808 19.3021 536.354 20C535.907 20.6979 535.25 21.2526 534.386 21.6641C533.526 22.0755 532.482 22.2813 531.253 22.2813C530.107 22.2813 529.115 22.0964 528.276 21.7266C527.443 21.3568 526.787 20.8411 526.308 20.1797C525.834 19.5182 525.565 18.75 525.503 17.875H527.503C527.555 18.4792 527.758 18.9792 528.112 19.375C528.472 19.7656 528.925 20.0573 529.472 20.25C530.024 20.4375 530.618 20.5312 531.253 20.5312C531.993 20.5312 532.657 20.4115 533.245 20.1719C533.834 19.9271 534.3 19.5885 534.644 19.1562C534.987 18.7187 535.159 18.2083 535.159 17.625C535.159 17.0937 535.011 16.6615 534.714 16.3281C534.417 15.9948 534.026 15.724 533.542 15.5156C533.058 15.3073 532.534 15.125 531.972 14.9687L530.003 14.4062C528.753 14.0469 527.763 13.5339 527.034 12.8672C526.305 12.2005 525.94 11.3281 525.94 10.25C525.94 9.35417 526.183 8.57292 526.667 7.90625C527.157 7.23437 527.813 6.71354 528.636 6.34375C529.464 5.96875 530.388 5.78125 531.409 5.78125C532.44 5.78125 533.357 5.96615 534.159 6.33594C534.961 6.70052 535.597 7.20052 536.065 7.83594C536.539 8.47135 536.789 9.19271 536.815 10H534.94ZM539.345 7.71875V6H551.345V7.71875H546.313V22H544.376V7.71875H539.345ZM554.335 22V6H563.991V7.71875H556.272V13.125H563.491V14.8437H556.272V20.2812H564.116V22H554.335Z" fill="#4A2800"/>
</svg>
