<svg width="654" height="560" viewBox="0 0 654 560" fill="none" xmlns="http://www.w3.org/2000/svg">
<path d="M13.8026 35.2851C17.0448 25.1297 26.5098 20.1034 35.1861 20.1034C43.2488 20.1034 51.4869 23.575 58.2348 28.4459C107.137 63.3682 136.978 146.686 192.19 164.924C195.609 166.012 199.158 166.582 202.663 166.582C218.307 166.582 231.321 153.37 231.321 134.406C231.321 123.939 227.07 114.613 220.191 108.084H258.402L244.598 87.9283H206.914C202.97 87.9283 197.449 87.9284 194.119 90.4155C197.23 96.2709 200.078 102.332 203.102 108.188C203.19 108.447 204.285 110.468 204.372 110.468C205.292 110.468 206.52 109.743 207.615 109.743C215.59 109.743 220.717 119.017 220.717 127.722C220.717 142.541 208.843 149.795 197.756 149.795C191.008 149.795 183.909 147.619 177.687 144.561C139.871 125.96 102.888 62.5398 70.7682 29.6378C58.7622 17.5129 37.8163 0 20.9458 0C13.8906 0 0.613693 4.97432 0 15.1297L13.8026 35.2851ZM158.932 53.7304L172.735 73.8865H255.071L241.093 53.7304H158.932ZM221.943 53.7304L235.747 73.8865H244.817L244.686 130.001C244.686 141.09 248.235 152.644 255.772 159.691C262.827 166.219 271.109 171.349 278.865 176.582C267.077 164.095 263.44 155.959 263.44 136.892V73.8858L249.637 53.7298H221.943V53.7304ZM254.676 53.7304L268.479 73.8865H285.437L271.59 53.7304H254.676ZM284.298 73.8865H303.359C303.14 75.2858 303.053 76.7358 303.053 78.2906C303.053 83.4203 304.455 88.2906 304.455 93.4203C304.455 99.2757 301.256 101.866 296.611 101.866C293.588 101.866 290.652 100.934 287.628 100.934C282.195 100.934 278.689 104.043 278.689 110.675C278.689 112.747 278.952 114.872 279.478 116.789C285.7 141.193 313.832 156.22 333.989 156.22C346.083 156.22 360.193 149.432 368.168 138.345L350.421 123.784C343.191 135.028 329.345 142.023 317.557 142.023C309.012 142.023 300.249 138.085 297.4 127.619C297.093 126.686 297.005 125.598 297.005 124.509C297.005 118.913 300.73 114.613 305.462 114.613C308.705 114.613 311.816 115.443 314.971 115.443C319.791 115.443 322.99 113.577 322.99 107.359C322.99 101.66 321.983 95.9081 321.983 90.1047C321.983 83.6283 323.209 78.1878 327.548 73.8871L313.525 53.7311H270.495L284.298 73.8865ZM317.381 53.7304L331.185 73.8865H361.201L347.179 53.7304H317.381ZM326.934 53.7304L340.737 73.8865H349.808L349.72 130.001C349.72 141.09 353.226 152.644 360.806 159.691C367.862 166.219 376.143 171.349 383.899 176.582C372.111 164.095 368.475 155.959 368.475 136.892V73.8858L354.672 53.7298H326.934V53.7304ZM359.711 53.7304L373.514 73.8865H390.428L376.625 53.7304H359.711Z" fill="#C14F17"/>
<path d="M443.913 120.6C440.075 126.811 433.493 130.907 426.97 130.907C426.046 130.907 425.18 130.805 424.314 130.668C426.97 128.996 426.595 123.501 426.595 120.532C426.595 114.73 426.248 108.927 426.248 103.091L417.012 89.9161L403.07 89.9844C399.75 89.9844 396.315 91.8961 396.315 96.3671C396.315 103.023 406.534 117.392 410.113 122.887C406.534 125.413 398.249 124.696 398.249 132C398.249 133.399 398.827 134.731 399.75 135.618C400.76 136.539 402.088 137.325 403.214 138.11C406.014 140.158 408.872 142.137 411.642 144.151C410.863 143.23 410.199 142.035 410.199 140.704C410.199 136.301 417.877 133.4 420.879 132.546C423.477 134.492 425.18 135.994 428.384 136.642C424.141 138.997 418.166 142.923 418.166 149.339C418.166 150.124 418.541 152.24 419.09 152.718L433.349 164.323C431.559 162.206 430.635 159.783 430.635 156.814C430.635 146.438 444.778 147.633 447.636 137.803C450.956 135.926 454.015 133.264 456.122 129.646L443.913 120.6ZM411.788 103.739C412.567 103.739 413.317 103.739 414.039 103.739C414.039 107.254 414.241 110.804 414.241 114.32C414.241 117.084 414.299 120.053 412.048 121.624C409.796 118.177 405.207 112.067 405.207 107.664C405.207 103.807 409.046 103.739 411.528 103.739C411.585 103.739 411.701 103.739 411.788 103.739ZM429.366 103.193H455.257L446.05 89.9155H420.274L429.366 103.193ZM428.702 89.9161L437.795 103.193H443.77L443.712 140.157C443.712 147.461 446.05 155.073 451.015 159.715C455.662 164.015 461.117 167.394 466.227 170.841C458.462 162.616 456.066 157.257 456.066 144.697V103.193L446.974 89.9155L428.702 89.9161ZM450.293 89.9161L459.386 103.193H470.527L461.435 89.9161H450.293ZM450.813 89.9161L459.905 103.193H465.881L465.823 140.157C465.823 147.461 468.132 155.073 473.125 159.715C477.773 164.015 483.228 167.394 488.337 170.841C480.573 162.616 478.177 157.257 478.177 144.697V103.193L469.084 89.9155L450.813 89.9161ZM472.403 89.9161L481.496 103.193H492.637L483.544 89.9161H472.403ZM419.61 81.2121C421.342 86.2299 424.459 90.9396 429.453 90.9396C440.132 90.9396 441.259 73.4307 452.083 73.4307C461.579 73.4307 466.428 89.5059 470.672 97.4589C470.73 97.5955 471.191 97.5954 471.336 97.5954C472.259 97.5954 473.183 97.5272 474.107 97.5272V97.4589L473.991 97.2196C469.95 88.8913 456.672 61.2791 447.291 61.2791C435.803 61.2791 432.108 82.2362 422.871 82.2362C421.659 82.2362 420.736 81.8265 419.754 81.2803C419.754 81.281 419.667 81.2121 419.61 81.2121Z" fill="#C14F17"/>
<path d="M263.745 235.745H311.827L286.349 199.007H238.586L263.745 235.745ZM198.891 235.745C197.933 241.978 197.613 248.494 197.613 254.822C197.613 262.85 198.731 270.689 198.731 278.717C198.731 296.944 193.939 303.744 178.525 304.972C175.17 303.933 171.895 303.272 168.541 303.272C158.317 303.272 153.286 310.261 153.286 322.16C153.286 335.854 168.541 369.76 175.01 382.131C225.728 480.918 332.034 559.777 431.232 559.777C460.624 559.777 487.141 553.072 514.456 540.7C546.644 526.345 579.71 502.451 614.773 502.451C617.329 502.451 619.885 502.451 622.52 502.923C629.869 503.962 652.471 514.445 652.791 514.445C652.951 514.445 653.35 514.634 653.35 514.445C653.35 513.973 648.238 508.59 647.998 508.306C630.747 490.551 601.194 477.518 578.033 477.518C576.036 477.518 573.799 477.708 571.803 477.895C541.452 481.862 515.015 496.406 487.141 510.1C456.391 525.022 429.395 534.372 395.77 534.372C310.389 534.372 250.167 490.55 207.357 404.041C200.328 389.969 188.188 362.58 187.15 346.525C191.542 353.703 198.731 357.103 205.839 357.103C219.657 357.103 230.12 345.863 230.12 329.336C230.12 318.948 229.401 308.748 229.401 298.265C229.401 278.715 230.439 235.46 253.602 235.744L228.123 199.005H119.181L144.34 235.744H198.891V235.745ZM241.701 199.007L266.861 235.745H283.393L283.233 338.026C283.233 358.237 289.623 379.297 303.44 392.142C316.299 404.041 331.315 413.391 345.452 422.93C323.966 400.169 317.338 385.341 317.338 350.587V235.744L292.179 199.006L241.701 199.007ZM301.364 199.007L326.524 235.745H357.433L332.274 199.007H301.364ZM323.808 199.007L348.967 235.745H373.727V297.416C364.382 300.911 344.894 309.316 344.894 323.482C344.894 343.22 369.893 365.792 383.152 373.914C390.819 378.636 399.125 382.13 407.591 384.114V322.348C426.68 315.454 446.328 310.448 464.539 300.626C475.721 294.582 486.743 280.888 486.743 265.683C486.743 260.677 485.465 256.144 483.229 251.988L462.702 235.744H486.343L461.184 199.006L323.808 199.007ZM451.679 235.745C451.839 237.445 451.839 239.428 451.839 241.412C451.839 272.861 427.559 276.733 407.591 285.705V235.746H451.679V235.745ZM409.987 199.007L435.146 235.745H451.679L451.44 338.026C451.44 358.237 457.909 379.297 471.646 392.142C484.505 404.041 499.601 413.391 513.738 422.93C492.253 400.169 485.624 385.341 485.624 350.587V235.744L460.465 199.006L409.987 199.007ZM469.65 199.007L494.809 235.745H525.719L500.48 199.007H469.65Z" fill="#C14F17"/>
</svg>
