<svg width="1516" height="382" viewBox="0 0 1516 382" fill="none" xmlns="http://www.w3.org/2000/svg">
<path fill-rule="evenodd" clip-rule="evenodd" d="M64.6381 349.116H40.4675L41.6761 346.808V343.695L42.9578 342.304C42.5184 342.011 42.262 341.754 42.262 341.425C42.262 341.022 42.6649 340.656 43.4339 340.29V338.641L51.6006 305.388C50.9414 305.131 50.5386 304.838 50.5386 304.545C50.5386 304.216 50.9781 303.923 51.7837 303.63V301.249L54.4938 296.159C53.9444 295.939 53.6148 295.719 53.6148 295.499C53.6148 295.206 54.0543 294.95 54.7867 294.73V292.277L58.0461 286.124C57.4602 285.868 57.1306 285.538 57.1306 285.208C57.1306 284.842 57.57 284.476 58.3757 284.146V282.901H60.1336L61.9647 275.467C61.4886 275.32 61.1956 275.1 61.1956 274.881C61.1956 274.624 61.6351 274.368 62.3309 274.221C62.3309 274.221 62.2576 274.148 62.2576 274.075C62.2576 273.928 62.4774 273.782 62.807 273.672C62.7337 273.599 62.6971 273.562 62.6971 273.489C62.6971 273.306 63.0633 273.123 63.6493 273.049L64.6015 265.542L65.5536 273.049C66.1396 273.123 66.5058 273.306 66.5058 273.489C66.5058 273.562 66.4692 273.599 66.3959 273.672C66.7255 273.782 66.9453 273.928 66.9453 274.075L66.872 274.221C67.5678 274.368 68.0073 274.624 68.0073 274.881C68.0073 275.1 67.7143 275.32 67.2382 275.467L69.0693 282.901H70.8272V284.146C71.5963 284.439 72.0724 284.805 72.0724 285.208C72.0724 285.538 71.7428 285.868 71.1568 286.124L74.4162 292.277V294.73C75.1852 294.95 75.5881 295.243 75.5881 295.499C75.5881 295.756 75.2585 295.976 74.7091 296.159L77.4192 301.249V303.63C78.2249 303.923 78.6643 304.216 78.6643 304.545C78.6643 304.838 78.2981 305.131 77.6389 305.388L85.8056 338.641V340.29C86.5747 340.656 86.9775 341.022 86.9775 341.425C86.9775 341.718 86.7578 342.011 86.2817 342.304L87.5635 343.695V346.808L88.772 349.116H64.6381Z" fill="url(#paint0_linear_1_5878)"/>
<path fill-rule="evenodd" clip-rule="evenodd" d="M79.7997 251.368C75.6979 251.295 76.5036 248.805 73.354 248.914C70.2044 249.024 70.7171 248.475 67.714 247.047C65.9561 246.204 65.1138 245.875 64.6743 245.728V257.594C65.6998 257.887 67.6774 258.143 69.3621 256.679C71.7426 254.591 73.0976 257.338 75.0753 255.653C77.0896 253.968 78.0784 253.089 80.8984 253.895C83.7183 254.701 86.282 251.734 86.282 251.734C83.3887 252.467 83.8648 251.441 79.7997 251.368Z" fill="#FF0700"/>
<path d="M64.7478 245.692H64.5647V271.475H64.7478V245.692Z" fill="url(#paint1_linear_1_5878)"/>
<path fill-rule="evenodd" clip-rule="evenodd" d="M381.565 349.116H357.395L358.64 346.808V343.695L359.922 342.304C359.482 342.011 359.226 341.754 359.226 341.425C359.226 341.022 359.629 340.656 360.398 340.29V338.641L368.564 305.388C367.905 305.131 367.539 304.838 367.539 304.545C367.539 304.216 367.979 303.923 368.784 303.63V301.249L371.494 296.159C370.945 295.939 370.615 295.719 370.615 295.499C370.615 295.206 371.055 294.95 371.787 294.73V292.277L375.047 286.124C374.461 285.868 374.131 285.538 374.131 285.208C374.131 284.842 374.571 284.476 375.34 284.146V282.901H377.097L378.929 275.467C378.452 275.32 378.159 275.1 378.159 274.881C378.159 274.624 378.599 274.368 379.295 274.221C379.295 274.221 379.222 274.148 379.222 274.075C379.222 273.928 379.441 273.782 379.771 273.672C379.698 273.599 379.661 273.562 379.661 273.489C379.661 273.306 380.027 273.123 380.613 273.049L381.565 265.542L382.517 273.049C383.103 273.123 383.47 273.306 383.47 273.489C383.47 273.562 383.433 273.599 383.36 273.672C383.689 273.782 383.909 273.928 383.909 274.075L383.836 274.221C384.532 274.368 384.971 274.624 384.971 274.881C384.971 275.1 384.678 275.32 384.202 275.467L386.033 282.901H387.791V284.146C388.56 284.439 389.036 284.805 389.036 285.208C389.036 285.538 388.707 285.868 388.121 286.124L391.38 292.277V294.73C392.149 294.95 392.552 295.243 392.552 295.499C392.552 295.756 392.222 295.976 391.673 296.159L394.383 301.249V303.63C395.189 303.923 395.628 304.216 395.628 304.545C395.628 304.838 395.262 305.131 394.603 305.388L402.769 338.641V340.29C403.539 340.656 403.941 341.022 403.941 341.425C403.941 341.718 403.722 342.011 403.282 342.304L404.564 343.695V346.808L405.772 349.116H381.565Z" fill="url(#paint2_linear_1_5878)"/>
<path fill-rule="evenodd" clip-rule="evenodd" d="M396.727 251.368C392.625 251.295 393.431 248.805 390.281 248.915C387.132 249.025 387.608 248.475 384.641 247.047C382.883 246.205 382.041 245.875 381.602 245.729V257.594C382.627 257.887 384.605 258.144 386.289 256.679C388.67 254.591 390.025 257.338 392.003 255.653C394.017 253.969 395.006 253.09 397.862 253.895C400.682 254.701 403.246 251.735 403.246 251.735C400.316 252.467 400.792 251.442 396.727 251.368Z" fill="#FF0700"/>
<path d="M381.675 245.692H381.492V271.475H381.675V245.692Z" fill="url(#paint3_linear_1_5878)"/>
<path fill-rule="evenodd" clip-rule="evenodd" d="M410.277 359.04H35.8898C33.6924 359.04 31.8979 357.245 31.8979 355.048V350.727C31.8979 348.529 33.6924 346.735 35.8898 346.735H410.277C412.474 346.735 414.269 348.529 414.269 350.727V355.048C414.269 357.282 412.474 359.04 410.277 359.04Z" fill="url(#paint4_linear_1_5878)"/>
<path fill-rule="evenodd" clip-rule="evenodd" d="M428.148 370.32H18.0182C15.8208 370.32 14.0264 368.525 14.0264 366.328V362.007C14.0264 359.809 15.8208 358.015 18.0182 358.015H428.148C430.346 358.015 432.14 359.809 432.14 362.007V366.328C432.14 368.525 430.346 370.32 428.148 370.32Z" fill="url(#paint5_linear_1_5878)"/>
<path fill-rule="evenodd" clip-rule="evenodd" d="M442.175 378.926H3.9918C1.79448 378.926 0 377.132 0 374.935V370.613C0 368.416 1.79448 366.621 3.9918 366.621H442.175C444.372 366.621 446.166 368.416 446.166 370.613V374.935C446.166 377.169 444.372 378.926 442.175 378.926Z" fill="url(#paint6_linear_1_5878)"/>
<path fill-rule="evenodd" clip-rule="evenodd" d="M263.752 81.6202C252.839 81.4005 254.926 74.7351 246.503 75.0647C238.117 75.3943 239.435 73.8561 231.451 70.0473C226.8 67.8133 224.566 66.9344 223.395 66.4949V98.1372C226.141 98.9063 231.451 99.6022 235.919 95.6835C242.255 90.1168 245.844 97.4414 251.191 92.9734C256.537 88.5053 259.248 86.0882 266.792 88.2856C274.299 90.483 281.184 82.5358 281.184 82.5358C273.347 84.5501 274.629 81.84 263.752 81.6202Z" fill="#FF0700"/>
<path d="M223.541 66.4216H222.626V135.273H223.541V66.4216Z" fill="url(#paint7_linear_1_5878)"/>
<path fill-rule="evenodd" clip-rule="evenodd" d="M286.092 339.117C287.557 338.788 288.472 338.238 288.692 337.469C288.985 336.481 288.069 335.126 286.128 333.587C286.531 332.159 286.934 330.767 287.337 329.339C287.264 298.576 284.041 267.373 277.632 236.28C280.562 236.06 282.246 235.621 282.393 234.851C282.539 234.009 280.855 232.837 277.595 231.555C277.962 229.468 278.291 227.38 278.657 225.293C275.544 220.166 272.212 215.075 268.769 210.058C271.37 209.838 272.834 209.435 272.944 208.812C273.054 208.08 271.223 207.091 267.89 206.029C268.183 203.832 268.44 201.671 268.733 199.474C264.375 193.394 259.797 187.388 254.963 181.492C257.893 181.015 259.614 180.356 259.687 179.441C259.797 178.415 257.636 177.243 253.901 176.108C253.974 175.009 254.084 173.874 254.157 172.775C251.227 172.556 248.298 172.336 245.368 172.153C242.731 165.377 239.911 158.602 236.945 151.9C239.472 151.571 241.01 151.094 241.047 150.508C241.083 149.776 238.813 149.043 235.15 148.494C235.334 148.384 235.443 148.274 235.443 148.128C235.443 147.725 234.381 147.322 232.587 146.993C232.99 146.846 233.173 146.7 233.209 146.553C233.209 146.04 231.195 145.564 228.156 145.271C226.654 138.972 225.079 132.673 223.431 126.41V135.127H222.919V125.824C221.234 132.307 219.586 138.789 218.048 145.271C215.008 145.528 213.031 146.04 213.031 146.553C213.031 146.7 213.25 146.883 213.617 146.993C211.822 147.322 210.723 147.725 210.76 148.128C210.76 148.238 210.87 148.384 211.053 148.494C207.391 149.043 205.157 149.813 205.157 150.508C205.194 151.094 206.732 151.571 209.259 151.9C206.292 158.639 203.472 165.377 200.799 172.153C197.869 172.336 194.939 172.519 192.01 172.775C192.083 173.874 192.193 175.009 192.266 176.108C188.494 177.207 186.37 178.415 186.48 179.441C186.553 180.32 188.274 181.015 191.204 181.492C186.37 187.388 181.792 193.394 177.434 199.474C177.727 201.634 177.983 203.832 178.276 206.029C175.017 207.091 173.186 208.08 173.296 208.812C173.406 209.435 174.871 209.838 177.471 210.058C173.992 215.075 170.696 220.166 167.583 225.293C167.949 227.38 168.279 229.468 168.645 231.555C165.385 232.837 163.664 234.009 163.847 234.851C163.994 235.621 165.678 236.097 168.608 236.28C162.199 267.373 159.013 298.576 158.903 329.339C159.306 330.767 159.709 332.159 160.112 333.587C158.134 335.126 157.219 336.481 157.548 337.469C157.768 338.238 158.684 338.751 160.148 339.117C159.27 340.656 158.427 342.23 157.585 343.805C158.391 346.442 159.196 349.079 160.002 351.716C159.526 354.023 159.05 356.33 158.61 358.638C172.746 354.06 187.285 351.569 201.898 350.104V287.442C201.898 275.723 211.419 266.201 223.138 266.201C234.857 266.201 244.379 275.723 244.379 287.442V350.104C258.991 351.606 273.53 354.06 287.666 358.638C287.227 356.33 286.787 354.023 286.275 351.716C287.08 349.079 287.886 346.442 288.692 343.805C287.813 342.23 286.971 340.692 286.092 339.117Z" fill="url(#paint8_linear_1_5878)"/>
<path fill-rule="evenodd" clip-rule="evenodd" d="M146.232 178.964C139.2 178.818 140.519 174.533 135.135 174.753C129.715 174.972 130.558 173.984 125.431 171.53C122.428 170.102 120.999 169.516 120.23 169.259V189.658C121.988 190.134 125.431 190.61 128.324 188.047C132.389 184.458 134.733 189.182 138.175 186.289C141.617 183.396 143.375 181.858 148.209 183.249C153.044 184.678 157.475 179.55 157.475 179.55C152.384 180.869 153.263 179.111 146.232 178.964Z" fill="#FF0700"/>
<path d="M120.304 169.149H119.718V213.537H120.304V169.149Z" fill="url(#paint9_linear_1_5878)"/>
<path fill-rule="evenodd" clip-rule="evenodd" d="M160.624 344.94C161.576 344.721 162.162 344.391 162.309 343.878C162.492 343.219 161.906 342.377 160.661 341.388C160.917 340.472 161.174 339.557 161.43 338.641C161.393 318.792 159.306 298.722 155.168 278.653C157.035 278.543 158.134 278.25 158.244 277.737C158.354 277.188 157.255 276.455 155.131 275.613C155.351 274.258 155.57 272.903 155.827 271.548C153.813 268.252 151.689 264.956 149.455 261.733C151.139 261.586 152.091 261.33 152.128 260.927C152.201 260.451 151.029 259.828 148.869 259.132C149.052 257.741 149.235 256.312 149.418 254.921C146.635 251.002 143.668 247.12 140.555 243.311C142.46 243.018 143.558 242.579 143.595 241.993C143.668 241.334 142.277 240.565 139.86 239.832C139.933 239.1 139.969 238.404 140.043 237.671C138.175 237.525 136.271 237.378 134.366 237.268C132.645 232.91 130.851 228.552 128.946 224.231C130.594 224.011 131.583 223.718 131.583 223.352C131.62 222.876 130.155 222.4 127.774 222.033C127.884 221.96 127.994 221.887 127.994 221.814C127.994 221.557 127.298 221.301 126.163 221.081C126.419 221.008 126.529 220.898 126.566 220.788C126.566 220.458 125.284 220.165 123.306 219.982C122.354 215.917 121.329 211.889 120.267 207.824V213.427H119.901V207.457C118.802 211.632 117.776 215.807 116.751 219.982C114.81 220.165 113.492 220.495 113.528 220.788C113.528 220.898 113.675 221.008 113.931 221.081C112.759 221.301 112.063 221.557 112.1 221.814C112.1 221.887 112.173 221.96 112.283 222.033C109.939 222.4 108.475 222.876 108.475 223.352C108.475 223.718 109.463 224.011 111.111 224.231C109.207 228.552 107.376 232.91 105.655 237.268C103.75 237.378 101.883 237.525 99.9782 237.671C100.051 238.404 100.088 239.1 100.161 239.832C97.7442 240.565 96.3526 241.297 96.4258 241.993C96.4991 242.579 97.5977 242.982 99.5021 243.311C96.3892 247.12 93.4228 251.002 90.6029 254.921C90.786 256.312 90.9692 257.741 91.1523 259.132C88.9916 259.828 87.8197 260.451 87.8929 260.927C87.9662 261.33 88.9183 261.586 90.5663 261.733C88.3324 264.992 86.2083 268.252 84.1941 271.548C84.4138 272.903 84.6335 274.258 84.8533 275.613C82.7658 276.455 81.6672 277.188 81.7404 277.737C81.8503 278.25 82.9123 278.543 84.8167 278.653C80.6784 298.685 78.6275 318.792 78.5543 338.641C78.8106 339.557 79.067 340.472 79.3233 341.388C78.0416 342.377 77.4556 343.256 77.6754 343.878C77.8218 344.354 78.4078 344.721 79.36 344.94C78.774 345.929 78.2613 346.955 77.712 347.944C78.2247 349.628 78.774 351.349 79.2867 353.034C78.9571 354.536 78.6641 356.001 78.4078 357.502C87.5267 354.536 96.8653 352.961 106.314 351.972V311.577C106.314 304.032 112.43 297.88 120.01 297.88C127.591 297.88 133.707 303.996 133.707 311.577V351.972C143.119 352.924 152.494 354.536 161.613 357.502C161.32 356.001 161.027 354.536 160.734 353.034C161.247 351.349 161.76 349.628 162.309 347.944C161.76 346.955 161.21 345.929 160.624 344.94Z" fill="url(#paint10_linear_1_5878)"/>
<path fill-rule="evenodd" clip-rule="evenodd" d="M352.377 178.964C345.345 178.818 346.7 174.533 341.28 174.753C335.86 174.972 336.703 173.984 331.576 171.53C328.573 170.102 327.144 169.516 326.375 169.259V189.658C328.133 190.134 331.576 190.61 334.469 188.047C338.534 184.458 340.878 189.182 344.32 186.289C347.763 183.396 349.52 181.858 354.354 183.249C359.189 184.678 363.62 179.55 363.62 179.55C358.566 180.869 359.408 179.111 352.377 178.964Z" fill="#FF0700"/>
<path d="M326.449 169.149H325.863V213.537H326.449V169.149Z" fill="url(#paint11_linear_1_5878)"/>
<path fill-rule="evenodd" clip-rule="evenodd" d="M366.77 344.94C367.722 344.721 368.308 344.391 368.454 343.878C368.638 343.219 368.052 342.377 366.806 341.388C367.063 340.472 367.319 339.557 367.576 338.641C367.539 318.792 365.451 298.722 361.313 278.653C363.181 278.543 364.28 278.25 364.389 277.737C364.499 277.188 363.401 276.455 361.277 275.613C361.496 274.258 361.716 272.903 361.972 271.548C359.958 268.252 357.834 264.956 355.6 261.733C357.285 261.586 358.237 261.33 358.273 260.927C358.347 260.451 357.175 259.828 355.014 259.132C355.197 257.741 355.38 256.312 355.563 254.921C352.78 251.002 349.814 247.12 346.701 243.311C348.569 243.018 349.704 242.579 349.741 241.993C349.814 241.334 348.422 240.565 346.005 239.832C346.078 239.1 346.115 238.404 346.188 237.671C344.284 237.525 342.416 237.378 340.512 237.268C338.791 232.91 336.996 228.552 335.092 224.231C336.703 224.011 337.729 223.718 337.729 223.352C337.729 222.876 336.3 222.4 333.92 222.033C334.03 221.96 334.103 221.887 334.14 221.814C334.14 221.557 333.444 221.301 332.272 221.081C332.528 221.008 332.675 220.898 332.675 220.788C332.675 220.458 331.393 220.165 329.415 219.982C328.463 215.917 327.438 211.889 326.376 207.824V213.427H326.046V207.457C324.947 211.632 323.885 215.807 322.897 219.982C320.956 220.165 319.637 220.495 319.674 220.788C319.674 220.898 319.82 221.008 320.077 221.081C318.905 221.301 318.209 221.557 318.246 221.814C318.246 221.887 318.319 221.96 318.429 222.033C316.085 222.4 314.62 222.876 314.62 223.352C314.62 223.718 315.645 224.011 317.257 224.231C315.352 228.552 313.521 232.91 311.8 237.268C309.896 237.378 308.028 237.525 306.124 237.671C306.197 238.404 306.234 239.1 306.307 239.832C303.89 240.565 302.498 241.297 302.571 241.993C302.645 242.579 303.743 242.982 305.611 243.311C302.498 247.12 299.532 251.002 296.712 254.921C296.895 256.312 297.078 257.741 297.261 259.132C295.1 259.828 293.929 260.451 294.002 260.927C294.075 261.33 295.027 261.586 296.675 261.733C294.441 264.992 292.317 268.252 290.303 271.548C290.523 272.903 290.742 274.258 290.962 275.613C288.875 276.455 287.776 277.188 287.849 277.737C287.959 278.25 289.021 278.543 290.926 278.653C286.787 298.685 284.736 318.792 284.7 338.641C284.956 339.557 285.213 340.472 285.469 341.388C284.187 342.377 283.601 343.256 283.821 343.878C283.967 344.354 284.553 344.721 285.505 344.94C284.92 345.929 284.37 346.955 283.857 347.944C284.37 349.628 284.883 351.349 285.432 353.034C285.103 354.536 284.81 356.001 284.553 357.502C293.672 354.536 303.047 352.961 312.459 351.972V311.577C312.459 304.032 318.575 297.88 326.156 297.88C333.7 297.88 339.853 303.996 339.853 311.577V351.972C349.264 352.924 358.64 354.536 367.759 357.502C367.502 356.001 367.173 354.536 366.88 353.034C367.392 351.349 367.905 349.628 368.454 347.944C367.905 346.955 367.356 345.929 366.77 344.94Z" fill="url(#paint12_linear_1_5878)"/>
<path fill-rule="evenodd" clip-rule="evenodd" d="M1133.68 349.116H1109.51L1110.72 346.808V343.695L1112 342.304C1111.57 342.011 1111.31 341.754 1111.31 341.425C1111.31 341.022 1111.71 340.656 1112.48 340.29V338.641L1120.65 305.388C1119.99 305.131 1119.62 304.838 1119.62 304.545C1119.62 304.216 1120.06 303.923 1120.87 303.63V301.249L1123.58 296.159C1123.03 295.939 1122.7 295.719 1122.7 295.499C1122.7 295.206 1123.14 294.95 1123.87 294.73V292.277L1127.13 286.124C1126.54 285.868 1126.21 285.538 1126.21 285.208C1126.21 284.842 1126.65 284.476 1127.46 284.146V282.901H1129.22L1131.05 275.467C1130.57 275.32 1130.28 275.1 1130.28 274.881C1130.28 274.624 1130.72 274.368 1131.41 274.221C1131.41 274.221 1131.34 274.148 1131.34 274.075C1131.34 273.928 1131.56 273.782 1131.89 273.672C1131.82 273.599 1131.78 273.562 1131.78 273.489C1131.78 273.306 1132.15 273.123 1132.73 273.049L1133.68 265.542L1134.64 273.049C1135.19 273.123 1135.59 273.306 1135.59 273.489C1135.59 273.562 1135.55 273.599 1135.48 273.672C1135.81 273.782 1136.03 273.928 1136.03 274.075L1135.96 274.221C1136.65 274.368 1137.09 274.624 1137.09 274.881C1137.09 275.1 1136.8 275.32 1136.32 275.467L1138.15 282.901H1139.91V284.146C1140.68 284.439 1141.12 284.805 1141.12 285.208C1141.12 285.538 1140.79 285.868 1140.2 286.124L1143.46 292.277V294.73C1144.23 294.95 1144.63 295.243 1144.63 295.499C1144.63 295.756 1144.31 295.976 1143.76 296.159L1146.47 301.249V303.63C1147.27 303.923 1147.71 304.216 1147.71 304.545C1147.71 304.838 1147.34 305.131 1146.65 305.388L1154.82 338.641V340.29C1155.58 340.656 1155.99 341.022 1155.99 341.425C1155.99 341.718 1155.77 342.011 1155.29 342.304L1156.57 343.695V346.808L1157.78 349.116H1133.68Z" fill="url(#paint13_linear_1_5878)"/>
<path fill-rule="evenodd" clip-rule="evenodd" d="M1148.88 251.368C1144.78 251.295 1145.59 248.805 1142.44 248.915C1139.29 249.025 1139.8 248.475 1136.8 247.047C1135.04 246.205 1134.2 245.875 1133.76 245.729V257.594C1134.78 257.887 1136.8 258.144 1138.45 256.679C1140.83 254.591 1142.14 257.338 1144.16 255.653C1146.17 253.969 1147.16 253.09 1149.98 253.895C1152.8 254.701 1155.36 251.735 1155.36 251.735C1152.47 252.467 1152.95 251.442 1148.88 251.368Z" fill="#FF0700"/>
<path d="M1133.83 245.692H1133.65V271.475H1133.83V245.692Z" fill="url(#paint14_linear_1_5878)"/>
<path fill-rule="evenodd" clip-rule="evenodd" d="M1450.61 349.116H1426.44L1427.69 346.809V343.696L1428.97 342.304C1428.53 342.011 1428.27 341.755 1428.27 341.425C1428.27 341.022 1428.68 340.656 1429.44 340.29V338.642L1437.61 305.388C1436.95 305.132 1436.59 304.839 1436.59 304.546C1436.59 304.216 1437.03 303.923 1437.83 303.63V301.25L1440.54 296.159C1439.99 295.939 1439.66 295.719 1439.66 295.5C1439.66 295.207 1440.1 294.95 1440.83 294.731V292.277L1444.09 286.124C1443.51 285.868 1443.18 285.538 1443.18 285.209C1443.18 284.842 1443.62 284.476 1444.39 284.147V282.901H1446.14L1447.98 275.467C1447.5 275.32 1447.21 275.101 1447.21 274.881C1447.21 274.624 1447.65 274.368 1448.34 274.222C1448.34 274.222 1448.27 274.148 1448.27 274.075C1448.27 273.929 1448.49 273.782 1448.82 273.672C1448.74 273.599 1448.71 273.562 1448.71 273.489C1448.71 273.306 1449.07 273.123 1449.66 273.05L1450.61 265.542L1451.56 272.976C1452.15 273.05 1452.52 273.233 1452.52 273.416C1452.52 273.489 1452.48 273.526 1452.41 273.599C1452.74 273.709 1452.96 273.855 1452.96 274.002L1452.88 274.148C1453.58 274.295 1454.02 274.551 1454.02 274.808C1454.02 275.027 1453.72 275.247 1453.25 275.394L1455.08 282.828H1456.84V284.073C1457.61 284.366 1458.08 284.732 1458.08 285.135C1458.08 285.465 1457.75 285.795 1457.17 286.051L1460.43 292.204V294.657C1461.16 294.877 1461.6 295.17 1461.6 295.426C1461.6 295.683 1461.31 295.903 1460.72 296.086L1463.43 301.176V303.557C1464.24 303.85 1464.67 304.143 1464.67 304.472C1464.67 304.765 1464.31 305.058 1463.65 305.315L1471.82 338.568V340.216C1472.59 340.583 1472.99 340.949 1472.99 341.352C1472.99 341.645 1472.73 341.938 1472.29 342.231L1473.57 343.622V346.735L1474.78 349.043H1450.61V349.116Z" fill="url(#paint15_linear_1_5878)"/>
<path fill-rule="evenodd" clip-rule="evenodd" d="M1465.81 251.369C1461.71 251.295 1462.51 248.805 1459.36 248.915C1456.22 249.025 1456.69 248.475 1453.72 247.047C1451.97 246.205 1451.12 245.875 1450.69 245.729V257.595C1451.71 257.888 1453.69 258.144 1455.37 256.679C1457.75 254.592 1459.07 257.338 1461.09 255.654C1463.1 253.969 1464.09 253.09 1466.95 253.896C1469.77 254.701 1472.33 251.735 1472.33 251.735C1469.4 252.467 1469.88 251.442 1465.81 251.369Z" fill="#FF0700"/>
<path d="M1450.76 245.692H1450.58V271.475H1450.76V245.692Z" fill="url(#paint16_linear_1_5878)"/>
<path fill-rule="evenodd" clip-rule="evenodd" d="M1479.36 359.04H1104.97C1102.78 359.04 1100.98 357.245 1100.98 355.048V350.727C1100.98 348.529 1102.78 346.735 1104.97 346.735H1479.36C1481.56 346.735 1483.35 348.529 1483.35 350.727V355.048C1483.32 357.282 1481.56 359.04 1479.36 359.04Z" fill="url(#paint17_linear_1_5878)"/>
<path fill-rule="evenodd" clip-rule="evenodd" d="M1497.23 370.32H1087.1C1084.9 370.32 1083.11 368.525 1083.11 366.328V362.007C1083.11 359.809 1084.9 358.015 1087.1 358.015H1497.23C1499.43 358.015 1501.22 359.809 1501.22 362.007V366.328C1501.22 368.525 1499.43 370.32 1497.23 370.32Z" fill="url(#paint18_linear_1_5878)"/>
<path fill-rule="evenodd" clip-rule="evenodd" d="M1511.26 378.926H1073.08C1070.88 378.926 1069.08 377.132 1069.08 374.935V370.613C1069.08 368.416 1070.88 366.621 1073.08 366.621H1511.26C1513.46 366.621 1515.25 368.416 1515.25 370.613V374.935C1515.25 377.169 1513.46 378.926 1511.26 378.926Z" fill="url(#paint19_linear_1_5878)"/>
<path fill-rule="evenodd" clip-rule="evenodd" d="M1332.8 81.6202C1321.89 81.4005 1323.97 74.7351 1315.55 75.0647C1307.16 75.3943 1308.48 73.8561 1300.5 70.0473C1295.85 67.8133 1293.61 66.9344 1292.44 66.4949V98.1372C1295.19 98.9063 1300.5 99.6022 1304.97 95.6835C1311.3 90.1168 1314.89 97.4414 1320.24 92.9734C1325.58 88.5053 1328.29 86.0882 1335.84 88.2856C1343.35 90.483 1350.23 82.5358 1350.23 82.5358C1342.39 84.5501 1343.71 81.84 1332.8 81.6202Z" fill="#FF0700"/>
<path d="M1292.62 66.4216H1291.71V135.273H1292.62V66.4216Z" fill="url(#paint20_linear_1_5878)"/>
<path fill-rule="evenodd" clip-rule="evenodd" d="M1355.17 339.117C1356.64 338.788 1357.56 338.238 1357.77 337.469C1358.07 336.481 1357.19 335.126 1355.21 333.587C1355.61 332.159 1356.02 330.767 1356.42 329.339C1356.35 298.576 1353.12 267.373 1346.72 236.28C1349.64 236.06 1351.33 235.621 1351.48 234.851C1351.62 234.009 1349.94 232.837 1346.68 231.555C1347.04 229.468 1347.37 227.38 1347.74 225.293C1344.63 220.166 1341.29 215.075 1337.85 210.058C1340.45 209.838 1341.92 209.435 1342.03 208.812C1342.14 208.08 1340.31 207.091 1336.97 206.029C1337.27 203.832 1337.52 201.671 1337.82 199.474C1333.46 193.394 1328.88 187.388 1324.05 181.492C1326.98 181.015 1328.7 180.356 1328.77 179.441C1328.88 178.415 1326.72 177.243 1322.95 176.108C1323.02 175.009 1323.13 173.874 1323.2 172.775C1320.27 172.556 1317.34 172.336 1314.41 172.153C1311.74 165.377 1308.96 158.602 1305.99 151.9C1308.52 151.571 1310.06 151.094 1310.09 150.508C1310.13 149.776 1307.86 149.043 1304.2 148.494C1304.38 148.384 1304.49 148.274 1304.53 148.128C1304.53 147.725 1303.46 147.322 1301.67 146.993C1302.07 146.846 1302.26 146.7 1302.29 146.553C1302.29 146.04 1300.28 145.564 1297.28 145.271C1295.77 138.972 1294.2 132.673 1292.55 126.41V135.127H1292.07V125.824C1290.39 132.307 1288.74 138.789 1287.2 145.271C1284.16 145.528 1282.15 146.04 1282.19 146.553C1282.19 146.7 1282.41 146.883 1282.81 146.993C1281.01 147.322 1279.92 147.725 1279.95 148.128C1279.95 148.238 1280.06 148.384 1280.25 148.494C1276.58 149.043 1274.35 149.813 1274.35 150.508C1274.39 151.094 1275.92 151.571 1278.45 151.9C1275.49 158.639 1272.67 165.377 1269.99 172.153C1267.06 172.336 1264.13 172.519 1261.2 172.775C1261.28 173.874 1261.39 175.009 1261.46 176.108C1257.69 177.207 1255.56 178.415 1255.67 179.441C1255.75 180.32 1257.47 181.015 1260.4 181.492C1255.56 187.388 1250.98 193.394 1246.63 199.474C1246.88 201.634 1247.18 203.832 1247.47 206.029C1244.14 207.091 1242.31 208.08 1242.42 208.812C1242.49 209.435 1243.99 209.838 1246.59 210.058C1243.11 215.075 1239.82 220.166 1236.7 225.293C1237.03 227.38 1237.4 229.468 1237.76 231.555C1234.5 232.837 1232.78 234.009 1232.93 234.851C1233.08 235.621 1234.76 236.097 1237.69 236.28C1231.28 267.373 1228.06 298.576 1227.99 329.339C1228.39 330.767 1228.79 332.159 1229.19 333.587C1227.22 335.126 1226.3 336.481 1226.63 337.469C1226.85 338.238 1227.77 338.751 1229.23 339.117C1228.35 340.656 1227.51 342.23 1226.67 343.805C1227.47 346.442 1228.28 349.079 1229.08 351.716C1228.61 354.023 1228.13 356.33 1227.69 358.638C1241.83 354.06 1256.33 351.569 1270.98 350.104V287.442C1270.98 275.723 1280.5 266.201 1292.22 266.201C1303.94 266.201 1313.46 275.723 1313.46 287.442V350.104C1328.07 351.606 1342.61 354.06 1356.75 358.638C1356.31 356.33 1355.87 354.023 1355.36 351.716C1356.16 349.079 1356.97 346.442 1357.77 343.805C1356.9 342.23 1356.05 340.692 1355.17 339.117Z" fill="url(#paint21_linear_1_5878)"/>
<path fill-rule="evenodd" clip-rule="evenodd" d="M1215.28 178.964C1208.25 178.818 1209.57 174.533 1204.18 174.753C1198.76 174.972 1199.6 173.984 1194.48 171.53C1191.47 170.102 1190.01 169.516 1189.28 169.259V189.658C1191.03 190.134 1194.48 190.61 1197.37 188.047C1201.43 184.458 1203.78 189.182 1207.22 186.289C1210.66 183.396 1212.42 181.858 1217.26 183.249C1222.09 184.678 1226.52 179.55 1226.52 179.55C1221.47 180.869 1222.31 179.111 1215.28 178.964Z" fill="#FF0700"/>
<path d="M1189.39 169.149H1188.8V213.537H1189.39V169.149Z" fill="url(#paint22_linear_1_5878)"/>
<path fill-rule="evenodd" clip-rule="evenodd" d="M1229.71 344.94C1230.66 344.72 1231.25 344.391 1231.39 343.878C1231.58 343.219 1230.99 342.377 1229.74 341.388C1230 340.472 1230.26 339.557 1230.51 338.641C1230.48 318.791 1228.39 298.722 1224.25 278.652C1226.12 278.542 1227.22 278.25 1227.33 277.737C1227.44 277.187 1226.34 276.455 1224.21 275.613C1224.43 274.258 1224.65 272.903 1224.87 271.547C1222.86 268.251 1220.74 264.955 1218.5 261.732C1220.19 261.586 1221.14 261.33 1221.17 260.927C1221.25 260.451 1220.08 259.828 1217.92 259.132C1218.1 257.741 1218.28 256.312 1218.46 254.921C1215.68 251.002 1212.71 247.12 1209.6 243.311C1211.51 243.018 1212.61 242.579 1212.64 241.993C1212.71 241.333 1211.32 240.564 1208.91 239.832C1208.94 239.099 1209.02 238.404 1209.09 237.671C1207.22 237.525 1205.32 237.378 1203.41 237.268C1201.69 232.91 1199.9 228.552 1197.99 224.23C1199.64 224.011 1200.63 223.718 1200.63 223.351C1200.67 222.875 1199.2 222.399 1196.82 222.033C1196.93 221.96 1197.04 221.887 1197.04 221.813C1197.04 221.557 1196.34 221.301 1195.21 221.081C1195.47 221.008 1195.58 220.898 1195.61 220.788C1195.61 220.458 1194.33 220.165 1192.35 219.982C1191.4 215.917 1190.38 211.888 1189.31 207.823V213.427H1188.98V207.457C1187.89 211.632 1186.86 215.807 1185.83 219.982C1183.89 220.165 1182.57 220.495 1182.61 220.788C1182.61 220.898 1182.76 221.008 1183.01 221.081C1181.84 221.301 1181.15 221.557 1181.18 221.813C1181.18 221.887 1181.26 221.96 1181.37 222.033C1179.02 222.399 1177.56 222.875 1177.56 223.351C1177.56 223.718 1178.55 224.011 1180.19 224.23C1178.29 228.552 1176.46 232.91 1174.74 237.268C1172.83 237.378 1170.97 237.525 1169.06 237.671C1169.13 238.404 1169.17 239.099 1169.24 239.832C1166.83 240.564 1165.44 241.297 1165.51 241.993C1165.58 242.579 1166.68 242.981 1168.55 243.311C1165.44 247.12 1162.47 251.002 1159.65 254.921C1159.83 256.312 1160.02 257.741 1160.2 259.132C1158.04 259.828 1156.87 260.451 1156.94 260.927C1157.01 261.33 1157.96 261.586 1159.61 261.732C1157.38 264.992 1155.25 268.251 1153.24 271.547C1153.46 272.903 1153.68 274.258 1153.9 275.613C1151.81 276.455 1150.71 277.187 1150.79 277.737C1150.9 278.25 1151.96 278.542 1153.86 278.652C1149.72 298.685 1147.67 318.791 1147.6 338.641C1147.86 339.557 1148.11 340.472 1148.37 341.388C1147.09 342.377 1146.5 343.256 1146.72 343.878C1146.87 344.354 1147.45 344.72 1148.41 344.94C1147.86 345.929 1147.31 346.954 1146.76 347.943C1147.27 349.628 1147.78 351.349 1148.33 353.034C1148 354.535 1147.71 356 1147.45 357.502C1156.57 354.535 1165.91 352.961 1175.36 351.972V311.577C1175.36 304.032 1181.48 297.879 1189.06 297.879C1196.64 297.879 1202.75 303.996 1202.75 311.577V351.972C1212.17 352.924 1221.54 354.535 1230.66 357.502C1230.37 356 1230.07 354.535 1229.78 353.034C1230.29 351.349 1230.81 349.628 1231.36 347.943C1230.81 346.954 1230.26 345.929 1229.71 344.94Z" fill="url(#paint23_linear_1_5878)"/>
<path fill-rule="evenodd" clip-rule="evenodd" d="M1421.42 178.964C1414.39 178.818 1415.75 174.533 1410.33 174.753C1404.91 174.972 1405.75 173.984 1400.62 171.53C1397.62 170.102 1396.19 169.516 1395.42 169.259V189.658C1397.18 190.134 1400.62 190.61 1403.52 188.047C1407.58 184.458 1409.93 189.182 1413.37 186.289C1416.81 183.396 1418.57 181.858 1423.4 183.249C1428.24 184.678 1432.67 179.55 1432.67 179.55C1427.61 180.869 1428.46 179.111 1421.42 178.964Z" fill="#FF0700"/>
<path d="M1395.53 169.149H1394.95V213.537H1395.53V169.149Z" fill="url(#paint24_linear_1_5878)"/>
<path fill-rule="evenodd" clip-rule="evenodd" d="M1435.85 344.94C1436.81 344.72 1437.39 344.391 1437.54 343.878C1437.76 343.219 1437.14 342.377 1435.89 341.388C1436.15 340.472 1436.4 339.557 1436.66 338.641C1436.62 318.791 1434.53 298.722 1430.4 278.652C1432.26 278.542 1433.36 278.25 1433.47 277.737C1433.58 277.187 1432.48 276.455 1430.36 275.613C1430.58 274.258 1430.8 272.903 1431.06 271.547C1429.04 268.251 1426.92 264.955 1424.68 261.732C1426.37 261.586 1427.32 261.33 1427.36 260.927C1427.43 260.451 1426.26 259.828 1424.1 259.132C1424.28 257.741 1424.46 256.312 1424.65 254.921C1421.83 251.002 1418.9 247.12 1415.78 243.311C1417.65 243.018 1418.79 242.579 1418.82 241.993C1418.9 241.333 1417.51 240.564 1415.09 239.832C1415.16 239.099 1415.2 238.404 1415.27 237.671C1413.37 237.525 1411.5 237.378 1409.6 237.268C1407.87 232.91 1406.08 228.552 1404.18 224.23C1405.79 224.011 1406.81 223.718 1406.81 223.351C1406.85 222.875 1405.38 222.399 1403 222.033C1403.11 221.96 1403.22 221.887 1403.22 221.813C1403.22 221.557 1402.53 221.301 1401.36 221.081C1401.61 221.008 1401.76 220.898 1401.76 220.788C1401.76 220.458 1400.48 220.165 1398.5 219.982C1397.55 215.917 1396.52 211.888 1395.46 207.823V213.427H1395.17V207.457C1394.07 211.632 1393.01 215.807 1392.02 219.982C1390.08 220.165 1388.76 220.495 1388.79 220.788C1388.79 220.898 1388.94 221.008 1389.2 221.081C1388.02 221.301 1387.33 221.557 1387.33 221.813C1387.33 221.887 1387.4 221.96 1387.51 222.033C1385.17 222.399 1383.7 222.875 1383.7 223.351C1383.7 223.718 1384.73 224.011 1386.34 224.23C1384.44 228.552 1382.6 232.91 1380.88 237.268C1378.98 237.378 1377.11 237.525 1375.21 237.671C1375.28 238.404 1375.32 239.099 1375.39 239.832C1372.97 240.564 1371.58 241.297 1371.65 241.993C1371.69 242.579 1372.83 242.981 1374.69 243.311C1371.58 247.12 1368.62 251.002 1365.83 254.921C1366.02 256.312 1366.2 257.741 1366.38 259.132C1364.22 259.828 1363.05 260.451 1363.12 260.927C1363.2 261.33 1364.15 261.586 1365.8 261.732C1363.56 264.992 1361.44 268.251 1359.42 271.547C1359.64 272.903 1359.86 274.258 1360.08 275.613C1357.99 276.455 1356.9 277.187 1356.97 277.737C1357.08 278.25 1358.14 278.542 1360.05 278.652C1355.91 298.685 1353.86 318.791 1353.82 338.641C1354.08 339.557 1354.33 340.472 1354.59 341.388C1353.31 342.377 1352.72 343.256 1352.9 343.878C1353.05 344.354 1353.64 344.72 1354.59 344.94C1354.04 345.929 1353.49 346.954 1352.94 347.943C1353.45 349.628 1354 351.349 1354.52 353.034C1354.19 354.535 1353.89 356 1353.64 357.502C1362.76 354.535 1372.13 352.961 1381.54 351.972V311.577C1381.54 304.032 1387.66 297.879 1395.24 297.879C1402.82 297.879 1408.94 303.996 1408.94 311.577V351.972C1418.35 352.924 1427.72 354.535 1436.84 357.502C1436.55 356 1436.26 354.535 1435.96 353.034C1436.48 351.349 1436.99 349.628 1437.54 347.943C1436.95 346.954 1436.4 345.929 1435.85 344.94Z" fill="url(#paint25_linear_1_5878)"/>
<path fill-rule="evenodd" clip-rule="evenodd" d="M646.914 346.648H593.256L595.974 341.511V334.617L598.824 331.502C597.83 330.872 597.299 330.242 597.299 329.579C597.299 328.718 598.227 327.856 599.918 327.061V323.382L618.047 249.538C616.555 248.974 615.727 248.345 615.727 247.682C615.727 246.953 616.721 246.29 618.477 245.66V240.357L624.476 229.022C623.217 228.558 622.554 228.061 622.554 227.53C622.554 226.901 623.515 226.337 625.172 225.807V220.338L632.43 206.65C631.105 206.053 630.376 205.357 630.376 204.595C630.376 203.733 631.403 202.938 633.126 202.275V199.491H637.037L641.114 182.986C640.053 182.621 639.423 182.19 639.423 181.693C639.423 181.096 640.385 180.566 641.909 180.202C641.843 180.102 641.777 180.003 641.777 179.903C641.777 179.572 642.241 179.24 643.003 179.008C642.837 178.909 642.771 178.743 642.771 178.611C642.771 178.18 643.599 177.815 644.859 177.616L646.947 160.945L649.035 177.616C650.294 177.815 651.156 178.18 651.156 178.611C651.156 178.743 651.057 178.876 650.891 179.008C651.653 179.24 652.117 179.572 652.117 179.903C652.117 180.003 652.084 180.102 651.985 180.202C653.509 180.566 654.503 181.096 654.503 181.693C654.503 182.19 653.874 182.621 652.78 182.986L656.823 199.491H660.734V202.275C662.458 202.938 663.452 203.733 663.452 204.595C663.452 205.324 662.69 206.02 661.397 206.65L668.622 220.338V225.807C670.279 226.337 671.24 226.901 671.24 227.53C671.24 228.061 670.544 228.558 669.318 229.022L675.317 240.357V245.66C677.073 246.29 678.068 246.953 678.068 247.682C678.068 248.345 677.239 248.974 675.748 249.538L693.877 323.382V327.061C695.567 327.856 696.495 328.685 696.495 329.579C696.495 330.242 695.965 330.872 694.97 331.502L697.821 334.617V341.511L700.538 346.648H646.914Z" fill="url(#paint26_linear_1_5878)"/>
<path fill-rule="evenodd" clip-rule="evenodd" d="M680.587 129.757C671.506 129.591 673.229 124.056 666.236 124.321C659.243 124.587 660.337 123.327 653.741 120.145C649.863 118.289 648.007 117.527 647.013 117.196V143.512C649.3 144.141 653.708 144.738 657.453 141.457C662.723 136.817 665.706 142.915 670.147 139.203C674.588 135.491 676.842 133.502 683.105 135.292C689.369 137.115 695.07 130.486 695.07 130.486C688.574 132.21 689.668 129.923 680.587 129.757Z" fill="#FF0700"/>
<path d="M647.179 117.096H646.781V174.335H647.179V117.096Z" fill="url(#paint27_linear_1_5878)"/>
<path fill-rule="evenodd" clip-rule="evenodd" d="M868.704 346.648H815.046L817.764 341.511V334.617L820.614 331.502C819.62 330.872 819.09 330.242 819.09 329.579C819.09 328.718 820.018 327.856 821.708 327.061V323.382L839.837 249.538C838.345 248.974 837.517 248.345 837.517 247.682C837.517 246.953 838.511 246.29 840.268 245.66V240.357L846.267 229.022C845.04 228.558 844.344 228.061 844.344 227.53C844.344 226.901 845.272 226.337 846.962 225.807V220.338L854.221 206.65C852.895 206.053 852.166 205.357 852.166 204.595C852.166 203.733 853.193 202.938 854.917 202.275V199.491H858.828L862.871 182.986C861.81 182.621 861.181 182.19 861.181 181.693C861.181 181.096 862.142 180.566 863.666 180.202C863.6 180.102 863.534 180.003 863.534 179.903C863.534 179.572 863.998 179.24 864.727 179.008C864.561 178.909 864.495 178.743 864.495 178.611C864.495 178.18 865.357 177.815 866.583 177.616L868.671 160.945L870.759 177.616C872.018 177.815 872.88 178.18 872.88 178.611C872.88 178.743 872.781 178.876 872.648 179.008C873.41 179.24 873.874 179.572 873.874 179.903C873.874 180.003 873.808 180.102 873.742 180.202C875.266 180.566 876.261 181.096 876.261 181.693C876.261 182.19 875.631 182.621 874.57 182.986L878.614 199.491H882.524V202.275C884.248 202.938 885.242 203.733 885.242 204.595C885.242 205.324 884.513 206.02 883.187 206.65L890.412 220.338V225.807C892.103 226.337 893.031 226.901 893.031 227.53C893.031 228.061 892.335 228.558 891.108 229.022L897.107 240.357V245.66C898.864 246.29 899.858 246.953 899.858 247.682C899.858 248.345 899.029 248.974 897.538 249.538L915.667 323.382V327.061C917.357 327.856 918.285 328.685 918.285 329.579C918.285 330.242 917.755 330.872 916.761 331.502L919.611 334.617V341.511L922.329 346.648H868.704Z" fill="url(#paint28_linear_1_5878)"/>
<path fill-rule="evenodd" clip-rule="evenodd" d="M902.377 129.757C893.296 129.591 895.019 124.056 888.059 124.321C881.066 124.587 882.16 123.327 875.565 120.145C871.687 118.289 869.831 117.527 868.87 117.196V143.512C871.157 144.141 875.565 144.738 879.31 141.457C884.579 136.817 887.562 142.915 892.003 139.203C896.445 135.491 898.698 133.502 904.962 135.292C911.226 137.115 916.927 130.486 916.927 130.486C910.331 132.21 911.425 129.923 902.377 129.757Z" fill="#FF0700"/>
<path d="M868.936 117.096H868.538V174.335H868.936V117.096Z" fill="url(#paint29_linear_1_5878)"/>
<path fill-rule="evenodd" clip-rule="evenodd" d="M1040.05 357.751H475.566C472.915 357.751 470.76 355.597 470.76 352.946V347.709C470.76 345.057 472.915 342.903 475.566 342.903H1040.08C1042.74 342.903 1044.89 345.057 1044.89 347.709V352.946C1044.89 355.597 1042.74 357.751 1040.05 357.751Z" fill="url(#paint30_linear_1_5878)"/>
<path fill-rule="evenodd" clip-rule="evenodd" d="M1061.69 371.373H453.924C451.273 371.373 449.118 369.219 449.118 366.567V361.331C449.118 358.679 451.273 356.525 453.924 356.525H1061.66C1064.31 356.525 1066.47 358.679 1066.47 361.331V366.567C1066.5 369.219 1064.34 371.373 1061.69 371.373Z" fill="url(#paint31_linear_1_5878)"/>
<path fill-rule="evenodd" clip-rule="evenodd" d="M1078.63 381.78H436.989C434.337 381.78 432.183 379.626 432.183 376.974V371.738C432.183 369.086 434.337 366.932 436.989 366.932H1078.63C1081.28 366.932 1083.43 369.086 1083.43 371.738V376.974C1083.43 379.626 1081.28 381.78 1078.63 381.78Z" fill="url(#paint32_linear_1_5878)"/>
<path fill-rule="evenodd" clip-rule="evenodd" d="M806.96 18.3615C793.769 18.0963 796.288 10.0756 786.146 10.4401C776.005 10.8379 777.595 8.98183 767.951 4.37487C762.317 1.6571 759.599 0.596519 758.207 0.0993652V38.347C761.521 39.275 767.951 40.1368 773.353 35.3641C781.009 28.6359 785.351 37.4853 791.78 32.0829C798.243 26.6805 801.524 23.7639 810.639 26.4153C819.72 29.0668 828.038 19.4552 828.038 19.4552C818.527 21.9078 820.117 18.6266 806.96 18.3615Z" fill="#FF0700"/>
<path d="M758.406 0H757.279V83.1903H758.406V0Z" fill="url(#paint33_linear_1_5878)"/>
<path fill-rule="evenodd" clip-rule="evenodd" d="M833.971 329.579C835.76 329.182 836.821 328.519 837.119 327.591C837.484 326.398 836.39 324.774 834.004 322.918C834.468 321.194 834.965 319.504 835.462 317.78C835.363 280.593 831.485 242.909 823.73 205.324C827.243 205.092 829.298 204.529 829.463 203.601C829.662 202.573 827.574 201.181 823.663 199.59C824.094 197.071 824.492 194.519 824.923 192.001C821.144 185.803 817.167 179.671 812.958 173.573C816.107 173.308 817.896 172.844 817.996 172.081C818.128 171.186 815.941 170.026 811.898 168.734C812.229 166.082 812.561 163.464 812.925 160.812C807.689 153.455 802.121 146.196 796.288 139.07C799.834 138.507 801.889 137.678 802.021 136.618C802.154 135.391 799.569 133.966 794.995 132.607C795.094 131.282 795.227 129.923 795.326 128.564C791.78 128.265 788.234 128.034 784.688 127.835C781.473 119.648 778.092 111.495 774.48 103.342C777.529 102.944 779.385 102.38 779.418 101.651C779.451 100.789 776.7 99.8615 772.292 99.1986C772.524 99.066 772.657 98.9003 772.69 98.7677C772.69 98.2706 771.397 97.7734 769.21 97.3757C769.707 97.21 769.939 97.0443 769.939 96.8454C769.939 96.2488 767.52 95.6522 763.841 95.3208C762.051 87.6978 760.129 80.1079 758.14 72.518V83.0577H757.577V71.822C755.522 79.6439 753.567 87.4658 751.711 95.3208C748.065 95.6522 745.612 96.2488 745.646 96.8454C745.646 97.0443 745.911 97.2431 746.375 97.3757C744.187 97.7734 742.895 98.2706 742.928 98.7677C742.928 98.9334 743.061 99.066 743.293 99.1986C738.885 99.8615 736.134 100.789 736.2 101.651C736.233 102.347 738.089 102.911 741.138 103.342C737.559 111.462 734.145 119.615 730.93 127.835C727.384 128.034 723.871 128.299 720.325 128.564C720.424 129.923 720.557 131.248 720.656 132.607C716.082 133.966 713.53 135.391 713.63 136.618C713.729 137.711 715.817 138.507 719.364 139.07C713.53 146.196 707.963 153.455 702.726 160.812C703.057 163.431 703.389 166.082 703.72 168.701C699.677 169.993 697.489 171.153 697.622 172.048C697.721 172.81 699.544 173.308 702.66 173.54C698.484 179.638 694.507 185.77 690.695 191.967C691.126 194.486 691.557 197.038 691.955 199.557C688.011 201.115 685.956 202.54 686.122 203.568C686.287 204.496 688.342 205.059 691.855 205.291C684.133 242.876 680.222 280.56 680.123 317.747C680.62 319.471 681.084 321.161 681.581 322.884C679.195 324.74 678.101 326.365 678.466 327.591C678.731 328.519 679.824 329.149 681.614 329.579C680.554 331.469 679.526 333.325 678.532 335.214C679.493 338.396 680.487 341.577 681.482 344.759C680.885 347.543 680.322 350.327 679.824 353.111C696.893 347.576 714.458 344.593 732.123 342.771V267.038C732.123 252.852 743.624 241.351 757.809 241.351C771.994 241.351 783.461 252.852 783.461 267.038V342.771C801.126 344.593 818.692 347.543 835.76 353.111C835.23 350.327 834.7 347.543 834.103 344.759C835.098 341.577 836.059 338.396 837.053 335.214C836.059 333.358 835.031 331.469 833.971 329.579Z" fill="url(#paint34_linear_1_5878)"/>
<path fill-rule="evenodd" clip-rule="evenodd" d="M969.557 177.484C962.762 177.351 964.055 173.208 958.818 173.407C953.582 173.606 954.41 172.645 949.439 170.292C946.523 168.9 945.131 168.336 944.401 168.071V187.758C946.092 188.222 949.406 188.686 952.223 186.234C956.167 182.787 958.388 187.328 961.735 184.543C965.049 181.759 966.773 180.268 971.446 181.627C976.119 182.986 980.394 178.047 980.394 178.047C975.522 179.34 976.351 177.65 969.557 177.484Z" fill="#FF0700"/>
<path d="M944.534 168.038H943.971V210.892H944.534V168.038Z" fill="url(#paint35_linear_1_5878)"/>
<path fill-rule="evenodd" clip-rule="evenodd" d="M983.477 337.799C984.405 337.6 984.968 337.269 985.101 336.772C985.3 336.142 984.736 335.313 983.477 334.352C983.709 333.457 983.974 332.596 984.206 331.701C984.173 312.544 982.151 293.122 978.174 273.766C979.997 273.633 981.057 273.368 981.124 272.871C981.223 272.341 980.162 271.611 978.141 270.816C978.34 269.523 978.572 268.198 978.804 266.905C976.848 263.723 974.793 260.542 972.639 257.426C974.263 257.293 975.191 257.061 975.224 256.664C975.29 256.2 974.164 255.603 972.076 254.94C972.241 253.581 972.407 252.222 972.606 250.864C969.888 247.085 967.038 243.34 964.055 239.661C965.878 239.363 966.939 238.965 967.005 238.402C967.071 237.772 965.745 237.01 963.392 236.314C963.459 235.618 963.492 234.922 963.558 234.226C961.735 234.093 959.912 233.96 958.089 233.861C956.432 229.619 954.676 225.442 952.853 221.233C954.444 221.034 955.372 220.736 955.405 220.372C955.438 219.908 954.013 219.444 951.726 219.112C951.859 219.046 951.925 218.98 951.925 218.88C951.925 218.615 951.262 218.383 950.135 218.184C950.367 218.085 950.5 217.985 950.5 217.886C950.5 217.587 949.24 217.256 947.351 217.09C946.423 213.179 945.429 209.268 944.402 205.357V210.793H944.103V204.993C943.043 209.036 942.049 213.047 941.087 217.09C939.198 217.256 937.972 217.554 937.972 217.886C937.972 217.985 938.105 218.085 938.337 218.184C937.21 218.383 936.547 218.648 936.547 218.88C936.547 218.946 936.613 219.046 936.746 219.112C934.492 219.477 933.067 219.941 933.067 220.372C933.1 220.736 934.028 221.034 935.619 221.233C933.763 225.409 932.006 229.619 930.349 233.861C928.526 233.96 926.703 234.093 924.881 234.226C924.947 234.922 924.98 235.618 925.046 236.314C922.693 237.01 921.368 237.739 921.434 238.402C921.5 238.965 922.561 239.363 924.383 239.661C921.367 243.34 918.517 247.085 915.8 250.864C915.965 252.222 916.131 253.581 916.33 254.94C914.242 255.603 913.115 256.2 913.181 256.664C913.248 257.061 914.176 257.293 915.766 257.426C913.612 260.575 911.557 263.723 909.602 266.905C909.834 268.198 910.033 269.523 910.265 270.816C908.243 271.611 907.182 272.341 907.282 272.871C907.381 273.368 908.409 273.633 910.232 273.766C906.255 293.122 904.233 312.544 904.2 331.701C904.432 332.596 904.697 333.457 904.929 334.352C903.702 335.313 903.139 336.142 903.338 336.772C903.471 337.236 904.034 337.567 904.962 337.799C904.432 338.76 903.901 339.755 903.371 340.716C903.868 342.373 904.365 343.997 904.896 345.654C904.597 347.079 904.299 348.538 904.034 349.963C912.817 347.112 921.865 345.588 930.979 344.627V305.617C930.979 298.325 936.911 292.392 944.203 292.392C951.494 292.392 957.427 298.325 957.427 305.617V344.627C966.508 345.555 975.589 347.079 984.372 349.963C984.106 348.538 983.808 347.079 983.51 345.654C984.007 343.997 984.504 342.373 985.034 340.716C984.537 339.755 984.007 338.793 983.477 337.799Z" fill="url(#paint36_linear_1_5878)"/>
<path fill-rule="evenodd" clip-rule="evenodd" d="M596.703 177.484C589.909 177.351 591.201 173.208 585.965 173.407C580.728 173.606 581.557 172.645 576.586 170.292C573.669 168.9 572.277 168.336 571.548 168.071V187.758C573.271 188.222 576.552 188.686 579.37 186.234C583.313 182.787 585.534 187.328 588.881 184.543C592.196 181.759 593.919 180.268 598.592 181.627C603.265 182.986 607.541 178.047 607.541 178.047C602.669 179.34 603.497 177.65 596.703 177.484Z" fill="#FF0700"/>
<path d="M571.68 168.038H571.117V210.892H571.68V168.038Z" fill="url(#paint37_linear_1_5878)"/>
<path fill-rule="evenodd" clip-rule="evenodd" d="M610.622 337.799C611.55 337.6 612.114 337.269 612.246 336.772C612.445 336.142 611.882 335.313 610.656 334.352C610.888 333.457 611.153 332.596 611.418 331.701C611.385 312.544 609.363 293.122 605.386 273.766C607.209 273.633 608.269 273.368 608.336 272.871C608.435 272.341 607.374 271.611 605.353 270.816C605.585 269.523 605.784 268.198 606.016 266.905C604.06 263.723 602.005 260.542 599.851 257.426C601.475 257.293 602.403 257.061 602.436 256.664C602.503 256.2 601.376 255.603 599.288 254.94C599.453 253.581 599.619 252.222 599.818 250.864C597.1 247.085 594.25 243.34 591.234 239.661C593.057 239.363 594.117 238.965 594.184 238.402C594.25 237.772 592.924 237.01 590.571 236.314C590.637 235.618 590.671 234.922 590.737 234.226C588.914 234.093 587.091 233.96 585.268 233.861C583.611 229.619 581.855 225.442 580.032 221.233C581.59 221.034 582.551 220.736 582.584 220.372C582.617 219.908 581.192 219.444 578.905 219.112C579.038 219.046 579.104 218.98 579.104 218.88C579.104 218.615 578.441 218.383 577.314 218.184C577.579 218.085 577.679 217.985 577.679 217.886C577.679 217.587 576.419 217.256 574.53 217.09C573.602 213.179 572.608 209.268 571.58 205.357V210.793H571.282V204.993C570.222 209.036 569.227 213.047 568.266 217.09C566.377 217.256 565.151 217.554 565.151 217.886C565.151 217.985 565.283 218.085 565.515 218.184C564.389 218.383 563.726 218.648 563.726 218.88C563.726 218.946 563.792 219.046 563.925 219.112C561.638 219.477 560.246 219.941 560.246 220.372C560.246 220.736 561.207 221.034 562.798 221.233C560.942 225.409 559.185 229.619 557.528 233.861C555.705 233.96 553.882 234.093 552.059 234.226C552.126 234.922 552.159 235.618 552.225 236.314C549.872 237.01 548.546 237.739 548.613 238.402C548.679 238.965 549.74 239.363 551.562 239.661C548.546 243.34 545.696 247.085 542.978 250.864C543.144 252.222 543.31 253.581 543.509 254.94C541.421 255.603 540.294 256.2 540.36 256.664C540.426 257.061 541.354 257.293 542.945 257.426C540.791 260.575 538.736 263.723 536.781 266.905C537.013 268.198 537.212 269.523 537.444 270.816C535.422 271.611 534.361 272.341 534.428 272.871C534.527 273.368 535.588 273.633 537.377 273.766C533.4 293.122 531.379 312.544 531.345 331.701C531.577 332.596 531.843 333.457 532.108 334.352C530.881 335.313 530.318 336.142 530.484 336.772C530.616 337.236 531.18 337.567 532.108 337.799C531.544 338.76 531.014 339.755 530.517 340.716C531.014 342.373 531.511 343.997 532.041 345.654C531.743 347.079 531.445 348.538 531.18 349.963C539.996 347.112 549.01 345.588 558.125 344.627V305.617C558.125 298.325 564.057 292.392 571.348 292.392C578.64 292.392 584.572 298.325 584.572 305.617V344.627C593.687 345.555 602.735 347.079 611.517 349.963C611.252 348.538 610.954 347.079 610.656 345.654C611.153 343.997 611.65 342.373 612.18 340.716C611.683 339.755 611.153 338.793 610.622 337.799Z" fill="url(#paint38_linear_1_5878)"/>
<path fill-rule="evenodd" clip-rule="evenodd" d="M1023.28 298.624H981.455C979.665 298.624 978.24 299.75 978.24 301.176C978.24 302.568 979.698 303.728 981.455 303.728H1023.28C1025.07 303.728 1026.53 302.601 1026.53 301.176C1026.53 299.75 1025.07 298.624 1023.28 298.624Z" fill="url(#paint39_linear_1_5878)"/>
<path fill-rule="evenodd" clip-rule="evenodd" d="M980.261 301.374V348.339H993.32V325.702C993.32 321.758 997.363 318.576 1002.37 318.576C1007.37 318.576 1011.42 321.758 1011.42 325.702V348.339H1024.47V301.374H980.261Z" fill="url(#paint40_linear_1_5878)"/>
<path fill-rule="evenodd" clip-rule="evenodd" d="M1014.73 238.932C1011.38 238.866 1012.01 236.844 1009.46 236.944C1006.91 237.043 1007.31 236.579 1004.85 235.419C1003.43 234.723 1002.73 234.458 1002.4 234.325V244.003C1003.23 244.235 1004.85 244.467 1006.21 243.241C1008.13 241.551 1009.26 243.771 1010.89 242.412C1012.51 241.053 1013.34 240.324 1015.66 240.987C1017.94 241.65 1020.07 239.23 1020.07 239.23C1017.68 239.827 1018.08 238.998 1014.73 238.932Z" fill="#FF0700"/>
<path d="M1002.43 234.292H1002.17V255.305H1002.43V234.292Z" fill="url(#paint41_linear_1_5878)"/>
<path fill-rule="evenodd" clip-rule="evenodd" d="M1021.62 295.939C1022.09 295.872 1022.35 295.773 1022.42 295.607C1022.52 295.409 1022.25 295.143 1021.62 294.812C1021.76 294.514 1021.86 294.248 1021.99 293.95C1021.95 287.686 1020.99 281.322 1019.04 274.959C1019.93 274.926 1020.43 274.826 1020.5 274.661C1020.53 274.495 1020.03 274.263 1019.04 273.998C1019.14 273.567 1019.24 273.136 1019.37 272.705C1018.41 271.678 1017.41 270.617 1016.35 269.59C1017.15 269.557 1017.61 269.457 1017.61 269.325C1017.65 269.192 1017.08 268.993 1016.06 268.761C1016.15 268.33 1016.22 267.866 1016.32 267.435C1014.99 266.209 1013.6 264.983 1012.11 263.756C1013.01 263.657 1013.54 263.524 1013.57 263.359C1013.6 263.16 1012.94 262.895 1011.81 262.663C1011.85 262.431 1011.88 262.199 1011.88 261.967C1010.98 261.934 1010.09 261.867 1009.19 261.834C1008.37 260.442 1007.54 259.083 1006.61 257.691C1007.37 257.625 1007.87 257.525 1007.87 257.426C1007.87 257.293 1007.17 257.128 1006.08 256.995C1006.15 256.962 1006.18 256.962 1006.18 256.962C1006.18 256.863 1005.85 256.763 1005.32 256.697C1005.45 256.664 1005.52 256.597 1005.52 256.597C1005.52 256.498 1004.89 256.399 1003.99 256.332C1003.53 255.04 1003.06 253.78 1002.53 252.488V254.277H1002.4V252.388C1001.87 253.714 1001.37 255.04 1000.91 256.365C999.981 256.432 999.385 256.531 999.385 256.631C999.385 256.631 999.451 256.697 999.551 256.73C998.987 256.796 998.689 256.863 998.689 256.962C998.689 256.962 998.722 257.028 998.788 257.028C997.661 257.128 996.965 257.293 996.998 257.459C996.998 257.592 997.462 257.658 998.258 257.724C997.363 259.083 996.501 260.475 995.673 261.867C994.778 261.9 993.883 261.934 992.988 262C993.021 262.232 993.055 262.464 993.055 262.696C991.895 262.928 991.265 263.16 991.298 263.392C991.331 263.558 991.861 263.723 992.756 263.79C991.265 264.983 989.873 266.209 988.547 267.468C988.647 267.899 988.713 268.363 988.812 268.794C987.785 269.026 987.221 269.225 987.255 269.358C987.288 269.49 987.719 269.557 988.514 269.623C987.453 270.65 986.459 271.678 985.498 272.738C985.597 273.169 985.73 273.6 985.829 274.031C984.835 274.296 984.305 274.528 984.371 274.694C984.404 274.86 984.935 274.926 985.829 274.992C983.874 281.322 982.88 287.686 982.88 293.983C983.012 294.282 983.112 294.547 983.244 294.845C982.648 295.177 982.383 295.442 982.449 295.641C982.515 295.806 982.78 295.906 983.244 295.972C982.979 296.303 982.714 296.602 982.449 296.933C982.681 297.463 982.946 297.994 983.178 298.557C983.012 299.021 982.88 299.485 982.747 299.982C984.371 299.651 985.995 299.386 987.652 299.154H1017.25C1018.91 299.386 1020.53 299.618 1022.15 299.982C1022.02 299.518 1021.89 299.054 1021.72 298.557C1021.95 298.027 1022.22 297.497 1022.45 296.933C1022.15 296.569 1021.89 296.27 1021.62 295.939Z" fill="url(#paint42_linear_1_5878)"/>
<path fill-rule="evenodd" clip-rule="evenodd" d="M534.163 298.624H492.337C490.547 298.624 489.089 299.75 489.089 301.176C489.089 302.568 490.547 303.728 492.337 303.728H534.163C535.952 303.728 537.411 302.601 537.411 301.176C537.411 299.75 535.952 298.624 534.163 298.624Z" fill="url(#paint43_linear_1_5878)"/>
<path fill-rule="evenodd" clip-rule="evenodd" d="M491.144 301.374V348.338H504.202V325.701C504.202 321.757 508.245 318.575 513.25 318.575C518.254 318.575 522.298 321.757 522.298 325.701V348.338H535.356V301.374H491.144Z" fill="url(#paint44_linear_1_5878)"/>
<path fill-rule="evenodd" clip-rule="evenodd" d="M525.612 238.932C522.298 238.866 522.927 236.844 520.342 236.943C517.79 237.043 518.188 236.579 515.735 235.419C514.31 234.723 513.614 234.458 513.282 234.325V244.003C514.111 244.235 515.735 244.467 517.094 243.241C519.016 241.55 520.143 243.771 521.767 242.412C523.391 241.053 524.22 240.324 526.54 240.987C528.827 241.65 530.948 239.23 530.948 239.23C528.562 239.827 528.959 238.998 525.612 238.932Z" fill="#FF0700"/>
<path d="M513.349 234.292H513.084V255.305H513.349V234.292Z" fill="url(#paint45_linear_1_5878)"/>
<path fill-rule="evenodd" clip-rule="evenodd" d="M532.506 295.939C532.97 295.872 533.235 295.773 533.301 295.607C533.4 295.408 533.102 295.143 532.506 294.812C532.638 294.513 532.738 294.248 532.87 293.95C532.837 287.686 531.876 281.322 529.92 274.959C530.815 274.926 531.312 274.826 531.379 274.66C531.412 274.495 530.915 274.263 529.92 273.998C530.02 273.567 530.119 273.136 530.252 272.705C529.291 271.678 528.296 270.617 527.236 269.589C528.031 269.556 528.495 269.457 528.495 269.324C528.528 269.192 527.965 268.993 526.938 268.761C527.037 268.33 527.103 267.866 527.203 267.435C525.877 266.209 524.485 264.983 522.994 263.756C523.888 263.657 524.419 263.524 524.452 263.358C524.485 263.16 523.822 262.894 522.695 262.662C522.728 262.43 522.762 262.198 522.762 261.966C521.867 261.933 520.972 261.867 520.077 261.834C519.282 260.442 518.42 259.083 517.492 257.691C518.254 257.625 518.718 257.525 518.751 257.426C518.751 257.293 518.055 257.127 516.962 256.995C517.028 256.962 517.061 256.962 517.061 256.962C517.061 256.862 516.73 256.763 516.199 256.697C516.332 256.663 516.398 256.597 516.398 256.597C516.398 256.498 515.769 256.398 514.874 256.332C514.41 255.039 513.946 253.78 513.449 252.487V254.277H513.217V252.388C512.686 253.714 512.189 255.039 511.725 256.365C510.797 256.431 510.201 256.531 510.201 256.63C510.201 256.63 510.267 256.697 510.366 256.73C509.803 256.796 509.505 256.862 509.505 256.962C509.505 256.962 509.538 257.028 509.604 257.028C508.477 257.127 507.781 257.293 507.814 257.459C507.814 257.591 508.278 257.658 509.074 257.724C508.146 259.083 507.317 260.475 506.489 261.867C505.594 261.9 504.699 261.933 503.804 262C503.837 262.232 503.87 262.464 503.87 262.696C502.71 262.928 502.081 263.16 502.114 263.392C502.147 263.557 502.677 263.723 503.572 263.789C502.081 264.982 500.689 266.209 499.363 267.468C499.462 267.899 499.529 268.363 499.628 268.794C498.601 269.026 498.07 269.225 498.07 269.357C498.104 269.49 498.568 269.556 499.33 269.623C498.269 270.65 497.275 271.677 496.314 272.738C496.413 273.169 496.546 273.6 496.645 274.031C495.651 274.296 495.121 274.528 495.187 274.694C495.22 274.859 495.75 274.926 496.645 274.992C494.69 281.322 493.696 287.686 493.696 293.983C493.828 294.281 493.928 294.547 494.06 294.845C493.464 295.176 493.165 295.441 493.265 295.64C493.331 295.806 493.596 295.905 494.06 295.972C493.795 296.303 493.53 296.601 493.265 296.933C493.497 297.463 493.762 297.993 493.994 298.557C493.828 299.021 493.696 299.485 493.563 299.982C495.187 299.651 496.811 299.385 498.468 299.153H528.064C529.722 299.385 531.346 299.618 532.97 299.982C532.837 299.518 532.704 299.054 532.539 298.557C532.771 298.027 533.036 297.496 533.268 296.933C533.036 296.568 532.771 296.27 532.506 295.939Z" fill="url(#paint46_linear_1_5878)"/>
<defs>
<linearGradient id="paint0_linear_1_5878" x1="64.6198" y1="265.542" x2="64.6198" y2="349.116" gradientUnits="userSpaceOnUse">
<stop stop-color="#B05F00"/>
<stop offset="1" stop-color="#4A2800"/>
</linearGradient>
<linearGradient id="paint1_linear_1_5878" x1="64.6563" y1="245.692" x2="64.6563" y2="271.475" gradientUnits="userSpaceOnUse">
<stop stop-color="#B05F00"/>
<stop offset="1" stop-color="#4A2800"/>
</linearGradient>
<linearGradient id="paint2_linear_1_5878" x1="381.584" y1="265.542" x2="381.584" y2="349.116" gradientUnits="userSpaceOnUse">
<stop stop-color="#B05F00"/>
<stop offset="1" stop-color="#4A2800"/>
</linearGradient>
<linearGradient id="paint3_linear_1_5878" x1="381.583" y1="245.692" x2="381.583" y2="271.475" gradientUnits="userSpaceOnUse">
<stop stop-color="#B05F00"/>
<stop offset="1" stop-color="#4A2800"/>
</linearGradient>
<linearGradient id="paint4_linear_1_5878" x1="223.083" y1="346.735" x2="223.083" y2="359.04" gradientUnits="userSpaceOnUse">
<stop stop-color="#B05F00"/>
<stop offset="1" stop-color="#4A2800"/>
</linearGradient>
<linearGradient id="paint5_linear_1_5878" x1="223.083" y1="358.015" x2="223.083" y2="370.32" gradientUnits="userSpaceOnUse">
<stop stop-color="#B05F00"/>
<stop offset="1" stop-color="#4A2800"/>
</linearGradient>
<linearGradient id="paint6_linear_1_5878" x1="223.083" y1="366.621" x2="223.083" y2="378.926" gradientUnits="userSpaceOnUse">
<stop stop-color="#B05F00"/>
<stop offset="1" stop-color="#4A2800"/>
</linearGradient>
<linearGradient id="paint7_linear_1_5878" x1="223.084" y1="66.4216" x2="223.084" y2="135.273" gradientUnits="userSpaceOnUse">
<stop stop-color="#B05F00"/>
<stop offset="1" stop-color="#4A2800"/>
</linearGradient>
<linearGradient id="paint8_linear_1_5878" x1="223.114" y1="125.824" x2="223.114" y2="358.638" gradientUnits="userSpaceOnUse">
<stop stop-color="#B05F00"/>
<stop offset="1" stop-color="#4A2800"/>
</linearGradient>
<linearGradient id="paint9_linear_1_5878" x1="120.011" y1="169.149" x2="120.011" y2="213.537" gradientUnits="userSpaceOnUse">
<stop stop-color="#B05F00"/>
<stop offset="1" stop-color="#4A2800"/>
</linearGradient>
<linearGradient id="paint10_linear_1_5878" x1="119.986" y1="207.457" x2="119.986" y2="357.502" gradientUnits="userSpaceOnUse">
<stop stop-color="#B05F00"/>
<stop offset="1" stop-color="#4A2800"/>
</linearGradient>
<linearGradient id="paint11_linear_1_5878" x1="326.156" y1="169.149" x2="326.156" y2="213.537" gradientUnits="userSpaceOnUse">
<stop stop-color="#B05F00"/>
<stop offset="1" stop-color="#4A2800"/>
</linearGradient>
<linearGradient id="paint12_linear_1_5878" x1="326.131" y1="207.457" x2="326.131" y2="357.502" gradientUnits="userSpaceOnUse">
<stop stop-color="#B05F00"/>
<stop offset="1" stop-color="#4A2800"/>
</linearGradient>
<linearGradient id="paint13_linear_1_5878" x1="1133.65" y1="265.542" x2="1133.65" y2="349.116" gradientUnits="userSpaceOnUse">
<stop stop-color="#B05F00"/>
<stop offset="1" stop-color="#4A2800"/>
</linearGradient>
<linearGradient id="paint14_linear_1_5878" x1="1133.74" y1="245.692" x2="1133.74" y2="271.475" gradientUnits="userSpaceOnUse">
<stop stop-color="#B05F00"/>
<stop offset="1" stop-color="#4A2800"/>
</linearGradient>
<linearGradient id="paint15_linear_1_5878" x1="1450.61" y1="265.542" x2="1450.61" y2="349.116" gradientUnits="userSpaceOnUse">
<stop stop-color="#B05F00"/>
<stop offset="1" stop-color="#4A2800"/>
</linearGradient>
<linearGradient id="paint16_linear_1_5878" x1="1450.67" y1="245.692" x2="1450.67" y2="271.475" gradientUnits="userSpaceOnUse">
<stop stop-color="#B05F00"/>
<stop offset="1" stop-color="#4A2800"/>
</linearGradient>
<linearGradient id="paint17_linear_1_5878" x1="1292.17" y1="346.735" x2="1292.17" y2="359.04" gradientUnits="userSpaceOnUse">
<stop stop-color="#B05F00"/>
<stop offset="1" stop-color="#4A2800"/>
</linearGradient>
<linearGradient id="paint18_linear_1_5878" x1="1292.17" y1="358.015" x2="1292.17" y2="370.32" gradientUnits="userSpaceOnUse">
<stop stop-color="#B05F00"/>
<stop offset="1" stop-color="#4A2800"/>
</linearGradient>
<linearGradient id="paint19_linear_1_5878" x1="1292.17" y1="366.621" x2="1292.17" y2="378.926" gradientUnits="userSpaceOnUse">
<stop stop-color="#B05F00"/>
<stop offset="1" stop-color="#4A2800"/>
</linearGradient>
<linearGradient id="paint20_linear_1_5878" x1="1292.17" y1="66.4216" x2="1292.17" y2="135.273" gradientUnits="userSpaceOnUse">
<stop stop-color="#B05F00"/>
<stop offset="1" stop-color="#4A2800"/>
</linearGradient>
<linearGradient id="paint21_linear_1_5878" x1="1292.2" y1="125.824" x2="1292.2" y2="358.638" gradientUnits="userSpaceOnUse">
<stop stop-color="#B05F00"/>
<stop offset="1" stop-color="#4A2800"/>
</linearGradient>
<linearGradient id="paint22_linear_1_5878" x1="1189.09" y1="169.149" x2="1189.09" y2="213.537" gradientUnits="userSpaceOnUse">
<stop stop-color="#B05F00"/>
<stop offset="1" stop-color="#4A2800"/>
</linearGradient>
<linearGradient id="paint23_linear_1_5878" x1="1189.05" y1="207.457" x2="1189.05" y2="357.502" gradientUnits="userSpaceOnUse">
<stop stop-color="#B05F00"/>
<stop offset="1" stop-color="#4A2800"/>
</linearGradient>
<linearGradient id="paint24_linear_1_5878" x1="1395.24" y1="169.149" x2="1395.24" y2="213.537" gradientUnits="userSpaceOnUse">
<stop stop-color="#B05F00"/>
<stop offset="1" stop-color="#4A2800"/>
</linearGradient>
<linearGradient id="paint25_linear_1_5878" x1="1395.23" y1="207.457" x2="1395.23" y2="357.502" gradientUnits="userSpaceOnUse">
<stop stop-color="#B05F00"/>
<stop offset="1" stop-color="#4A2800"/>
</linearGradient>
<linearGradient id="paint26_linear_1_5878" x1="646.897" y1="160.945" x2="646.897" y2="346.648" gradientUnits="userSpaceOnUse">
<stop stop-color="#B05F00"/>
<stop offset="1" stop-color="#4A2800"/>
</linearGradient>
<linearGradient id="paint27_linear_1_5878" x1="646.98" y1="117.096" x2="646.98" y2="174.335" gradientUnits="userSpaceOnUse">
<stop stop-color="#B05F00"/>
<stop offset="1" stop-color="#4A2800"/>
</linearGradient>
<linearGradient id="paint28_linear_1_5878" x1="868.687" y1="160.945" x2="868.687" y2="346.648" gradientUnits="userSpaceOnUse">
<stop stop-color="#B05F00"/>
<stop offset="1" stop-color="#4A2800"/>
</linearGradient>
<linearGradient id="paint29_linear_1_5878" x1="868.737" y1="117.096" x2="868.737" y2="174.335" gradientUnits="userSpaceOnUse">
<stop stop-color="#B05F00"/>
<stop offset="1" stop-color="#4A2800"/>
</linearGradient>
<linearGradient id="paint30_linear_1_5878" x1="757.825" y1="342.903" x2="757.825" y2="357.751" gradientUnits="userSpaceOnUse">
<stop stop-color="#B05F00"/>
<stop offset="1" stop-color="#4A2800"/>
</linearGradient>
<linearGradient id="paint31_linear_1_5878" x1="757.792" y1="356.525" x2="757.792" y2="371.373" gradientUnits="userSpaceOnUse">
<stop stop-color="#B05F00"/>
<stop offset="1" stop-color="#4A2800"/>
</linearGradient>
<linearGradient id="paint32_linear_1_5878" x1="757.809" y1="366.932" x2="757.809" y2="381.78" gradientUnits="userSpaceOnUse">
<stop stop-color="#B05F00"/>
<stop offset="1" stop-color="#4A2800"/>
</linearGradient>
<linearGradient id="paint33_linear_1_5878" x1="757.842" y1="0" x2="757.842" y2="83.1903" gradientUnits="userSpaceOnUse">
<stop stop-color="#B05F00"/>
<stop offset="1" stop-color="#4A2800"/>
</linearGradient>
<linearGradient id="paint34_linear_1_5878" x1="757.792" y1="71.822" x2="757.792" y2="353.111" gradientUnits="userSpaceOnUse">
<stop stop-color="#B05F00"/>
<stop offset="1" stop-color="#4A2800"/>
</linearGradient>
<linearGradient id="paint35_linear_1_5878" x1="944.253" y1="168.038" x2="944.253" y2="210.892" gradientUnits="userSpaceOnUse">
<stop stop-color="#B05F00"/>
<stop offset="1" stop-color="#4A2800"/>
</linearGradient>
<linearGradient id="paint36_linear_1_5878" x1="944.219" y1="204.993" x2="944.219" y2="349.963" gradientUnits="userSpaceOnUse">
<stop stop-color="#B05F00"/>
<stop offset="1" stop-color="#4A2800"/>
</linearGradient>
<linearGradient id="paint37_linear_1_5878" x1="571.398" y1="168.038" x2="571.398" y2="210.892" gradientUnits="userSpaceOnUse">
<stop stop-color="#B05F00"/>
<stop offset="1" stop-color="#4A2800"/>
</linearGradient>
<linearGradient id="paint38_linear_1_5878" x1="571.37" y1="204.993" x2="571.37" y2="349.963" gradientUnits="userSpaceOnUse">
<stop stop-color="#B05F00"/>
<stop offset="1" stop-color="#4A2800"/>
</linearGradient>
<linearGradient id="paint39_linear_1_5878" x1="1002.38" y1="298.624" x2="1002.38" y2="303.728" gradientUnits="userSpaceOnUse">
<stop stop-color="#B05F00"/>
<stop offset="1" stop-color="#4A2800"/>
</linearGradient>
<linearGradient id="paint40_linear_1_5878" x1="1002.37" y1="301.374" x2="1002.37" y2="348.339" gradientUnits="userSpaceOnUse">
<stop stop-color="#B05F00"/>
<stop offset="1" stop-color="#4A2800"/>
</linearGradient>
<linearGradient id="paint41_linear_1_5878" x1="1002.3" y1="234.292" x2="1002.3" y2="255.305" gradientUnits="userSpaceOnUse">
<stop stop-color="#B05F00"/>
<stop offset="1" stop-color="#4A2800"/>
</linearGradient>
<linearGradient id="paint42_linear_1_5878" x1="1002.45" y1="252.388" x2="1002.45" y2="299.982" gradientUnits="userSpaceOnUse">
<stop stop-color="#B05F00"/>
<stop offset="1" stop-color="#4A2800"/>
</linearGradient>
<linearGradient id="paint43_linear_1_5878" x1="513.25" y1="298.624" x2="513.25" y2="303.728" gradientUnits="userSpaceOnUse">
<stop stop-color="#B05F00"/>
<stop offset="1" stop-color="#4A2800"/>
</linearGradient>
<linearGradient id="paint44_linear_1_5878" x1="513.25" y1="301.374" x2="513.25" y2="348.338" gradientUnits="userSpaceOnUse">
<stop stop-color="#B05F00"/>
<stop offset="1" stop-color="#4A2800"/>
</linearGradient>
<linearGradient id="paint45_linear_1_5878" x1="513.216" y1="234.292" x2="513.216" y2="255.305" gradientUnits="userSpaceOnUse">
<stop stop-color="#B05F00"/>
<stop offset="1" stop-color="#4A2800"/>
</linearGradient>
<linearGradient id="paint46_linear_1_5878" x1="513.283" y1="252.388" x2="513.283" y2="299.982" gradientUnits="userSpaceOnUse">
<stop stop-color="#B05F00"/>
<stop offset="1" stop-color="#4A2800"/>
</linearGradient>
</defs>
</svg>
